<svg width="858" height="903" viewBox="0 0 858 903" fill="none" xmlns="http://www.w3.org/2000/svg">
<path d="M438.019 902C376.019 905.2 341.853 869.333 332.519 851C337.519 816.5 338.519 777 324.019 733C305.565 677 266 635 196.5 556C214.333 539.167 252.62 511.5 257.02 521.5C262.52 534 348.52 618 360.52 610.5C370.12 604.5 359.853 520.667 353.52 479.5L534.02 512.5C532.186 532.833 536.02 574.357 546.02 575.5C560.02 577.1 605.52 537.833 626.52 518L669.5 544.5C635.5 579 561.119 665.8 547.519 723C533.919 780.2 544.519 845.167 551.519 870.5C539.519 879.667 500.019 898.8 438.019 902Z" fill="#598527"/>
<path d="M824.519 508.737C783.02 566.5 701.186 559.904 669.019 545.237L660.52 547L627.02 519C623.52 515.833 615.62 506.9 612.02 496.5C600.42 504.1 555.186 510.333 534.02 512.5L398.02 504C386.853 498.5 362.42 486 354.02 480C345.52 486.5 297.52 488.5 279.52 485.5C276.72 493.5 262.686 512.167 256.02 520.5L200.52 556.737C109.52 567.737 16.0195 531.237 1.01958 454.237C-7.38042 385.627 38.1862 350.316 62.0196 341.237C48.0195 298.237 52.5195 261.737 84.5195 199.237C110.919 147.675 163.315 115.846 214.5 99.7315L215 115L225.5 131L217.5 114L218.246 98.5794C245.187 90.4886 271.606 86.7373 293.52 86.7373C296.02 75.5707 318.319 47.7373 361.52 29.7373C404.72 11.7373 447.02 20.5706 466.02 26.7373C490.02 14.2374 550.02 -10.3222 596.519 4.73728C684.52 33.237 709.52 82.7369 714.519 113.737C752.52 118.237 811.497 135.737 839.519 187.737C878.319 259.737 845.686 322.071 824.519 344.237C855.52 420 860.52 458.629 824.519 508.737Z" fill="#598527"/>
</svg>
