<svg width="1154" height="634" viewBox="0 0 1154 634" fill="none" xmlns="http://www.w3.org/2000/svg">
<path d="M578.5 476C616.055 476 646.5 449.137 646.5 416C646.5 382.863 616.055 356 578.5 356C540.945 356 510.5 382.863 510.5 416C510.5 449.137 540.945 476 578.5 476Z" fill="#C6C6C6"/>
<path fill-rule="evenodd" clip-rule="evenodd" d="M1028.01 632C1065.04 572.109 1086 503.917 1086 431.568C1086 193.22 858.561 0 578 0C297.439 0 70 193.22 70 431.568C70 503.917 90.9561 572.109 127.993 632H578H1028.01Z" fill="url(#paint0_radial)"/>
<path d="M63 278V216.5H0V633.5L1153.5 632V238.5H1118.5V370L1102.5 381H1091V355.5H1087V238.5H1037.5V342.5H1027.5V253H972V309H944V318.5H929V333H912V302H871.5V314H833V355.5H798V368.5H773.5V302L724.5 303.5V375.5H713V303.5L699 297L692 264.5L688 297L669 314.5L665.5 356.5L636 378V418H623.5L621 395.5H600.5L598 334H590V286H580.5V293H575.5V302H563.5V289.5H532L534 412H521.5V302H479L481 409.5H459.5V302H421V374.5H413.5V314.5H379V350.5H353.5V355.5H346V369H334V338.5H317.5V308H311.5V242.5H252V291H245V355.5H233.5V271.5H166.5V315H146V336H132V398H105V362.5H91H77V278H63Z" fill="black"/>
<path d="M411.294 136.008C378.181 146.035 316.621 197.173 310.092 230.764L309.159 229.762C310.092 211.713 334.258 184.64 352.065 169.599C369.871 154.558 388.442 139.518 412.693 133L413.159 136.008C412.558 135.828 412.257 135.828 412.257 136.008C412.257 146.126 411.294 312.054 411.294 315C409.455 311.108 411.294 189.706 411.294 136.008Z" fill="black"/>
<path d="M311.817 203.075L306.5 200.5V203.927L311.817 203.075Z" fill="black"/>
<path d="M315.86 213.044C313.482 212.126 306.522 213.356 303.355 214.945L303.745 218.563C310.164 216.649 314.139 215.697 315.86 213.044Z" fill="black"/>
<path d="M304.062 244.308C305.678 244.138 307.697 243.389 308.505 243.035C309.919 238.298 312.463 228.612 311.332 227.764C310.201 226.915 306.917 213.482 305.415 206.872C305.415 205.387 296.796 205.069 296.796 205.069C288.072 204.899 288 205.069 288 205.069C285.173 212.704 278.702 221.482 278.5 232.087C278.447 234.852 278.5 238.239 278.5 239.087C278.5 239.766 276.24 240.38 275.5 241.087C276.913 242.066 279.5 244.79 282.251 245.368C283.059 245.538 289.454 246.004 292.551 246.217C294.705 246.004 299.215 245.538 300.023 245.368C301.033 245.156 302.043 244.52 304.062 244.308Z" fill="black"/>
<path d="M296.828 190.003C288.195 189.835 284.229 197.669 287 204C289.251 209.141 295.029 209.548 299.425 209.127C302.942 208.791 305.167 207.606 305.5 206.905C305.685 206.541 306.173 205.608 306.419 205.027C306.883 203.932 306.785 202.457 306.785 201.688C306.785 200.217 307.618 190.213 296.828 190.003Z" fill="black"/>
<path d="M307.559 234.613C306.198 238.871 305.891 242.411 309.256 243.486C311.685 244.262 312.614 242.466 314.344 237.877C315.671 234.355 318.029 229.865 317.378 229.657C316.401 229.345 314.777 231.621 314.319 232.491C315.024 230.734 315.485 227.718 314.671 227.458C313.857 227.198 311.955 230.529 311.551 231.607C312.126 229.808 312.389 227.301 311.412 226.989C310.435 226.676 308.834 230.621 307.559 234.613Z" fill="black"/>
<path d="M295.508 204.079C294.958 203.978 294.607 203.337 294.723 202.648C294.84 201.959 295.38 201.483 295.93 201.584C296.479 201.686 296.831 202.326 296.715 203.015C296.598 203.704 296.058 204.18 295.508 204.079Z" fill="black"/>
<path d="M303.335 203.076C303.005 203.137 302.675 202.814 302.597 202.355C302.52 201.896 302.724 201.474 303.054 201.413C303.384 201.352 303.715 201.676 303.792 202.135C303.87 202.594 303.665 203.016 303.335 203.076Z" fill="black"/>
<path d="M291.118 193.947C288.876 195.986 286.945 201.07 286.259 203.357C285.886 201.985 287.325 197.704 289.194 194.175C290.689 191.351 294.171 190.418 295.791 190.418C295.168 190.745 293.361 191.908 291.118 193.947Z" fill="black"/>
<defs>
<radialGradient id="paint0_radial" cx="0" cy="0" r="1" gradientUnits="userSpaceOnUse" gradientTransform="translate(578 431.569) rotate(90) scale(361.431 425.441)">
<stop stop-color="#C4C4C4" stop-opacity="0.58"/>
<stop offset="0.273486" stop-color="#C4C4C4" stop-opacity="0.19"/>
<stop offset="1" stop-color="#C4C4C4" stop-opacity="0"/>
</radialGradient>
</defs>
</svg>
