<svg width="75" height="276" viewBox="0 0 75 276" fill="none" xmlns="http://www.w3.org/2000/svg">
<g filter="url(#filter0_d)">
<rect x="15" y="15.0063" width="45" height="245" rx="22.5" fill="#122739"/>
<rect x="16" y="16.0063" width="43" height="243" rx="21.5" stroke="#6C96E1" stroke-width="2"/>
</g>
<path d="M36.502 49.2823C35.5206 49.2823 34.6236 49.106 33.811 48.7533C32.9983 48.3853 32.3006 47.864 31.718 47.1893C31.1353 46.4993 30.683 45.6713 30.361 44.7053C30.039 43.7393 29.878 42.643 29.878 41.4163C29.878 40.205 30.039 39.124 30.361 38.1733C30.683 37.2073 31.1353 36.3947 31.718 35.7353C32.3006 35.076 32.9983 34.57 33.811 34.2173C34.6236 33.8647 35.5206 33.6883 36.502 33.6883C37.4833 33.6883 38.3803 33.8647 39.193 34.2173C40.0056 34.57 40.7033 35.076 41.286 35.7353C41.884 36.3947 42.344 37.2073 42.666 38.1733C42.988 39.124 43.149 40.205 43.149 41.4163C43.149 42.643 42.988 43.7393 42.666 44.7053C42.344 45.6713 41.884 46.4993 41.286 47.1893C40.7033 47.864 40.0056 48.3853 39.193 48.7533C38.3803 49.106 37.4833 49.2823 36.502 49.2823ZM36.502 46.9593C37.1 46.9593 37.6366 46.829 38.112 46.5683C38.5873 46.3077 38.9936 45.9397 39.331 45.4643C39.6683 44.9737 39.929 44.391 40.113 43.7163C40.297 43.0263 40.389 42.2597 40.389 41.4163C40.389 39.7297 40.0363 38.411 39.331 37.4603C38.641 36.4943 37.698 36.0113 36.502 36.0113C35.306 36.0113 34.3553 36.4943 33.65 37.4603C32.96 38.411 32.615 39.7297 32.615 41.4163C32.615 42.2597 32.707 43.0263 32.891 43.7163C33.075 44.391 33.3356 44.9737 33.673 45.4643C34.0103 45.9397 34.4166 46.3077 34.892 46.5683C35.3673 46.829 35.904 46.9593 36.502 46.9593ZM37.786 71.2823C36.8354 71.2823 35.946 71.1137 35.118 70.7763C34.29 70.439 33.5694 69.9407 32.956 69.2813C32.358 68.622 31.8827 67.8093 31.53 66.8433C31.1774 65.8773 31.001 64.7733 31.001 63.5313C31.001 62.3047 31.1774 61.2083 31.53 60.2423C31.898 59.261 32.3887 58.433 33.002 57.7583C33.6307 57.0837 34.359 56.57 35.187 56.2173C36.0304 55.8647 36.9274 55.6883 37.878 55.6883C38.8287 55.6883 39.672 55.88 40.408 56.2633C41.144 56.6467 41.7497 57.0913 42.225 57.5973L40.799 59.3223C40.4004 58.9237 39.971 58.6093 39.511 58.3793C39.051 58.134 38.5297 58.0113 37.947 58.0113C37.3337 58.0113 36.7664 58.1417 36.245 58.4023C35.739 58.6477 35.2944 59.008 34.911 59.4833C34.543 59.9433 34.2517 60.5107 34.037 61.1853C33.8377 61.86 33.738 62.619 33.738 63.4623C33.738 65.1797 34.106 66.529 34.842 67.5103C35.5934 68.4763 36.6054 68.9593 37.878 68.9593C38.5527 68.9593 39.1507 68.8213 39.672 68.5453C40.1934 68.254 40.6687 67.8783 41.098 67.4183L42.524 69.0973C41.9107 69.8027 41.2054 70.347 40.408 70.7303C39.626 71.0983 38.752 71.2823 37.786 71.2823ZM35.1672 93.0063V80.2183H30.8202V77.9643H42.1822V80.2183H37.8352V93.0063H35.1672ZM36.502 115.282C35.5206 115.282 34.6236 115.106 33.811 114.753C32.9983 114.385 32.3006 113.864 31.718 113.189C31.1353 112.499 30.683 111.671 30.361 110.705C30.039 109.739 29.878 108.643 29.878 107.416C29.878 106.205 30.039 105.124 30.361 104.173C30.683 103.207 31.1353 102.395 31.718 101.735C32.3006 101.076 32.9983 100.57 33.811 100.217C34.6236 99.8647 35.5206 99.6883 36.502 99.6883C37.4833 99.6883 38.3803 99.8647 39.193 100.217C40.0056 100.57 40.7033 101.076 41.286 101.735C41.884 102.395 42.344 103.207 42.666 104.173C42.988 105.124 43.149 106.205 43.149 107.416C43.149 108.643 42.988 109.739 42.666 110.705C42.344 111.671 41.884 112.499 41.286 113.189C40.7033 113.864 40.0056 114.385 39.193 114.753C38.3803 115.106 37.4833 115.282 36.502 115.282ZM36.502 112.959C37.1 112.959 37.6366 112.829 38.112 112.568C38.5873 112.308 38.9936 111.94 39.331 111.464C39.6683 110.974 39.929 110.391 40.113 109.716C40.297 109.026 40.389 108.26 40.389 107.416C40.389 105.73 40.0363 104.411 39.331 103.46C38.641 102.494 37.698 102.011 36.502 102.011C35.306 102.011 34.3553 102.494 33.65 103.46C32.96 104.411 32.615 105.73 32.615 107.416C32.615 108.26 32.707 109.026 32.891 109.716C33.075 110.391 33.3356 110.974 33.673 111.464C34.0103 111.94 34.4166 112.308 34.892 112.568C35.3673 112.829 35.904 112.959 36.502 112.959ZM31.5472 137.006V121.964H36.3542C37.1362 121.964 37.8492 122.033 38.4932 122.171C39.1525 122.294 39.7199 122.501 40.1952 122.792C40.6859 123.068 41.0615 123.444 41.3222 123.919C41.5982 124.395 41.7362 124.977 41.7362 125.667C41.7362 126.388 41.5522 127.055 41.1842 127.668C40.8162 128.282 40.3025 128.703 39.6432 128.933V129.025C40.4712 129.209 41.1535 129.6 41.6902 130.198C42.2422 130.781 42.5182 131.578 42.5182 132.59C42.5182 133.342 42.3725 133.993 42.0812 134.545C41.7899 135.097 41.3835 135.557 40.8622 135.925C40.3562 136.293 39.7505 136.569 39.0452 136.753C38.3399 136.922 37.5732 137.006 36.7452 137.006H31.5472ZM34.2152 128.174H36.1242C37.1822 128.174 37.9412 127.983 38.4012 127.599C38.8765 127.216 39.1142 126.702 39.1142 126.058C39.1142 125.322 38.8689 124.801 38.3782 124.494C37.8875 124.188 37.1515 124.034 36.1702 124.034H34.2152V128.174ZM34.2152 134.936H36.4692C37.5732 134.936 38.4242 134.737 39.0222 134.338C39.6202 133.924 39.9192 133.296 39.9192 132.452C39.9192 131.655 39.6279 131.08 39.0452 130.727C38.4625 130.359 37.6039 130.175 36.4692 130.175H34.2152V134.936ZM32.221 159.006V143.964H41.283V146.218H34.889V150.059H40.294V152.313H34.889V156.752H41.513V159.006H32.221ZM31.6033 181.006V165.964H36.6863C37.4683 165.964 38.1967 166.041 38.8713 166.194C39.546 166.348 40.1287 166.601 40.6193 166.953C41.11 167.291 41.4933 167.743 41.7693 168.31C42.0607 168.878 42.2063 169.583 42.2063 170.426C42.2063 171.576 41.9303 172.504 41.3783 173.209C40.8417 173.915 40.121 174.421 39.2163 174.727L42.8043 181.006H39.8143L36.5713 175.118H34.2713V181.006H31.6033ZM34.2713 173.002H36.4103C37.4377 173.002 38.2197 172.788 38.7563 172.358C39.3083 171.929 39.5843 171.285 39.5843 170.426C39.5843 169.552 39.3083 168.947 38.7563 168.609C38.2197 168.272 37.4377 168.103 36.4103 168.103H34.2713V173.002ZM36.515 225.282C35.7943 225.282 35.1273 225.183 34.514 224.983C33.916 224.784 33.3947 224.508 32.95 224.155C32.5207 223.803 32.1757 223.381 31.915 222.89C31.6697 222.4 31.547 221.855 31.547 221.257C31.547 220.797 31.616 220.383 31.754 220.015C31.9073 219.632 32.1067 219.287 32.352 218.98C32.5973 218.674 32.8733 218.398 33.18 218.152C33.502 217.907 33.8393 217.692 34.192 217.508V217.416C33.6247 217.018 33.1417 216.542 32.743 215.99C32.3597 215.438 32.168 214.771 32.168 213.989C32.168 213.391 32.2753 212.855 32.49 212.379C32.72 211.904 33.0267 211.498 33.41 211.16C33.8087 210.823 34.2763 210.562 34.813 210.378C35.365 210.194 35.9553 210.102 36.584 210.102C37.2433 210.102 37.8337 210.202 38.355 210.401C38.8917 210.585 39.344 210.854 39.712 211.206C40.0953 211.544 40.3867 211.958 40.586 212.448C40.7853 212.924 40.885 213.46 40.885 214.058C40.885 214.426 40.8237 214.779 40.701 215.116C40.5937 215.438 40.448 215.745 40.264 216.036C40.08 216.312 39.8653 216.573 39.62 216.818C39.39 217.048 39.16 217.248 38.93 217.416V217.508C39.2673 217.692 39.5893 217.907 39.896 218.152C40.2027 218.382 40.471 218.651 40.701 218.957C40.931 219.264 41.115 219.609 41.253 219.992C41.391 220.376 41.46 220.813 41.46 221.303C41.46 221.871 41.3373 222.4 41.092 222.89C40.862 223.366 40.5323 223.787 40.103 224.155C39.6737 224.508 39.1523 224.784 38.539 224.983C37.9257 225.183 37.251 225.282 36.515 225.282ZM37.481 216.749C37.8797 216.351 38.1787 215.944 38.378 215.53C38.5927 215.116 38.7 214.679 38.7 214.219C38.7 213.575 38.5083 213.046 38.125 212.632C37.757 212.203 37.228 211.988 36.538 211.988C35.9707 211.988 35.4953 212.165 35.112 212.517C34.7287 212.855 34.537 213.345 34.537 213.989C34.537 214.357 34.6137 214.679 34.767 214.955C34.9203 215.231 35.1273 215.477 35.388 215.691C35.664 215.891 35.9783 216.082 36.331 216.266C36.6837 216.435 37.067 216.596 37.481 216.749ZM36.561 223.396C37.2663 223.396 37.8413 223.205 38.286 222.821C38.746 222.438 38.976 221.901 38.976 221.211C38.976 220.813 38.884 220.475 38.7 220.199C38.516 219.908 38.263 219.655 37.941 219.44C37.6343 219.21 37.2663 219.003 36.837 218.819C36.4077 218.635 35.9477 218.444 35.457 218.244C34.997 218.582 34.6137 218.98 34.307 219.44C34.0157 219.9 33.87 220.414 33.87 220.981C33.87 221.717 34.1307 222.308 34.652 222.752C35.1733 223.182 35.8097 223.396 36.561 223.396Z" fill="#D6EBFF"/>
<circle r="2" transform="matrix(-1 0 0 1 36 196.006)" fill="#4D90F3"/>
<path d="M65.5 64.5064V37.0063C65.5 28.3397 59 9.60635 37 10.0063" stroke="#6C96E1" stroke-width="2"/>
<defs>
<filter id="filter0_d" x="0" y="0.00634766" width="75" height="275" filterUnits="userSpaceOnUse" color-interpolation-filters="sRGB">
<feFlood flood-opacity="0" result="BackgroundImageFix"/>
<feColorMatrix in="SourceAlpha" type="matrix" values="0 0 0 0 0 0 0 0 0 0 0 0 0 0 0 0 0 0 127 0"/>
<feOffset/>
<feGaussianBlur stdDeviation="7.5"/>
<feColorMatrix type="matrix" values="0 0 0 0 0 0 0 0 0 0 0 0 0 0 0 0 0 0 0.1 0"/>
<feBlend mode="normal" in2="BackgroundImageFix" result="effect1_dropShadow"/>
<feBlend mode="normal" in="SourceGraphic" in2="effect1_dropShadow" result="shape"/>
</filter>
</defs>
</svg>
