<svg cache-id="55d71db7708e4e3d90797f470c4d3f05" id="ex3yCLd7FNk1" xmlns="http://www.w3.org/2000/svg" xmlns:xlink="http://www.w3.org/1999/xlink" viewBox="0 0 375 114" shape-rendering="geometricPrecision" text-rendering="geometricPrecision"><defs><linearGradient id="ex3yCLd7FNk3-fill" x1="0" y1="-32" x2="0" y2="32" spreadMethod="pad" gradientUnits="userSpaceOnUse"><stop id="ex3yCLd7FNk3-fill-0" offset="0%" stop-color="rgb(214,112,82)"/><stop id="ex3yCLd7FNk3-fill-1" offset="100%" stop-color="rgb(214,108,77)"/></linearGradient><linearGradient id="ex3yCLd7FNk17-fill" x1="231.370000" y1="50.186600" x2="229.811000" y2="68.462600" spreadMethod="pad" gradientUnits="userSpaceOnUse"><stop id="ex3yCLd7FNk17-fill-0" offset="0%" stop-color="rgb(238,179,162)"/><stop id="ex3yCLd7FNk17-fill-1" offset="100%" stop-color="rgb(212,153,135)"/></linearGradient><linearGradient id="ex3yCLd7FNk25-fill" x1="164.627000" y1="71.616800" x2="166.186000" y2="89.892800" spreadMethod="pad" gradientUnits="userSpaceOnUse"><stop id="ex3yCLd7FNk25-fill-0" offset="0%" stop-color="rgb(238,179,162)"/><stop id="ex3yCLd7FNk25-fill-1" offset="100%" stop-color="rgb(212,153,135)"/></linearGradient></defs><path id="ex3yCLd7FNk2" d="M375,74C375,96.091400,291.053000,114,187.500000,114C83.946600,114,0,96.091400,0,74C0,51.908600,83.946600,34,187.500000,34C291.053000,34,375,51.908600,375,74Z" fill="rgb(223,223,223)" fill-opacity="0.15" stroke="none" stroke-width="1"/><ellipse id="ex3yCLd7FNk3" rx="150.091000" ry="32" transform="matrix(1 0 0 1 187.50000000000000 67)" fill="url(#ex3yCLd7FNk3-fill)" stroke="none" stroke-width="1"/><g id="ex3yCLd7FNk4"><path id="ex3yCLd7FNk5" d="M304.721000,55.431500L243,55.431500C243.426000,54.205600,243.959000,51.178200,243.959000,48.875600C243.959000,46.573100,243.640000,43.332500,243.480000,42L305.041000,42C305.360000,43.225900,306,46.349200,306,49.035500C306,51.721800,305.147000,54.418800,304.721000,55.431500Z" transform="matrix(1 0 0 1 1 -2)" fill="rgb(213,105,129)" stroke="none" stroke-width="1"/><path id="ex3yCLd7FNk6" d="M250.036000,55.591400L250.036000,42L258.190000,42L258.190000,55.591400L250.036000,55.591400Z" transform="matrix(1 0 0 1 1 -2)" fill="rgb(180,180,180)" stroke="none" stroke-width="1"/><path id="ex3yCLd7FNk7" d="M243.479000,42L305.040000,42C305.296000,42.639600,305.360000,43.439100,305.360000,43.758900C285.053000,43.812200,244.279000,43.918800,243.639000,43.918800C243.639000,43.535000,243.533000,42.479700,243.479000,42Z" transform="matrix(1 0 0 1 1 -2)" fill="rgb(0,0,0)" fill-opacity="0.05" stroke="none" stroke-width="1"/><path id="ex3yCLd7FNk8" d="M244.279000,41.431500L306,41.431500C305.574000,40.205600,305.041000,37.178200,305.041000,34.875600C305.041000,32.573100,305.360000,29.332500,305.520000,28L243.959000,28C243.640000,29.225900,243,32.349200,243,35.035500C243,37.721800,243.853000,40.418800,244.279000,41.431500Z" transform="matrix(1 0 0 1 0 -1)" fill="rgb(105,135,213)" stroke="none" stroke-width="1"/><path id="ex3yCLd7FNk9" d="M298.964000,41.591400L298.964000,28L290.810000,28L290.810000,41.591400L298.964000,41.591400Z" transform="matrix(1 0 0 1 0 -1)" fill="rgb(180,180,180)" stroke="none" stroke-width="1"/><path id="ex3yCLd7FNk10" d="M305.521000,28L243.960000,28C243.704000,28.639600,243.640000,29.439100,243.640000,29.758900C263.947000,29.812200,304.721000,29.918800,305.361000,29.918800C305.361000,29.535000,305.467000,28.479700,305.521000,28Z" transform="matrix(1 0 0 1 0 -1)" fill="rgb(0,0,0)" fill-opacity="0.05" stroke="none" stroke-width="1"/><path id="ex3yCLd7FNk11" d="M304.721000,27.431500L243,27.431500C243.426000,26.205600,243.959000,23.178200,243.959000,20.875600C243.959000,18.573100,243.640000,15.332500,243.480000,14L305.041000,14C305.360000,15.225900,306,18.349200,306,21.035500C306,23.721800,305.147000,26.418800,304.721000,27.431500Z" fill="rgb(213,144,105)" stroke="none" stroke-width="1"/><path id="ex3yCLd7FNk12" d="M250.036000,27.591400L250.036000,14L258.190000,14L258.190000,27.591400L250.036000,27.591400Z" fill="rgb(180,180,180)" stroke="none" stroke-width="1"/><path id="ex3yCLd7FNk13" d="M243.479000,14L305.040000,14C305.296000,14.639600,305.360000,15.439100,305.360000,15.758900C285.053000,15.812200,244.279000,15.918800,243.639000,15.918800C243.639000,15.535000,243.533000,14.479700,243.479000,14Z" fill="rgb(0,0,0)" fill-opacity="0.05" stroke="none" stroke-width="1"/><path id="ex3yCLd7FNk14" d="M244.279000,14.419700L306,14.419700C305.574000,13.103600,305.041000,9.853470,305.041000,7.381520C305.041000,4.909570,305.360000,1.430530,305.520000,0L243.959000,0C243.640000,1.316080,243,4.669240,243,7.553180C243,10.437100,243.853000,13.332500,244.279000,14.419700Z" fill="rgb(213,189,105)" stroke="none" stroke-width="1"/><path id="ex3yCLd7FNk15" d="M298.964000,14.591400L298.964000,0L290.810000,0L290.810000,14.591400L298.964000,14.591400Z" fill="rgb(180,180,180)" stroke="none" stroke-width="1"/><path id="ex3yCLd7FNk16" d="M305.521000,0L243.960000,0C243.704000,0.686653,243.640000,1.544970,243.640000,1.888290C263.947000,1.945520,304.721000,2.059960,305.361000,2.059960C305.361000,1.647970,305.467000,0.514990,305.521000,0Z" fill="rgb(0,0,0)" fill-opacity="0.05" stroke="none" stroke-width="1"/></g><path id="ex3yCLd7FNk17" d="M219.374000,64.152600C226.285000,63.893300,227.266000,59.921000,229.365000,58.415600C232.076000,59.578900,234.669000,61.999200,238.160000,63.236700C242.524000,64.783600,253.339000,64.121200,259.604000,60.177600C261.728000,63.173800,267.945000,64.972300,272.814000,65.256000C276.709000,65.483000,281.429000,62.885700,282.086000,61.487700C284.698000,63.507000,291.948000,67.807200,300.048000,68.853700C308.148000,69.900200,315.887000,65.803200,318.744000,63.623900C320.434000,63.387500,327.691000,60.047200,327.692000,53.087200C327.692000,46.127200,324.971000,44.680400,312.971000,44.984700C292.212000,45.510900,288.676000,49.622200,288.974000,55.811600C287.239000,55.201000,283.432000,54.482200,282.086000,56.492700C282.943000,53.697000,277.677000,45.640300,264.990000,44.983900C254.840000,44.458700,249.901000,49.982700,248.700000,52.810300C246.596000,53.958100,243.768000,51.297400,240.177000,51.184300C236.587000,51.071100,233.191000,52.190400,233.191000,52.190400C231.121000,50.920300,226.086000,48.461900,222.509000,48.789100C218.931000,49.116300,215.298000,53.054400,213.929000,54.982500C212.643000,54.069900,209.257000,52.357900,206,52.810300C202.743000,53.262700,199.705000,57.227900,198.593000,59.154000C196.389000,56.651300,190.642000,52.225200,183,53.181800C175.358000,54.138400,171.801000,54.280600,170.723000,58.221000C169.712000,57.261800,167.147000,55.470300,164.978000,55.977800C162.808000,56.485300,160.199000,57.960200,159.166000,58.634200C159.009000,57.854500,158.096000,56.092200,155.703000,55.280900C153.309000,54.469600,149.981000,56.732200,148.971000,56.953400C148.432000,56.230000,146.860000,52.844500,142.047000,53.181800C138.768000,53.565200,132.229000,54.995700,132.338000,57.070200C132.398000,58.221900,145.459000,61.974600,148.794000,59.983900C151.341000,62.317300,157.726000,62.745800,161.030000,61.770000C163.690000,62.978200,169.601000,64.952000,173.708000,65.191400C177.144000,65.391600,182.341000,64.436200,186.752000,60.241100C189.370000,63.421300,204.936000,63.311300,207.727000,61.464000C209.749000,63.591800,219.374000,64.152600,219.374000,64.152600Z" transform="matrix(1 0 0 1 2.17527594000001 -1)" fill="url(#ex3yCLd7FNk17-fill)" stroke="none" stroke-width="1"/><g id="ex3yCLd7FNk18" transform="matrix(1 0 0 1 0 -1)"><path id="ex3yCLd7FNk19" d="M234.795000,84.584400L234.795000,12.225000C211.026000,12.160600,192.494000,17.482200,173.947000,17.431900C159.475000,5.591300,138.425000,11.182800,113.428000,11.896100L113.428000,84.255500C132.636000,79.256100,157.392000,79.760400,167.369000,80.637500C167.917000,81.185700,170,82.282000,173.947000,82.282000C178.881000,82.282000,180.525000,81.953100,181.183000,80.637500C195.392000,78.269400,222.844000,82.282000,234.795000,84.584400Z" fill="rgb(128,99,82)" stroke="none" stroke-width="1"/><path id="ex3yCLd7FNk20" d="M116.717000,79.979700L116.060000,11.238400C121.059000,9.133350,158.488000,11.567300,173.618000,16.500900C178.091000,12.290900,212.429000,7.949340,231.835000,10.909500L231.835000,79.650800C218.678000,75.046200,206.969000,73.993700,200.917000,73.730500C193.353000,73.401600,182.170000,75.046200,173.947000,79.321900C169.013000,77.019600,159.146000,74.388300,147.963000,73.730500C139.017000,73.204300,123.405000,77.677400,116.717000,79.979700Z" fill="rgb(182,168,160)" stroke="none" stroke-width="1"/><path id="ex3yCLd7FNk21" d="M118.691000,77.348600L118.691000,8.607220C120.007000,8.168670,125.006000,7.094200,134.478000,6.304780C151.582000,4.989160,167.698000,12.554000,173.618000,16.500900C176.030000,14.088900,183.354000,8.936130,193.353000,7.620510C203.351000,6.304880,222.077000,7.730140,230.190000,8.607220L229.532000,77.348600C224.160000,75.923300,210.850000,73.007000,200.589000,72.743900C190.327000,72.480800,178.552000,76.800400,173.947000,78.993100C168.465000,77.019700,155.397000,73.007000,146.977000,72.743900C138.557000,72.480800,124.611000,75.704100,118.691000,77.348600Z" fill="rgb(220,217,217)" stroke="none" stroke-width="1"/><path id="ex3yCLd7FNk22" d="M202.233000,70.441500C190.392000,69.915200,178.442000,75.265400,173.947000,78.006300C171.316000,76.690800,156.186000,70.441400,145.661000,70.441400C137.241000,70.441400,126.365000,73.291900,121.980000,74.717200L121.980000,6.304720C124.063000,5.646910,130.729000,4.331290,140.728000,4.331290C150.726000,4.331290,167.040000,12.444300,173.947000,16.500800C179.429000,12.444300,192.103000,4.199780,198.944000,3.673530C205.785000,3.147280,219.994000,4.989160,226.243000,5.975880L226.243000,75.046200C223.173000,73.730500,214.074000,70.967700,202.233000,70.441500Z" fill="rgb(235,235,235)" stroke="none" stroke-width="1"/><path id="ex3yCLd7FNk23" d="M204.206000,67.810200C193.418000,67.283900,179.538000,73.949800,173.947000,77.348500C171.754000,75.594300,164.935000,71.494000,155.199000,69.125900C145.463000,66.757700,131.847000,68.797000,126.255000,70.112600L126.255000,1.042290C129.764000,0.384482,138.664000,-0.931151,149.608000,1.042290C169.671000,4.660260,173.947000,13.869600,173.947000,16.500900C174.276000,14.198500,182.498000,4.660180,191.708000,2.028930C199.075000,-0.076072,214.950000,0.494032,221.967000,1.042210L221.967000,70.112500C220.542000,69.564300,214.994000,68.336400,204.206000,67.810200Z" fill="rgb(245,245,245)" stroke="none" stroke-width="1"/><path id="ex3yCLd7FNk24" d="M173.947000,77.348600L173.947000,16.501000" fill="none" stroke="rgb(226,226,226)" stroke-width="1"/></g><path id="ex3yCLd7FNk25" d="M176.624000,85.584800C169.712000,85.325500,168.731000,81.353100,166.632000,79.847800C163.922000,81.011000,161.328000,83.431300,157.837000,84.668900C153.473000,86.215700,142.658000,85.553400,136.393000,81.609800C134.269000,84.606000,128.052000,86.404500,123.183000,86.688200C119.288000,86.915200,114.568000,84.317800,113.912000,82.919900C111.299000,84.939200,104.050000,89.239300,95.949300,90.285800C87.849100,91.332300,80.110100,87.235300,77.253100,85.056000C75.563100,84.819600,68.305500,74.519400,68.305500,74.519400C62.500300,60.955800,74.641700,55.141600,81.438100,53.930000C102.197000,54.456200,106.792000,66.966600,106.494000,73.156000C108.229000,72.545300,112.036000,71.826600,113.382000,73.837000C112.524000,71.041300,117.791000,62.984600,130.478000,62.328200C140.627000,61.803100,145.567000,67.327000,146.768000,70.154600C148.668000,68.640700,151.496000,65.980100,155.086000,65.866900C158.677000,65.753800,162.602000,70.960800,162.602000,70.960800C164.672000,69.690700,169.707000,67.232300,173.284000,67.559500C176.862000,67.886800,180.495000,71.824800,181.864000,73.753000C183.150000,72.840400,186.536000,71.128300,189.793000,71.580800C193.050000,72.033200,196.088000,75.998400,197.200000,77.924400C199.404000,75.421800,205.724000,70.655600,213.367000,71.612200C221.009000,72.568800,224.196000,75.712700,225.274000,79.653100C226.285000,78.694000,228.850000,76.902500,231.019000,77.410000C233.189000,77.917500,235.798000,79.392400,236.831000,80.066400C236.988000,79.286700,237.901000,77.524400,240.295000,76.713100C242.688000,75.901800,246.016000,78.164400,247.026000,78.385600C247.565000,77.662200,249.137000,74.276700,253.950000,74.614000C257.229000,74.997400,263.769000,76.427900,263.660000,78.502400C263.599000,79.654100,250.538000,83.406700,247.203000,81.416000C244.656000,83.749500,238.271000,84.177900,234.967000,83.202100C232.307000,84.410300,226.396000,86.384200,222.289000,86.623500C218.853000,86.823800,213.656000,85.868400,209.245000,81.673200C206.627000,84.853500,191.061000,84.743500,188.271000,82.896100C186.248000,85.023900,176.624000,85.584800,176.624000,85.584800Z" transform="matrix(1 0 0 1 0 -1)" fill="url(#ex3yCLd7FNk25-fill)" stroke="none" stroke-width="1"/><script><![CDATA[!function(t,n){"object"==typeof exports&&"undefined"!=typeof module?module.exports=n():"function"==typeof define&&define.amd?define(n):(t="undefined"!=typeof globalThis?globalThis:t||self).__SVGATOR_PLAYER__=n()}(this,(function(){"use strict";function t(n){return(t="function"==typeof Symbol&&"symbol"==typeof Symbol.iterator?function(t){return typeof t}:function(t){return t&&"function"==typeof Symbol&&t.constructor===Symbol&&t!==Symbol.prototype?"symbol":typeof t})(n)}function n(t,n){if(!(t instanceof n))throw new TypeError("Cannot call a class as a function")}function r(t,n){for(var r=0;r<n.length;r++){var e=n[r];e.enumerable=e.enumerable||!1,e.configurable=!0,"value"in e&&(e.writable=!0),Object.defineProperty(t,e.key,e)}}function e(t,n,e){return n&&r(t.prototype,n),e&&r(t,e),t}function i(t){return(i=Object.setPrototypeOf?Object.getPrototypeOf:function(t){return t.__proto__||Object.getPrototypeOf(t)})(t)}function o(t,n){return(o=Object.setPrototypeOf||function(t,n){return t.__proto__=n,t})(t,n)}function u(t,n){return!n||"object"!=typeof n&&"function"!=typeof n?function(t){if(void 0===t)throw new ReferenceError("this hasn't been initialised - super() hasn't been called");return t}(t):n}function a(t){var n=function(){if("undefined"==typeof Reflect||!Reflect.construct)return!1;if(Reflect.construct.sham)return!1;if("function"==typeof Proxy)return!0;try{return Boolean.prototype.valueOf.call(Reflect.construct(Boolean,[],(function(){}))),!0}catch(t){return!1}}();return function(){var r,e=i(t);if(n){var o=i(this).constructor;r=Reflect.construct(e,arguments,o)}else r=e.apply(this,arguments);return u(this,r)}}function l(t,n,r){return(l="undefined"!=typeof Reflect&&Reflect.get?Reflect.get:function(t,n,r){var e=function(t,n){for(;!Object.prototype.hasOwnProperty.call(t,n)&&null!==(t=i(t)););return t}(t,n);if(e){var o=Object.getOwnPropertyDescriptor(e,n);return o.get?o.get.call(r):o.value}})(t,n,r||t)}var f=Math.abs;function s(t){return t}function c(t,n,r){var e=1-r;return 3*r*e*(t*e+n*r)+r*r*r}function h(){var t=arguments.length>0&&void 0!==arguments[0]?arguments[0]:0,n=arguments.length>1&&void 0!==arguments[1]?arguments[1]:0,r=arguments.length>2&&void 0!==arguments[2]?arguments[2]:1,e=arguments.length>3&&void 0!==arguments[3]?arguments[3]:1;return t<0||t>1||r<0||r>1?null:f(t-n)<=1e-5&&f(r-e)<=1e-5?s:function(i){if(i<=0)return t>0?i*n/t:0===n&&r>0?i*e/r:0;if(i>=1)return r<1?1+(i-1)*(e-1)/(r-1):1===r&&t<1?1+(i-1)*(n-1)/(t-1):1;for(var o,u=0,a=1;u<a;){var l=c(t,r,o=(u+a)/2);if(f(i-l)<1e-5)break;l<i?u=o:a=o}return c(n,e,o)}}function v(){return 1}function y(t){return 1===t?1:0}function d(){var t=arguments.length>0&&void 0!==arguments[0]?arguments[0]:1,n=arguments.length>1&&void 0!==arguments[1]?arguments[1]:0;if(1===t){if(0===n)return y;if(1===n)return v}var r=1/t;return function(t){return t>=1?1:(t+=n*r)-t%r}}function g(t){var n=arguments.length>1&&void 0!==arguments[1]?arguments[1]:2;if(Number.isInteger(t))return t;var r=Math.pow(10,n);return Math.round(t*r)/r}var p=Math.PI/180;function m(t,n,r){return t>=.5?r:n}function b(t,n,r){return 0===t||n===r?n:t*(r-n)+n}function w(t,n,r){var e=b(t,n,r);return e<=0?0:e}function x(t,n,r){return 0===t?n:1===t?r:{x:b(t,n.x,r.x),y:b(t,n.y,r.y)}}function k(t,n,r){var e=function(t,n,r){return Math.round(b(t,n,r))}(t,n,r);return e<=0?0:e>=255?255:e}function A(t,n,r){return 0===t?n:1===t?r:{r:k(t,n.r,r.r),g:k(t,n.g,r.g),b:k(t,n.b,r.b),a:b(t,null==n.a?1:n.a,null==r.a?1:r.a)}}function _(t,n,r){if(0===t)return n;if(1===t)return r;var e=n.length;if(e!==r.length)return m(t,n,r);for(var i=[],o=0;o<e;o++)i.push(A(t,n[o],r[o]));return i}function S(t,n){for(var r=[],e=0;e<t;e++)r.push(n);return r}function O(t,n){if(--n<=0)return t;var r=(t=Object.assign([],t)).length;do{for(var e=0;e<r;e++)t.push(t[e])}while(--n>0);return t}var M,j=function(){function t(r){n(this,t),this.list=r,this.length=r.length}return e(t,[{key:"setAttribute",value:function(t,n){for(var r=this.list,e=0;e<this.length;e++)r[e].setAttribute(t,n)}},{key:"removeAttribute",value:function(t){for(var n=this.list,r=0;r<this.length;r++)n[r].removeAttribute(t)}},{key:"style",value:function(t,n){for(var r=this.list,e=0;e<this.length;e++)r[e].style[t]=n}}]),t}(),F=/-./g,P=function(t,n){return n.toUpperCase()};function B(t){return"function"==typeof t?t:m}function I(t){return t?"function"==typeof t?t:Array.isArray(t)?function(t){var n=arguments.length>1&&void 0!==arguments[1]?arguments[1]:s;if(!Array.isArray(t))return n;switch(t.length){case 1:return d(t[0])||n;case 2:return d(t[0],t[1])||n;case 4:return h(t[0],t[1],t[2],t[3])||n}return n}(t,null):function(t,n){var r=arguments.length>2&&void 0!==arguments[2]?arguments[2]:s;switch(t){case"linear":return s;case"steps":return d(n.steps||1,n.jump||0)||r;case"bezier":case"cubic-bezier":return h(n.x1||0,n.y1||0,n.x2||0,n.y2||0)||r}return r}(t.type,t.value,null):null}function R(t,n,r){var e=arguments.length>3&&void 0!==arguments[3]&&arguments[3],i=n.length-1;if(t<=n[0].t)return e?[0,0,n[0].v]:n[0].v;if(t>=n[i].t)return e?[i,1,n[i].v]:n[i].v;var o,u=n[0],a=null;for(o=1;o<=i;o++){if(!(t>n[o].t)){a=n[o];break}u=n[o]}return null==a?e?[i,1,n[i].v]:n[i].v:u.t===a.t?e?[o,1,a.v]:a.v:(t=(t-u.t)/(a.t-u.t),u.e&&(t=u.e(t)),e?[o,t,r(t,u.v,a.v)]:r(t,u.v,a.v))}function q(t,n){var r=arguments.length>2&&void 0!==arguments[2]?arguments[2]:null;return t&&t.length?"function"!=typeof n?null:("function"!=typeof r&&(r=null),function(e){var i=R(e,t,n);return null!=i&&r&&(i=r(i)),i}):null}function E(t,n){return t.t-n.t}function T(n,r,e,i,o){var u,a="@"===e[0],l="#"===e[0],f=M[e],s=m;switch(a?(u=e.substr(1),e=u.replace(F,P)):l&&(e=e.substr(1)),t(f)){case"function":if(s=f(i,o,R,I,e,a,r,n),l)return s;break;case"string":s=q(i,B(f));break;case"object":if((s=q(i,B(f.i),f.f))&&"function"==typeof f.u)return f.u(r,s,e,a,n)}return s?function(t,n,r){var e=arguments.length>3&&void 0!==arguments[3]&&arguments[3];if(e)return t instanceof j?function(e){return t.style(n,r(e))}:function(e){return t.style[n]=r(e)};if(Array.isArray(n)){var i=n.length;return function(e){var o=r(e);if(null==o)for(var u=0;u<i;u++)t[u].removeAttribute(n);else for(var a=0;a<i;a++)t[a].setAttribute(n,o)}}return function(e){var i=r(e);null==i?t.removeAttribute(n):t.setAttribute(n,i)}}(r,e,s,a):null}function N(n,r,e,i){if(!i||"object"!==t(i))return null;var o=null,u=null;return Array.isArray(i)?u=function(t){if(!t||!t.length)return null;for(var n=0;n<t.length;n++)t[n].e&&(t[n].e=I(t[n].e));return t.sort(E)}(i):(u=i.keys,o=i.data||null),u?T(n,r,e,u,o):null}function C(t,n,r){if(!r)return null;var e=[];for(var i in r)if(r.hasOwnProperty(i)){var o=N(t,n,i,r[i]);o&&e.push(o)}return e.length?e:null}function z(t,n){if(!n.duration||n.duration<0)return null;var r=function(t,n){if(!n)return null;var r=[];if(Array.isArray(n))for(var e=n.length,i=0;i<e;i++){var o=n[i];if(2===o.length){var u=null;if("string"==typeof o[0])u=t.getElementById(o[0]);else if(Array.isArray(o[0])){u=[];for(var a=0;a<o[0].length;a++)if("string"==typeof o[0][a]){var l=t.getElementById(o[0][a]);l&&u.push(l)}u=u.length?1===u.length?u[0]:new j(u):null}if(u){var f=C(t,u,o[1]);f&&(r=r.concat(f))}}}else for(var s in n)if(n.hasOwnProperty(s)){var c=t.getElementById(s);if(c){var h=C(t,c,n[s]);h&&(r=r.concat(h))}}return r.length?r:null}(t,n.elements);return r?function(t,n){var r=arguments.length>2&&void 0!==arguments[2]?arguments[2]:1/0,e=arguments.length>3&&void 0!==arguments[3]?arguments[3]:1,i=arguments.length>4&&void 0!==arguments[4]&&arguments[4],o=arguments.length>5&&void 0!==arguments[5]?arguments[5]:1,u=t.length,a=e>0?n:0;i&&r%2==0&&(a=n-a);var l=null;return function(f,s){var c=f%n,h=1+(f-c)/n;s*=e,i&&h%2==0&&(s=-s);var v=!1;if(h>r)c=a,v=!0,-1===o&&(c=e>0?0:n);else if(s<0&&(c=n-c),c===l)return!1;l=c;for(var y=0;y<u;y++)t[y](c);return v}}(r,n.duration,n.iterations||1/0,n.direction||1,!!n.alternate,n.fill||1):null}var L=function(){function t(r,e){var i=arguments.length>2&&void 0!==arguments[2]?arguments[2]:{};n(this,t),this._id=0,this._running=!1,this._rollingBack=!1,this._animations=r,this.duration=e.duration,this.alternate=e.alternate,this.fill=e.fill,this.iterations=e.iterations,this.direction=i.direction||1,this.speed=i.speed||1,this.fps=i.fps||100,this.offset=i.offset||0,this.rollbackStartOffset=0}return e(t,[{key:"_rollback",value:function(){var t=this,n=1/0,r=null;this.rollbackStartOffset=this.offset,this._rollingBack||(this._rollingBack=!0,this._running=!0);this._id=window.requestAnimationFrame((function e(i){if(t._rollingBack){null==r&&(r=i);var o=i-r,u=t.rollbackStartOffset-o,a=Math.round(u*t.speed);if(a>t.duration&&n!=1/0){var l=!!t.alternate&&a/t.duration%2>1,f=a%t.duration;a=(f+=l?t.duration:0)||t.duration}var s=t.fps?1e3/t.fps:0,c=Math.max(0,a);if(c<n-s){t.offset=c,n=c;for(var h=t._animations,v=h.length,y=0;y<v;y++)h[y](c,t.direction)}var d=!1;if(t.iterations>0&&-1===t.fill){var g=t.iterations*t.duration,p=g==a;a=p?0:a,t.offset=p?0:t.offset,d=a>g}a>0&&t.offset>=a&&!d?t._id=window.requestAnimationFrame(e):t.stop()}}))}},{key:"_start",value:function(){var t=this,n=arguments.length>0&&void 0!==arguments[0]?arguments[0]:0,r=-1/0,e=null,i={},o=function o(u){t._running=!0,null==e&&(e=u);var a=Math.round((u-e+n)*t.speed),l=t.fps?1e3/t.fps:0;if(a>r+l&&!t._rollingBack){t.offset=a,r=a;for(var f=t._animations,s=f.length,c=0,h=0;h<s;h++)i[h]?c++:(i[h]=f[h](a,t.direction),i[h]&&c++);if(c===s)return void t._stop()}t._id=window.requestAnimationFrame(o)};this._id=window.requestAnimationFrame(o)}},{key:"_stop",value:function(){this._id&&window.cancelAnimationFrame(this._id),this._running=!1,this._rollingBack=!1}},{key:"play",value:function(){!this._rollingBack&&this._running||(this._rollingBack=!1,this.rollbackStartOffset>this.duration&&(this.offset=this.rollbackStartOffset-(this.rollbackStartOffset-this.offset)%this.duration,this.rollbackStartOffset=0),this._start(this.offset))}},{key:"stop",value:function(){this._stop(),this.offset=0,this.rollbackStartOffset=0;var t=this.direction,n=this._animations;window.requestAnimationFrame((function(){for(var r=0;r<n.length;r++)n[r](0,t)}))}},{key:"reachedToEnd",value:function(){return this.iterations>0&&this.offset>=this.iterations*this.duration}},{key:"restart",value:function(){this._stop(),this.offset=0,this._start()}},{key:"pause",value:function(){this._stop()}},{key:"reverse",value:function(){this.direction=-this.direction}}],[{key:"build",value:function(n,r){return(n=function(t,n){if(M=n,!t||!t.root||!Array.isArray(t.animations))return null;for(var r=document.getElementsByTagName("svg"),e=!1,i=0;i<r.length;i++)if(r[i].id===t.root&&!r[i].svgatorAnimation){(e=r[i]).svgatorAnimation=!0;break}if(!e)return null;var o=t.animations.map((function(t){return z(e,t)})).filter((function(t){return!!t}));return o.length?{element:e,animations:o,animationSettings:t.animationSettings,options:t.options||void 0}:null}(n,r))?{el:n.element,options:n.options||{},player:new t(n.animations,n.animationSettings,n.options)}:null}}]),t}();!function(){for(var t=0,n=["ms","moz","webkit","o"],r=0;r<n.length&&!window.requestAnimationFrame;++r)window.requestAnimationFrame=window[n[r]+"RequestAnimationFrame"],window.cancelAnimationFrame=window[n[r]+"CancelAnimationFrame"]||window[n[r]+"CancelRequestAnimationFrame"];window.requestAnimationFrame||(window.requestAnimationFrame=function(n){var r=Date.now(),e=Math.max(0,16-(r-t)),i=window.setTimeout((function(){n(r+e)}),e);return t=r+e,i},window.cancelAnimationFrame=window.clearTimeout)}();var D=/\.0+$/g;function Q(t){return Number.isInteger(t)?t+"":t.toFixed(6).replace(D,"")}function U(t){var n=arguments.length>1&&void 0!==arguments[1]?arguments[1]:" ";return t&&t.length?t.map(Q).join(n):""}function V(t){return t?null==t.a||t.a>=1?"rgb("+t.r+","+t.g+","+t.b+")":"rgba("+t.r+","+t.g+","+t.b+","+t.a+")":"transparent"}var $={f:null,i:function(t,n,r){return 0===t?n:1===t?r:{x:w(t,n.x,r.x),y:w(t,n.y,r.y)}},u:function(t,n){return function(r){var e=n(r);t.setAttribute("rx",Q(e.x)),t.setAttribute("ry",Q(e.y))}}},G={f:null,i:function(t,n,r){return 0===t?n:1===t?r:{width:w(t,n.width,r.width),height:w(t,n.height,r.height)}},u:function(t,n){return function(r){var e=n(r);t.setAttribute("width",Q(e.width)),t.setAttribute("height",Q(e.height))}}},H=Math.sin,Y=Math.cos,Z=Math.acos,J=Math.asin,K=Math.tan,W=Math.atan2,X=Math.PI/180,tt=180/Math.PI,nt=Math.sqrt,rt=function(){function t(){var r=arguments.length>0&&void 0!==arguments[0]?arguments[0]:1,e=arguments.length>1&&void 0!==arguments[1]?arguments[1]:0,i=arguments.length>2&&void 0!==arguments[2]?arguments[2]:0,o=arguments.length>3&&void 0!==arguments[3]?arguments[3]:1,u=arguments.length>4&&void 0!==arguments[4]?arguments[4]:0,a=arguments.length>5&&void 0!==arguments[5]?arguments[5]:0;n(this,t),this.m=[r,e,i,o,u,a],this.i=null,this.w=null,this.s=null}return e(t,[{key:"determinant",get:function(){var t=this.m;return t[0]*t[3]-t[1]*t[2]}},{key:"isIdentity",get:function(){if(null===this.i){var t=this.m;this.i=1===t[0]&&0===t[1]&&0===t[2]&&1===t[3]&&0===t[4]&&0===t[5]}return this.i}},{key:"point",value:function(t,n){var r=this.m;return{x:r[0]*t+r[2]*n+r[4],y:r[1]*t+r[3]*n+r[5]}}},{key:"translateSelf",value:function(){var t=arguments.length>0&&void 0!==arguments[0]?arguments[0]:0,n=arguments.length>1&&void 0!==arguments[1]?arguments[1]:0;if(!t&&!n)return this;var r=this.m;return r[4]+=r[0]*t+r[2]*n,r[5]+=r[1]*t+r[3]*n,this.w=this.s=this.i=null,this}},{key:"rotateSelf",value:function(){var t=arguments.length>0&&void 0!==arguments[0]?arguments[0]:0;if(t%=360){var n=H(t*=X),r=Y(t),e=this.m,i=e[0],o=e[1];e[0]=i*r+e[2]*n,e[1]=o*r+e[3]*n,e[2]=e[2]*r-i*n,e[3]=e[3]*r-o*n,this.w=this.s=this.i=null}return this}},{key:"scaleSelf",value:function(){var t=arguments.length>0&&void 0!==arguments[0]?arguments[0]:1,n=arguments.length>1&&void 0!==arguments[1]?arguments[1]:1;if(1!==t||1!==n){var r=this.m;r[0]*=t,r[1]*=t,r[2]*=n,r[3]*=n,this.w=this.s=this.i=null}return this}},{key:"skewSelf",value:function(t,n){if(n%=360,(t%=360)||n){var r=this.m,e=r[0],i=r[1],o=r[2],u=r[3];t&&(t=K(t*X),r[2]+=e*t,r[3]+=i*t),n&&(n=K(n*X),r[0]+=o*n,r[1]+=u*n),this.w=this.s=this.i=null}return this}},{key:"resetSelf",value:function(){var t=arguments.length>0&&void 0!==arguments[0]?arguments[0]:1,n=arguments.length>1&&void 0!==arguments[1]?arguments[1]:0,r=arguments.length>2&&void 0!==arguments[2]?arguments[2]:0,e=arguments.length>3&&void 0!==arguments[3]?arguments[3]:1,i=arguments.length>4&&void 0!==arguments[4]?arguments[4]:0,o=arguments.length>5&&void 0!==arguments[5]?arguments[5]:0,u=this.m;return u[0]=t,u[1]=n,u[2]=r,u[3]=e,u[4]=i,u[5]=o,this.w=this.s=this.i=null,this}},{key:"recomposeSelf",value:function(){var t=arguments.length>0&&void 0!==arguments[0]?arguments[0]:null,n=arguments.length>1&&void 0!==arguments[1]?arguments[1]:null,r=arguments.length>2&&void 0!==arguments[2]?arguments[2]:null,e=arguments.length>3&&void 0!==arguments[3]?arguments[3]:null,i=arguments.length>4&&void 0!==arguments[4]?arguments[4]:null;return this.isIdentity||this.resetSelf(),t&&(t.x||t.y)&&this.translateSelf(t.x,t.y),n&&this.rotateSelf(n),r&&(r.x&&this.skewSelf(r.x,0),r.y&&this.skewSelf(0,r.y)),!e||1===e.x&&1===e.y||this.scaleSelf(e.x,e.y),i&&(i.x||i.y)&&this.translateSelf(i.x,i.y),this}},{key:"decompose",value:function(){var t=arguments.length>0&&void 0!==arguments[0]?arguments[0]:0,n=arguments.length>1&&void 0!==arguments[1]?arguments[1]:0,r=this.m,e=r[0]*r[0]+r[1]*r[1],i=[[r[0],r[1]],[r[2],r[3]]],o=nt(e);if(0===o)return{origin:{x:r[4],y:r[5]},translate:{x:t,y:n},scale:{x:0,y:0},skew:{x:0,y:0},rotate:0};i[0][0]/=o,i[0][1]/=o;var u=r[0]*r[3]-r[1]*r[2]<0;u&&(o=-o);var a=i[0][0]*i[1][0]+i[0][1]*i[1][1];i[1][0]-=i[0][0]*a,i[1][1]-=i[0][1]*a;var l=nt(i[1][0]*i[1][0]+i[1][1]*i[1][1]);if(0===l)return{origin:{x:r[4],y:r[5]},translate:{x:t,y:n},scale:{x:o,y:0},skew:{x:0,y:0},rotate:0};i[1][0]/=l,i[1][1]/=l,a/=l;var f=0;return i[1][1]<0?(f=Z(i[1][1])*tt,i[0][1]<0&&(f=360-f)):f=J(i[0][1])*tt,u&&(f=-f),a=W(a,nt(i[0][0]*i[0][0]+i[0][1]*i[0][1]))*tt,u&&(a=-a),{origin:{x:r[4],y:r[5]},translate:{x:t,y:n},scale:{x:o,y:l},skew:{x:a,y:0},rotate:f}}},{key:"toString",value:function(){return null===this.s&&(this.s="matrix("+this.m.map(it).join(" ")+")"),this.s}}]),t}(),et=/\.0+$/;function it(t){return Number.isInteger(t)?t:t.toFixed(14).replace(et,"")}Object.freeze({M:2,L:2,Z:0,H:1,V:1,C:6,Q:4,T:2,S:4,A:7});var ot={},ut=null;function at(n){var r=function(){if(ut)return ut;if("object"!==("undefined"==typeof document?"undefined":t(document)))return{};var n=document.createElementNS("http://www.w3.org/2000/svg","svg");return n.style.position="absolute",n.style.opacity="0.01",n.style.zIndex="-9999",n.style.left="-9999px",n.style.width="1px",n.style.height="1px",ut={svg:n}}().svg;if(!r)return function(t){return null};var e=document.createElementNS(r.namespaceURI,"path");e.setAttributeNS(null,"d",n),e.setAttributeNS(null,"fill","none"),e.setAttributeNS(null,"stroke","none"),r.appendChild(e);var i=e.getTotalLength();return function(t){var n=e.getPointAtLength(i*t);return{x:n.x,y:n.y}}}function lt(t){return ot[t]?ot[t]:ot[t]=at(t)}function ft(t,n,r,e){if(!t||!e)return!1;var i=["M",t.x,t.y];if(n&&r&&(i.push("C"),i.push(n.x),i.push(n.y),i.push(r.x),i.push(r.y)),n?!r:r){var o=n||r;i.push("Q"),i.push(o.x),i.push(o.y)}return n||r||i.push("L"),i.push(e.x),i.push(e.y),i.join(" ")}function st(t,n,r,e){var i=arguments.length>4&&void 0!==arguments[4]?arguments[4]:1,o=ft(t,n,r,e),u=lt(o);try{return u(i)}catch(t){return null}}function ct(t,n,r,e){var i=1-e;return i*i*t+2*i*e*n+e*e*r}function ht(t,n,r,e){return 2*(1-e)*(n-t)+2*e*(r-n)}function vt(t,n,r,e){var i=arguments.length>4&&void 0!==arguments[4]&&arguments[4],o=st(t,n,null,r,e);return o||(o={x:ct(t.x,n.x,r.x,e),y:ct(t.y,n.y,r.y,e)}),i&&(o.a=yt(t,n,r,e)),o}function yt(t,n,r,e){return Math.atan2(ht(t.y,n.y,r.y,e),ht(t.x,n.x,r.x,e))}function dt(t,n,r,e,i){var o=i*i;return i*o*(e-t+3*(n-r))+3*o*(t+r-2*n)+3*i*(n-t)+t}function gt(t,n,r,e,i){var o=1-i;return 3*(o*o*(n-t)+2*o*i*(r-n)+i*i*(e-r))}function pt(t,n,r,e,i){var o=arguments.length>5&&void 0!==arguments[5]&&arguments[5],u=st(t,n,r,e,i);return u||(u={x:dt(t.x,n.x,r.x,e.x,i),y:dt(t.y,n.y,r.y,e.y,i)}),o&&(u.a=mt(t,n,r,e,i)),u}function mt(t,n,r,e,i){return Math.atan2(gt(t.y,n.y,r.y,e.y,i),gt(t.x,n.x,r.x,e.x,i))}function bt(t,n,r){return t+(n-t)*r}function wt(t,n,r){var e=arguments.length>3&&void 0!==arguments[3]&&arguments[3],i={x:bt(t.x,n.x,r),y:bt(t.y,n.y,r)};return e&&(i.a=xt(t,n)),i}function xt(t,n){return Math.atan2(n.y-t.y,n.x-t.x)}function kt(t,n,r){var e=arguments.length>3&&void 0!==arguments[3]&&arguments[3];if(_t(n)){if(St(r))return vt(n,r.start,r,t,e)}else if(_t(r)){if(n.end)return vt(n,n.end,r,t,e)}else{if(n.end)return r.start?pt(n,n.end,r.start,r,t,e):vt(n,n.end,r,t,e);if(r.start)return vt(n,r.start,r,t,e)}return wt(n,r,t,e)}function At(t,n,r){var e=kt(t,n,r,!0);return e.a=function(t){var n=arguments.length>1&&void 0!==arguments[1]&&arguments[1];return n?t+Math.PI:t}(e.a)/p,e}function _t(t){return!t.type||"corner"===t.type}function St(t){return null!=t.start&&!_t(t)}var Ot=new rt;var Mt={f:Q,i:b},jt={f:Q,i:function(t,n,r){var e=b(t,n,r);return e<=0?0:e>=1?1:e}};function Ft(t,n,r,e,i,o,u,a){return n=function(t,n,r){for(var e,i,o,u=t.length-1,a={},l=0;l<=u;l++)(e=t[l]).e&&(e.e=n(e.e)),e.v&&"g"===(i=e.v).t&&i.r&&(o=r.getElementById(i.r))&&(a[i.r]=o.querySelectorAll("stop"));return a}(t,e,a),function(e){var i,o=r(e,t,Pt);return o?"c"===o.t?V(o.v):"g"===o.t?(n[o.r]&&function(t,n){for(var r=0,e=t.length;r<e;r++)t[r].setAttribute("stop-color",V(n[r]))}(n[o.r],o.v),(i=o.r)?"url(#"+i+")":"none"):"none":"none"}}function Pt(t,n,r){if(0===t)return n;if(1===t)return r;if(n&&r){var e=n.t;if(e===r.t)switch(n.t){case"c":return{t:e,v:A(t,n.v,r.v)};case"g":if(n.r===r.r)return{t:e,v:_(t,n.v,r.v),r:n.r}}}return m(t,n,r)}var Bt={fill:Ft,"fill-opacity":jt,stroke:Ft,"stroke-opacity":jt,"stroke-width":Mt,"stroke-dashoffset":{f:Q,i:b},"stroke-dasharray":{f:function(t){var n=arguments.length>1&&void 0!==arguments[1]?arguments[1]:" ";return t&&t.length>0&&(t=t.map((function(t){return Math.floor(1e4*t)/1e4}))),U(t,n)},i:function(t,n,r){var e,i,o,u=n.length,a=r.length;if(u!==a)if(0===u)n=S(u=a,0);else if(0===a)a=u,r=S(u,0);else{var l=(o=(e=u)*(i=a)/function(t,n){for(var r;n;)r=n,n=t%n,t=r;return t||1}(e,i))<0?-o:o;n=O(n,Math.floor(l/u)),r=O(r,Math.floor(l/a)),u=a=l}for(var f=[],s=0;s<u;s++)f.push(g(w(t,n[s],r[s]),6));return f}},opacity:jt,transform:function(n,r,e,i){if(!(n=function(n,r){if(!n||"object"!==t(n))return null;var e=!1;for(var i in n)n.hasOwnProperty(i)&&(n[i]&&n[i].length?(n[i].forEach((function(t){t.e&&(t.e=r(t.e))})),e=!0):delete n[i]);return e?n:null}(n,i)))return null;var o=function(t,i,o){var u=arguments.length>3&&void 0!==arguments[3]?arguments[3]:null;return n[t]?e(i,n[t],o):r&&r[t]?r[t]:u};return r&&r.a&&n.o?function(t){var r=e(t,n.o,At);return Ot.recomposeSelf(r,o("r",t,b,0)+r.a,o("k",t,x),o("s",t,x),o("t",t,x)).toString()}:function(t){return Ot.recomposeSelf(o("o",t,kt,null),o("r",t,b,0),o("k",t,x),o("s",t,x),o("t",t,x)).toString()}},r:Mt,"#size":G,"#radius":$,_:function(t,n){if(Array.isArray(t))for(var r=0;r<t.length;r++)this[t[r]]=n;else this[t]=n}};return function(t){!function(t,n){if("function"!=typeof n&&null!==n)throw new TypeError("Super expression must either be null or a function");t.prototype=Object.create(n&&n.prototype,{constructor:{value:t,writable:!0,configurable:!0}}),n&&o(t,n)}(u,t);var r=a(u);function u(){return n(this,u),r.apply(this,arguments)}return e(u,null,[{key:"build",value:function(t){var n=l(i(u),"build",this).call(this,t,Bt);n.el,n.options;var r=n.player;return function(t,n,r){t.play()}(r),r}}]),u}(L)}));
__SVGATOR_PLAYER__.build({"root":"ex3yCLd7FNk1","animations":[{"duration":3000,"direction":1,"iterations":0,"fill":1,"alternate":false,"speed":1,"elements":{"ex3yCLd7FNk4":{"transform":{"data":{"t":{"x":-275,"y":-26.795700075}},"keys":{"o":[{"t":0,"v":{"x":275,"y":26.795700075,"type":"corner"},"e":[0.42,0,0.58,1]},{"t":1500,"v":{"x":275,"y":30.795700075,"type":"corner"},"e":[0.42,0,0.58,1]},{"t":3000,"v":{"x":275,"y":26.795700075,"type":"corner"}}]}}},"ex3yCLd7FNk17":{"transform":{"data":{"t":{"x":-230.01432037353516,"y":-56.98447608947754}},"keys":{"o":[{"t":0,"v":{"x":232.18959631353516,"y":55.98447608947754,"type":"corner"},"e":[0.42,0,0.58,1]},{"t":1500,"v":{"x":232.18959631353516,"y":59.98447608947754,"type":"corner"},"e":[0.42,0,0.58,1]},{"t":3000,"v":{"x":232.18959631353516,"y":55.98447608947754,"type":"corner"}}]}}},"ex3yCLd7FNk18":{"transform":{"data":{"t":{"x":-174.111499785,"y":-42.292203310000005}},"keys":{"o":[{"t":0,"v":{"x":174.111499785,"y":41.292203310000005,"type":"corner"},"e":[0.42,0,0.58,1]},{"t":1500,"v":{"x":174.111499785,"y":37.292203310000005,"type":"corner"},"e":[0.42,0,0.58,1]},{"t":3000,"v":{"x":174.111499785,"y":41.292203310000005,"type":"corner"}}]}}},"ex3yCLd7FNk25":{"transform":{"data":{"t":{"x":-165.22003936767578,"y":-72.1919174194336}},"keys":{"o":[{"t":0,"v":{"x":165.22003936767578,"y":71.1919174194336,"type":"corner"},"e":[0.42,0,0.58,1]},{"t":1500,"v":{"x":165.22003936767578,"y":67.1919174194336,"type":"corner"},"e":[0.42,0,0.58,1]},{"t":3000,"v":{"x":165.22003936767578,"y":71.1919174194336,"type":"corner"}}]}}}}}],"options":{"start":"load","hover":"freeze","click":"freeze","scroll":25,"font":"embed","exportedIds":"unique","svgFormat":"animated","title":"Education-circle"},"animationSettings":{"duration":3000,"direction":1,"iterations":0,"fill":1,"alternate":false,"speed":1}})]]></script></svg>