<svg width="303" height="37" viewBox="0 0 303 37" fill="none" xmlns="http://www.w3.org/2000/svg">
<path d="M7.08 36.96C5.8267 36.96 4.5867 36.72 3.36 36.24C2.16 35.76 1.04 35.093 0 34.24L1.92 31.36C2.6667 31.973 3.48 32.48 4.36 32.88C5.24 33.307 6.1867 33.52 7.2 33.52C8.6933 33.52 9.8933 33.08 10.8 32.2C11.7333 31.347 12.4 30.133 12.8 28.56L13.8 24.76C12.8667 25.72 11.8533 26.48 10.76 27.04C9.6933 27.573 8.5733 27.84 7.4 27.84C5.7467 27.84 4.3733 27.267 3.28 26.12C2.2133 24.947 1.68 23.213 1.68 20.92C1.68 19.133 1.96 17.467 2.52 15.92C3.1067 14.373 3.88 13.027 4.84 11.88C5.8 10.707 6.8933 9.78701 8.12 9.12001C9.3733 8.45301 10.6667 8.12001 12 8.12001C12.96 8.12001 13.8267 8.373 14.6 8.88C15.4 9.36 16.0133 10.027 16.44 10.88H16.56L17.4 8.60001H20.88L16.88 28.52C16.32 31.293 15.2 33.387 13.52 34.8C11.84 36.24 9.6933 36.96 7.08 36.96ZM8.96 24.28C9.7333 24.28 10.5733 24.053 11.48 23.6C12.4133 23.12 13.2667 22.36 14.04 21.32L15.52 14.04C15.0667 13.187 14.56 12.573 14 12.2C13.44 11.827 12.8533 11.64 12.24 11.64C11.44 11.64 10.6667 11.88 9.92 12.36C9.2 12.813 8.5467 13.44 7.96 14.24C7.4 15.04 6.9467 15.973 6.6 17.04C6.28 18.08 6.12 19.187 6.12 20.36C6.12 21.693 6.3733 22.68 6.88 23.32C7.4133 23.96 8.1067 24.28 8.96 24.28ZM23.9234 20.4C23.9234 18.56 24.2301 16.893 24.8434 15.4C25.4834 13.88 26.3101 12.587 27.3234 11.52C28.3634 10.427 29.5234 9.587 30.8034 9C32.0834 8.413 33.3634 8.12001 34.6434 8.12001C35.7901 8.12001 36.7501 8.30701 37.5234 8.68001C38.3234 9.05301 38.9634 9.57301 39.4434 10.24C39.9501 10.88 40.3101 11.64 40.5234 12.52C40.7634 13.4 40.8834 14.347 40.8834 15.36C40.8834 16.213 40.7768 17.04 40.5634 17.84C40.3501 18.64 40.1768 19.2 40.0434 19.52H28.0834C27.9768 20.56 28.0301 21.453 28.2434 22.2C28.4568 22.947 28.7768 23.56 29.2034 24.04C29.6568 24.52 30.2034 24.88 30.8434 25.12C31.4834 25.333 32.1768 25.44 32.9234 25.44C33.6168 25.44 34.3234 25.28 35.0434 24.96C35.7634 24.64 36.3901 24.28 36.9234 23.88L38.5234 26.64C37.7234 27.2 36.7501 27.693 35.6034 28.12C34.4834 28.52 33.2168 28.72 31.8034 28.72C30.6301 28.72 29.5634 28.533 28.6034 28.16C27.6434 27.787 26.8168 27.253 26.1234 26.56C25.4301 25.84 24.8834 24.973 24.4834 23.96C24.1101 22.92 23.9234 21.733 23.9234 20.4ZM28.4434 16.8H37.1234C37.1768 16.533 37.2168 16.267 37.2434 16C37.2968 15.707 37.3234 15.4 37.3234 15.08C37.3234 14.12 37.0834 13.28 36.6034 12.56C36.1501 11.813 35.3234 11.44 34.1234 11.44C32.9234 11.44 31.7901 11.92 30.7234 12.88C29.6834 13.813 28.9234 15.12 28.4434 16.8ZM43.8147 28.24L47.7347 8.60001H51.2147L51.0147 11.36H51.1747C52.2147 10.48 53.2813 9.72 54.3747 9.08C55.4947 8.44 56.6813 8.12001 57.9347 8.12001C59.588 8.12001 60.7747 8.54701 61.4947 9.40001C62.2147 10.253 62.5747 11.48 62.5747 13.08C62.5747 13.533 62.548 13.973 62.4947 14.4C62.468 14.827 62.388 15.307 62.2547 15.84L59.7747 28.24H55.4947L57.8947 16.4C57.9747 15.947 58.0413 15.56 58.0947 15.24C58.1747 14.92 58.2147 14.613 58.2147 14.32C58.2147 12.64 57.388 11.8 55.7347 11.8C55.0413 11.8 54.2947 12.04 53.4947 12.52C52.7213 13 51.8147 13.773 50.7747 14.84L48.1347 28.24H43.8147ZM66.6169 20.4C66.6169 18.56 66.9239 16.893 67.5369 15.4C68.1769 13.88 69.0039 12.587 70.0169 11.52C71.0569 10.427 72.2169 9.587 73.4969 9C74.7769 8.413 76.0569 8.12001 77.3369 8.12001C78.4839 8.12001 79.4439 8.30701 80.2169 8.68001C81.0169 9.05301 81.6569 9.57301 82.1369 10.24C82.6439 10.88 83.0039 11.64 83.2169 12.52C83.4569 13.4 83.5769 14.347 83.5769 15.36C83.5769 16.213 83.4709 17.04 83.2569 17.84C83.0439 18.64 82.8709 19.2 82.7369 19.52H70.7769C70.6709 20.56 70.7239 21.453 70.9369 22.2C71.1509 22.947 71.4709 23.56 71.8969 24.04C72.3509 24.52 72.8969 24.88 73.5369 25.12C74.1769 25.333 74.8709 25.44 75.6169 25.44C76.3109 25.44 77.0169 25.28 77.7369 24.96C78.4569 24.64 79.0839 24.28 79.6169 23.88L81.2169 26.64C80.4169 27.2 79.4439 27.693 78.2969 28.12C77.1769 28.52 75.9109 28.72 74.4969 28.72C73.3239 28.72 72.2569 28.533 71.2969 28.16C70.3369 27.787 69.5109 27.253 68.8169 26.56C68.1239 25.84 67.5769 24.973 67.1769 23.96C66.8039 22.92 66.6169 21.733 66.6169 20.4ZM71.1369 16.8H79.8169C79.8709 16.533 79.9109 16.267 79.9369 16C79.9909 15.707 80.0169 15.4 80.0169 15.08C80.0169 14.12 79.7769 13.28 79.2969 12.56C78.8439 11.813 78.0169 11.44 76.8169 11.44C75.6169 11.44 74.4839 11.92 73.4169 12.88C72.3769 13.813 71.6169 15.12 71.1369 16.8ZM86.5089 28.24L90.4289 8.60001H93.9089L93.5489 12.4H93.7089C94.4819 11.173 95.3889 10.16 96.4289 9.36C97.4689 8.533 98.5889 8.12001 99.7889 8.12001C100.562 8.12001 101.215 8.24001 101.749 8.48001L100.309 12.24C100.069 12.107 99.7889 12.027 99.4689 12C99.1489 11.947 98.8149 11.92 98.4689 11.92C97.5349 11.92 96.6149 12.28 95.7089 13C94.8019 13.72 93.9489 14.84 93.1489 16.36L90.8289 28.24H86.5089ZM107.569 28.72C105.836 28.72 104.462 28.107 103.449 26.88C102.462 25.653 101.969 23.88 101.969 21.56C101.969 19.693 102.262 17.947 102.849 16.32C103.436 14.667 104.222 13.24 105.209 12.04C106.196 10.813 107.316 9.853 108.569 9.16C109.849 8.467 111.169 8.12001 112.529 8.12001C113.489 8.12001 114.369 8.373 115.169 8.88C115.969 9.36 116.596 10.027 117.049 10.88H117.129L117.969 8.60001H121.409L117.489 28.24H113.969L114.169 25.52H114.049C113.116 26.48 112.076 27.253 110.929 27.84C109.809 28.427 108.689 28.72 107.569 28.72ZM109.329 25.2C110.182 25.2 111.049 24.947 111.929 24.44C112.836 23.933 113.689 23.08 114.489 21.88L116.089 14.04C115.636 13.187 115.116 12.573 114.529 12.2C113.969 11.827 113.382 11.64 112.769 11.64C111.942 11.64 111.142 11.893 110.369 12.4C109.596 12.88 108.916 13.547 108.329 14.4C107.742 15.253 107.276 16.253 106.929 17.4C106.582 18.52 106.409 19.707 106.409 20.96C106.409 22.4 106.662 23.467 107.169 24.16C107.702 24.853 108.422 25.2 109.329 25.2ZM130.887 28.72C129.047 28.72 127.727 28.267 126.927 27.36C126.154 26.427 125.767 25.28 125.767 23.92C125.767 23.52 125.794 23.133 125.847 22.76C125.9 22.387 125.954 22 126.007 21.6L128.007 12H125.247L125.887 8.8L128.887 8.60001L130.447 3.32001H134.047L133.007 8.60001H137.727L137.047 12H132.247L130.247 21.76C130.167 22.24 130.127 22.707 130.127 23.16C130.127 23.88 130.3 24.427 130.647 24.8C130.994 25.147 131.58 25.32 132.407 25.32C132.754 25.32 133.074 25.267 133.367 25.16C133.66 25.053 133.954 24.933 134.247 24.8L135.047 27.84C134.567 28.053 133.98 28.253 133.287 28.44C132.594 28.627 131.794 28.72 130.887 28.72ZM138.635 28.24L142.595 8.60001H146.875L142.955 28.24H138.635ZM145.755 5.12001C145.142 5.12001 144.582 4.93301 144.075 4.56001C143.568 4.16001 143.315 3.6 143.315 2.88C143.315 2.107 143.595 1.453 144.155 0.919998C144.715 0.359998 145.395 0.0800018 146.195 0.0800018C146.808 0.0800018 147.368 0.280008 147.875 0.680008C148.382 1.05301 148.635 1.60001 148.635 2.32001C148.635 3.12001 148.355 3.78701 147.795 4.32001C147.235 4.85301 146.555 5.12001 145.755 5.12001ZM149.474 28.24L153.394 8.60001H156.874L156.674 11.36H156.834C157.874 10.48 158.941 9.72 160.034 9.08C161.154 8.44 162.341 8.12001 163.594 8.12001C165.247 8.12001 166.434 8.54701 167.154 9.40001C167.874 10.253 168.234 11.48 168.234 13.08C168.234 13.533 168.207 13.973 168.154 14.4C168.127 14.827 168.047 15.307 167.914 15.84L165.434 28.24H161.154L163.554 16.4C163.634 15.947 163.701 15.56 163.754 15.24C163.834 14.92 163.874 14.613 163.874 14.32C163.874 12.64 163.047 11.8 161.394 11.8C160.701 11.8 159.954 12.04 159.154 12.52C158.381 13 157.474 13.773 156.434 14.84L153.794 28.24H149.474ZM177.757 36.96C176.503 36.96 175.263 36.72 174.037 36.24C172.837 35.76 171.717 35.093 170.677 34.24L172.597 31.36C173.343 31.973 174.157 32.48 175.037 32.88C175.917 33.307 176.863 33.52 177.877 33.52C179.37 33.52 180.57 33.08 181.477 32.2C182.41 31.347 183.077 30.133 183.477 28.56L184.477 24.76C183.543 25.72 182.53 26.48 181.437 27.04C180.37 27.573 179.25 27.84 178.077 27.84C176.423 27.84 175.05 27.267 173.957 26.12C172.89 24.947 172.357 23.213 172.357 20.92C172.357 19.133 172.637 17.467 173.197 15.92C173.783 14.373 174.557 13.027 175.517 11.88C176.477 10.707 177.57 9.78701 178.797 9.12001C180.05 8.45301 181.343 8.12001 182.677 8.12001C183.637 8.12001 184.503 8.373 185.277 8.88C186.077 9.36 186.69 10.027 187.117 10.88H187.237L188.077 8.60001H191.557L187.557 28.52C186.997 31.293 185.877 33.387 184.197 34.8C182.517 36.24 180.37 36.96 177.757 36.96ZM179.637 24.28C180.41 24.28 181.25 24.053 182.157 23.6C183.09 23.12 183.943 22.36 184.717 21.32L186.197 14.04C185.743 13.187 185.237 12.573 184.677 12.2C184.117 11.827 183.53 11.64 182.917 11.64C182.117 11.64 181.343 11.88 180.597 12.36C179.877 12.813 179.223 13.44 178.637 14.24C178.077 15.04 177.623 15.973 177.277 17.04C176.957 18.08 176.797 19.187 176.797 20.36C176.797 21.693 177.05 22.68 177.557 23.32C178.09 23.96 178.783 24.28 179.637 24.28ZM205.893 28.24L204.733 8.60001H208.973L209.293 19.12C209.319 20.053 209.319 20.987 209.293 21.92C209.266 22.853 209.253 23.8 209.253 24.76H209.413C209.786 23.8 210.146 22.853 210.493 21.92C210.866 20.987 211.266 20.053 211.693 19.12L216.253 8.60001H220.173L220.693 19.12C220.719 20.053 220.733 20.987 220.733 21.92C220.733 22.853 220.746 23.8 220.773 24.76H220.933C221.306 23.8 221.653 22.853 221.973 21.92C222.319 20.987 222.693 20.053 223.093 19.12L227.453 8.60001H231.453L222.813 28.24H217.693L217.333 18.8C217.333 17.867 217.319 16.92 217.293 15.96C217.293 15 217.293 14.013 217.293 13H217.133C216.759 14.013 216.386 15 216.013 15.96C215.666 16.92 215.306 17.867 214.933 18.8L210.893 28.24H205.893ZM240.24 28.72C239.146 28.72 238.146 28.533 237.24 28.16C236.333 27.787 235.56 27.253 234.92 26.56C234.28 25.867 233.786 25.027 233.44 24.04C233.093 23.053 232.92 21.947 232.92 20.72C232.92 18.853 233.226 17.147 233.84 15.6C234.48 14.027 235.306 12.693 236.32 11.6C237.333 10.507 238.48 9.65301 239.76 9.04001C241.066 8.42701 242.386 8.12001 243.72 8.12001C245.96 8.12001 247.746 8.84 249.08 10.28C250.413 11.693 251.08 13.64 251.08 16.12C251.08 17.987 250.76 19.693 250.12 21.24C249.506 22.787 248.693 24.12 247.68 25.24C246.666 26.333 245.506 27.187 244.2 27.8C242.92 28.413 241.6 28.72 240.24 28.72ZM240.72 25.24C241.493 25.24 242.24 25.013 242.96 24.56C243.68 24.08 244.32 23.44 244.88 22.64C245.44 21.813 245.88 20.853 246.2 19.76C246.546 18.667 246.72 17.493 246.72 16.24C246.72 14.747 246.426 13.6 245.84 12.8C245.253 12 244.4 11.6 243.28 11.6C242.506 11.6 241.746 11.84 241 12.32C240.28 12.773 239.64 13.4 239.08 14.2C238.52 15 238.066 15.947 237.72 17.04C237.4 18.133 237.24 19.307 237.24 20.56C237.24 22.053 237.533 23.213 238.12 24.04C238.706 24.84 239.573 25.24 240.72 25.24ZM254.216 28.24L258.136 8.60001H261.616L261.256 12.4H261.416C262.19 11.173 263.096 10.16 264.136 9.36C265.176 8.533 266.296 8.12001 267.496 8.12001C268.27 8.12001 268.923 8.24001 269.456 8.48001L268.016 12.24C267.776 12.107 267.496 12.027 267.176 12C266.856 11.947 266.523 11.92 266.176 11.92C265.243 11.92 264.323 12.28 263.416 13C262.51 13.72 261.656 14.84 260.856 16.36L258.536 28.24H254.216ZM273.588 28.72C272.441 28.72 271.601 28.44 271.068 27.88C270.534 27.32 270.268 26.533 270.268 25.52C270.268 24.907 270.361 24.213 270.548 23.44L275.228 0H279.508L274.788 23.64C274.734 23.853 274.708 24.013 274.708 24.12C274.708 24.227 274.708 24.32 274.708 24.4C274.708 24.96 274.934 25.24 275.388 25.24C275.521 25.24 275.628 25.24 275.708 25.24C275.788 25.213 275.921 25.173 276.108 25.12L276.028 28.32C275.734 28.453 275.388 28.547 274.988 28.6C274.588 28.68 274.121 28.72 273.588 28.72ZM296.336 10.72L296.896 6.96001L298.256 0H302.536L296.856 28.24H293.336L293.536 25.52H293.416C292.483 26.48 291.443 27.253 290.296 27.84C289.176 28.427 288.056 28.72 286.936 28.72C285.203 28.72 283.83 28.107 282.816 26.88C281.83 25.653 281.336 23.88 281.336 21.56C281.336 19.693 281.63 17.947 282.216 16.32C282.803 14.667 283.59 13.24 284.576 12.04C285.563 10.813 286.683 9.853 287.936 9.16C289.216 8.467 290.536 8.12001 291.896 8.12001C292.856 8.12001 293.71 8.36001 294.456 8.84001C295.203 9.32001 295.79 9.947 296.216 10.72H296.336ZM288.696 25.2C289.55 25.2 290.416 24.947 291.296 24.44C292.176 23.933 293.03 23.08 293.856 21.88L295.456 14.04C295.003 13.187 294.483 12.573 293.896 12.2C293.336 11.827 292.75 11.64 292.136 11.64C291.31 11.64 290.51 11.893 289.736 12.4C288.963 12.88 288.283 13.547 287.696 14.4C287.11 15.253 286.643 16.253 286.296 17.4C285.95 18.52 285.776 19.707 285.776 20.96C285.776 22.4 286.03 23.467 286.536 24.16C287.07 24.853 287.79 25.2 288.696 25.2Z" fill="#729DCE"/>
</svg>
