<svg id="eZWQ1PD5YRk1" xmlns="http://www.w3.org/2000/svg" xmlns:xlink="http://www.w3.org/1999/xlink" viewBox="0 0 375 117" shape-rendering="geometricPrecision" text-rendering="geometricPrecision"><defs><linearGradient id="eZWQ1PD5YRk15-fill" x1="121" y1="43.121100" x2="121.077000" y2="70.335800" spreadMethod="pad" gradientUnits="userSpaceOnUse"><stop id="eZWQ1PD5YRk15-fill-0" offset="0%" stop-color="rgb(238,179,162)"/><stop id="eZWQ1PD5YRk15-fill-1" offset="100%" stop-color="rgb(198,149,133)"/></linearGradient><linearGradient id="eZWQ1PD5YRk16-fill" x1="152.461000" y1="46.621100" x2="152.461000" y2="84.737400" spreadMethod="pad" gradientUnits="userSpaceOnUse"><stop id="eZWQ1PD5YRk16-fill-0" offset="0%" stop-color="rgb(238,179,162)"/><stop id="eZWQ1PD5YRk16-fill-1" offset="100%" stop-color="rgb(225,164,145)"/></linearGradient></defs><path id="eZWQ1PD5YRk2" d="M187.500000,117C291.053000,117,375,99.091400,375,77C375,54.979800,291.093000,37.114900,188,37C265.500000,37.999400,337.591000,52.398000,337.591000,70C337.591000,87.673100,270.393000,102,187.500000,102C104.607000,102,37.408700,87.673100,37.408700,70C37.408700,52.326900,109,38.500000,187.500000,37C83.946600,37,0,54.908600,0,77C0,99.091400,83.946600,117,187.500000,117Z" fill="rgb(223,223,223)" fill-opacity="0.15" stroke="none" stroke-width="1" stroke-miterlimit="1"/><g id="eZWQ1PD5YRk3" transform="matrix(1 0 0 1 0.44891706999999 -0.01350700000000)"><path id="eZWQ1PD5YRk4" d="M239.026000,6.500000C238.375000,12.012100,250.026000,15.500000,250.026000,15.500000C250.026000,15.500000,260.706000,11.709800,260.026000,6.500000C259.612000,3.324390,257.826000,0,255.026000,0C252.226000,0,250.526000,3.333330,250.026000,5C249.193000,3.333330,246.726000,0,243.526000,0C240.326000,0,239.388000,3.433940,239.026000,6.500000Z" fill="rgb(222,77,59)" stroke="none" stroke-width="1" stroke-miterlimit="1"/><path id="eZWQ1PD5YRk5" d="M239,7.500000C239.500000,11.500000,246.500000,14.333300,250,15.500000C247.500000,13.500000,245,12,242.500000,9C240,6,240.333000,2.666670,241,1C240.500000,1.666670,239,3.900000,239,7.500000Z" fill="rgb(208,77,61)" stroke="none" stroke-width="1" stroke-miterlimit="1"/></g><g id="eZWQ1PD5YRk6"><path id="eZWQ1PD5YRk7" d="M254.407000,69.254000C258.566000,68.789000,262.885000,68.893500,269.930000,66C276.976000,63.106500,287.420000,56.943200,289.500000,55.500000C292.100000,53.696000,305.757000,39.749800,303.175000,35.162900C300.160000,34.518000,298.384000,36.198500,296.504000,37.867300C294.624000,39.536100,290.172000,42.713600,289.399000,43.736100C288.511000,43.683300,281.463000,48.427800,279.636000,49.209500C279.820000,48.508300,283.361000,45.454400,285.109000,44.015100C285.840000,43.702400,287.485000,42.981200,288.220000,42.597600C289.139000,42.118000,301.275000,29.663700,301.828000,29.340500C303.029000,28.106100,303.148000,25.696900,301.754000,25.186700C299.834000,24.538400,294.680000,26.778800,292.340000,30.200800C288.040000,30.657300,277.241000,41.588800,276.446000,42.966000C275.538000,43.268100,269.440000,46.993900,267.404000,48.297300C268.406000,48.214400,269.333000,48.768700,269.930000,49.694500C268.779000,49.091900,265.937000,47.576100,261.804000,47.615200C256.637000,47.664200,252.795000,49.394300,244.633000,48.909000C231.859000,48.149500,229.259000,40.369500,207.318000,44.043100C190.053000,46.933800,188.370000,53.932300,186.480000,55.778500C184.589000,57.624700,182.920000,53.786400,173.732000,58.581700C172.359000,64.910000,177.333000,74.880000,179.992000,79.074000C185.434000,73.403000,193.705000,72.418374,198.111000,70.187574C202.517000,67.956774,213.335000,67.666800,218.170000,67.811700C223.004000,67.956700,254.506000,61.603500,269.830000,58.419400C266.507000,59.408800,259.764000,61.204000,257.877000,61.804000C255.990000,62.404000,235.955000,68.156900,235.955000,68.156900C235.955000,68.156900,250.249000,69.719000,254.407000,69.254000Z" fill="rgb(193,132,90)" stroke="none" stroke-width="1" stroke-miterlimit="1"/><path id="eZWQ1PD5YRk8" d="M151.185000,65.016600C151.185000,65.016600,167.605000,58.568400,174.153000,57.956000L180.482000,77.866700L158.443000,79.389200L151.185000,65.016600Z" fill="rgb(69,127,146)" stroke="none" stroke-width="1" stroke-miterlimit="1"/><path id="eZWQ1PD5YRk9" d="M179.985000,79.193100C180.269000,78.866900,180.584000,78.555500,180.928000,78.258100C186.344000,73.134700,193.953000,69.912500,198.111000,67.807000C202.517000,65.576200,212.379000,67.409000,218.422000,67.590200C223.257000,67.735200,255.113000,61.403100,270.437000,58.218900C267.972000,59.744600,259.287898,61.860996,257.400898,62.460996C255.512898,63.060996,242.958000,66.200100,236.562000,67.956500C240.862000,68.508900,250.501000,69.497400,254.660000,69.032500C258.818000,68.567500,269.944000,65.980200,273,64.500000C269.219000,68.192400,258.633000,72.347200,256.337000,72.638000C252.193000,73.459900,230.486000,71.334300,216.040000,71.721900C205.050000,72.016700,187.597000,72.485600,180.928000,78.258100C180.605000,78.563000,180.291000,78.874600,179.985000,79.193100Z" fill="rgb(176,122,84)" stroke="none" stroke-width="1" stroke-miterlimit="1"/><path id="eZWQ1PD5YRk10" d="M173.504000,62.460996L173.504000,58.534196C176.140000,57.508496,180.120000,55.632996,184.476000,53.087696C189.854000,46.223096,203.837000,41.972696,212.779000,41.812896C226.277000,41.571596,237.313000,45.591996,241.967000,48.183396C242.548000,48.395996,244.206000,48.850696,246.193000,48.968796C248.677000,49.116496,255.056000,46.646896,260.379000,46.963296C267.058000,47.217996,270.895000,47.775596,272.502000,53.747796C269.386000,47.302496,265.905000,48.364796,261.396000,47.945296C256.888000,47.525796,253.416000,49.088096,248.834000,49.481896C246.354000,49.694996,237.750000,49.158196,236.080000,48.367496C222.154000,41.774196,214.704000,44.156396,203.352000,45.981896C192,47.807396,189.500000,54.034096,186.500000,57.034096C183.500000,60.034096,178.568000,61.147496,173.504000,62.460996Z" fill="rgb(217,161,123)" stroke="none" stroke-width="1" stroke-miterlimit="1"/><path id="eZWQ1PD5YRk11" d="M288.115000,42.404600C285.384000,42.812000,280.872000,47.434300,278.957000,49.694500C280.377000,48.769900,283.501000,47.528900,284.838000,46.611300C286.174000,45.693600,289.329000,43.911600,289.329000,43.911600C289.329000,43.911600,291.385000,41.302800,294.435000,37.923100C298.247000,33.698400,300.136000,33.924000,302.077000,29.681600C302.848000,27.997100,302.757000,25.551200,301.497000,25.191300C301.523000,26.691100,300.113000,31.717100,295.885000,34.498000C293.468000,36.088000,289.870000,39.838100,288.115000,42.404600Z" fill="rgb(176,122,84)" stroke="none" stroke-width="1" stroke-miterlimit="1"/><path id="eZWQ1PD5YRk12" d="M175.798000,55.549200C175.650000,54.905700,172.086000,57.143600,172.056000,57.642500C172.027000,58.141400,172.634000,63.938700,173.559000,67.938300C174.792000,73.268300,179.864000,79.833300,180.863000,79.892600C181.362000,79.922300,184.035000,77.075900,185.063000,76.636200C185.890000,76.282300,180.593000,69.257900,179.139000,66.767200C177.684000,64.276400,175.947000,56.192600,175.798000,55.549200Z" fill="rgb(77,140,160)" stroke="none" stroke-width="1" stroke-miterlimit="1"/><path id="eZWQ1PD5YRk13" d="M253.948000,50.861500C255.190000,53.239700,254.561000,57.184900,254.091000,58.860200C261.107000,59.735000,269.561000,57.082700,267.972000,52.110500C267.211000,49.729100,259.920000,49.254600,253.948000,50.861500Z" fill="rgb(217,161,123)" stroke="none" stroke-width="1" stroke-miterlimit="1"/><path id="eZWQ1PD5YRk14" d="M290,54C291.613000,53.226000,299.172000,43.772600,302.747000,39.163200C304.238000,39.687400,293.548000,52.048900,290.500000,55C288.061000,57.360900,280.688000,61.218100,277.500000,62.500000C281.037000,60.223600,288.387000,54.774000,290,54Z" fill="rgb(176,122,84)" stroke="none" stroke-width="1" stroke-miterlimit="1"/></g><path id="eZWQ1PD5YRk15" d="M101.985000,70.289500C94.379200,70.824900,87.389600,66.586600,84.845500,64.400500C83.283300,64.088400,77.079300,54.095400,77.079300,54.095400C72.405900,41.140100,84.036300,36.381200,90.435700,35.621100C109.753000,37.238800,113.355000,49.146800,112.741000,54.898600C117.281000,51.969300,125.544000,45.621100,133,45.621100C142.487000,45.682900,149.471000,51.588400,150.437000,54.288700C152.289000,52.981000,155.069000,50.655100,158.421000,50.744600C161.773000,50.834200,165.148000,55.899800,165.148000,55.899800C166.596000,59.447200,167.585000,66.916700,159.963000,68.415700C155.812000,69.620300,145.770000,68.415700,140.146000,64.400500C138.004000,67.077300,132.112000,68.415700,127.560000,68.415700C123.917000,68.415700,119.659000,65.738900,119.124000,64.400500C116.580000,66.140500,109.590000,69.754200,101.985000,70.289500Z" transform="matrix(1 0 0 1 0 3)" fill="url(#eZWQ1PD5YRk15-fill)" stroke="none" stroke-width="1" stroke-miterlimit="1"/><path id="eZWQ1PD5YRk16" d="M162.421000,81.289500C155.994000,80.672500,155.296000,76.917400,153.421000,75.400500C150.832000,76.337400,148.284000,78.452100,144.963000,79.415700C140.812000,80.620300,130.770000,79.415700,125.146000,75.400500C123.004000,78.077300,117.112000,79.415700,112.560000,79.415700C108.917000,79.415700,104.659000,76.738900,104.124000,75.400500C101.580000,77.140500,94.590200,80.754200,86.984700,81.289500C79.379200,81.824900,72.389600,77.586600,69.845500,75.400500C68.283300,75.088400,62.079300,65.095400,62.079300,65.095400C57.405900,52.140100,69.036300,47.381200,75.435700,46.621100C94.752900,48.238800,98.355000,60.146800,97.741300,65.898600C99.391400,65.423800,102.978000,64.960700,104.124000,66.907400C103.476000,64.255500,108.822000,57.033300,120.680000,57.110500C130.167000,57.172300,134.471000,62.588400,135.437000,65.288700C137.289000,63.981000,140.069000,61.655100,143.421000,61.744600C146.773000,61.834200,150.148000,66.899800,150.148000,66.899800C152.147000,65.828600,156.972000,63.811000,160.288000,64.310300C163.604000,64.809500,166.776000,68.676700,167.947000,70.547900C169.195000,69.767300,172.444000,68.355700,175.454000,68.954200C178.465000,69.552600,181.081000,73.412800,182.012000,75.268100C184.203000,73.055600,190.351000,68.957200,197.421000,70.263600C204.491000,71.570100,207.291000,74.673000,208.081000,78.403700C209.075000,77.564700,211.563000,76.034500,213.557000,76.625200C215.551000,77.216000,217.902000,78.732200,218.829000,79.416400C219.018000,78.698300,219.964000,77.105600,222.239000,76.479500C224.513000,75.853400,227.491000,78.142700,228.421000,78.403700C228.962000,77.758800,230.611000,74.689200,235.078000,75.264800C238.113000,75.800200,244.130000,77.488400,243.915000,79.415700C243.797000,80.485800,231.421000,83.273600,228.421000,81.237400C225.921000,83.273600,219.948000,83.326200,216.921000,82.237400C214.377000,83.218900,208.761000,84.737400,204.921000,84.737400C201.708000,84.737400,196.917000,83.564800,193.033000,79.415700C190.421000,82.237300,175.921000,81.289500,173.421000,79.416400C171.421000,81.289500,162.421000,81.289500,162.421000,81.289500Z" fill="url(#eZWQ1PD5YRk16-fill)" stroke="none" stroke-width="1" stroke-miterlimit="1"/><script><![CDATA[!function(t,n){"object"==typeof exports&&"undefined"!=typeof module?module.exports=n():"function"==typeof define&&define.amd?define(n):(t="undefined"!=typeof globalThis?globalThis:t||self).__SVGATOR_PLAYER__=n()}(this,(function(){"use strict";function t(n){return(t="function"==typeof Symbol&&"symbol"==typeof Symbol.iterator?function(t){return typeof t}:function(t){return t&&"function"==typeof Symbol&&t.constructor===Symbol&&t!==Symbol.prototype?"symbol":typeof t})(n)}function n(t,n){if(!(t instanceof n))throw new TypeError("Cannot call a class as a function")}function r(t,n){for(var r=0;r<n.length;r++){var e=n[r];e.enumerable=e.enumerable||!1,e.configurable=!0,"value"in e&&(e.writable=!0),Object.defineProperty(t,e.key,e)}}function e(t,n,e){return n&&r(t.prototype,n),e&&r(t,e),t}function i(t){return(i=Object.setPrototypeOf?Object.getPrototypeOf:function(t){return t.__proto__||Object.getPrototypeOf(t)})(t)}function o(t,n){return(o=Object.setPrototypeOf||function(t,n){return t.__proto__=n,t})(t,n)}function u(t,n){return!n||"object"!=typeof n&&"function"!=typeof n?function(t){if(void 0===t)throw new ReferenceError("this hasn't been initialised - super() hasn't been called");return t}(t):n}function a(t){var n=function(){if("undefined"==typeof Reflect||!Reflect.construct)return!1;if(Reflect.construct.sham)return!1;if("function"==typeof Proxy)return!0;try{return Boolean.prototype.valueOf.call(Reflect.construct(Boolean,[],(function(){}))),!0}catch(t){return!1}}();return function(){var r,e=i(t);if(n){var o=i(this).constructor;r=Reflect.construct(e,arguments,o)}else r=e.apply(this,arguments);return u(this,r)}}function l(t,n,r){return(l="undefined"!=typeof Reflect&&Reflect.get?Reflect.get:function(t,n,r){var e=function(t,n){for(;!Object.prototype.hasOwnProperty.call(t,n)&&null!==(t=i(t)););return t}(t,n);if(e){var o=Object.getOwnPropertyDescriptor(e,n);return o.get?o.get.call(r):o.value}})(t,n,r||t)}var f=Math.abs;function s(t){return t}function c(t,n,r){var e=1-r;return 3*r*e*(t*e+n*r)+r*r*r}function h(){var t=arguments.length>0&&void 0!==arguments[0]?arguments[0]:0,n=arguments.length>1&&void 0!==arguments[1]?arguments[1]:0,r=arguments.length>2&&void 0!==arguments[2]?arguments[2]:1,e=arguments.length>3&&void 0!==arguments[3]?arguments[3]:1;return t<0||t>1||r<0||r>1?null:f(t-n)<=1e-5&&f(r-e)<=1e-5?s:function(i){if(i<=0)return t>0?i*n/t:0===n&&r>0?i*e/r:0;if(i>=1)return r<1?1+(i-1)*(e-1)/(r-1):1===r&&t<1?1+(i-1)*(n-1)/(t-1):1;for(var o,u=0,a=1;u<a;){var l=c(t,r,o=(u+a)/2);if(f(i-l)<1e-5)break;l<i?u=o:a=o}return c(n,e,o)}}function v(){return 1}function y(t){return 1===t?1:0}function d(){var t=arguments.length>0&&void 0!==arguments[0]?arguments[0]:1,n=arguments.length>1&&void 0!==arguments[1]?arguments[1]:0;if(1===t){if(0===n)return y;if(1===n)return v}var r=1/t;return function(t){return t>=1?1:(t+=n*r)-t%r}}function g(t){var n=arguments.length>1&&void 0!==arguments[1]?arguments[1]:2;if(Number.isInteger(t))return t;var r=Math.pow(10,n);return Math.round(t*r)/r}var p=Math.PI/180;function m(t,n,r){return t>=.5?r:n}function b(t,n,r){return 0===t||n===r?n:t*(r-n)+n}function w(t,n,r){var e=b(t,n,r);return e<=0?0:e}function x(t,n,r){return 0===t?n:1===t?r:{x:b(t,n.x,r.x),y:b(t,n.y,r.y)}}function k(t,n,r){var e=function(t,n,r){return Math.round(b(t,n,r))}(t,n,r);return e<=0?0:e>=255?255:e}function A(t,n,r){return 0===t?n:1===t?r:{r:k(t,n.r,r.r),g:k(t,n.g,r.g),b:k(t,n.b,r.b),a:b(t,null==n.a?1:n.a,null==r.a?1:r.a)}}function _(t,n,r){if(0===t)return n;if(1===t)return r;var e=n.length;if(e!==r.length)return m(t,n,r);for(var i=[],o=0;o<e;o++)i.push(A(t,n[o],r[o]));return i}function S(t,n){for(var r=[],e=0;e<t;e++)r.push(n);return r}function O(t,n){if(--n<=0)return t;var r=(t=Object.assign([],t)).length;do{for(var e=0;e<r;e++)t.push(t[e])}while(--n>0);return t}var M,j=function(){function t(r){n(this,t),this.list=r,this.length=r.length}return e(t,[{key:"setAttribute",value:function(t,n){for(var r=this.list,e=0;e<this.length;e++)r[e].setAttribute(t,n)}},{key:"removeAttribute",value:function(t){for(var n=this.list,r=0;r<this.length;r++)n[r].removeAttribute(t)}},{key:"style",value:function(t,n){for(var r=this.list,e=0;e<this.length;e++)r[e].style[t]=n}}]),t}(),F=/-./g,P=function(t,n){return n.toUpperCase()};function B(t){return"function"==typeof t?t:m}function I(t){return t?"function"==typeof t?t:Array.isArray(t)?function(t){var n=arguments.length>1&&void 0!==arguments[1]?arguments[1]:s;if(!Array.isArray(t))return n;switch(t.length){case 1:return d(t[0])||n;case 2:return d(t[0],t[1])||n;case 4:return h(t[0],t[1],t[2],t[3])||n}return n}(t,null):function(t,n){var r=arguments.length>2&&void 0!==arguments[2]?arguments[2]:s;switch(t){case"linear":return s;case"steps":return d(n.steps||1,n.jump||0)||r;case"bezier":case"cubic-bezier":return h(n.x1||0,n.y1||0,n.x2||0,n.y2||0)||r}return r}(t.type,t.value,null):null}function R(t,n,r){var e=arguments.length>3&&void 0!==arguments[3]&&arguments[3],i=n.length-1;if(t<=n[0].t)return e?[0,0,n[0].v]:n[0].v;if(t>=n[i].t)return e?[i,1,n[i].v]:n[i].v;var o,u=n[0],a=null;for(o=1;o<=i;o++){if(!(t>n[o].t)){a=n[o];break}u=n[o]}return null==a?e?[i,1,n[i].v]:n[i].v:u.t===a.t?e?[o,1,a.v]:a.v:(t=(t-u.t)/(a.t-u.t),u.e&&(t=u.e(t)),e?[o,t,r(t,u.v,a.v)]:r(t,u.v,a.v))}function q(t,n){var r=arguments.length>2&&void 0!==arguments[2]?arguments[2]:null;return t&&t.length?"function"!=typeof n?null:("function"!=typeof r&&(r=null),function(e){var i=R(e,t,n);return null!=i&&r&&(i=r(i)),i}):null}function E(t,n){return t.t-n.t}function T(n,r,e,i,o){var u,a="@"===e[0],l="#"===e[0],f=M[e],s=m;switch(a?(u=e.substr(1),e=u.replace(F,P)):l&&(e=e.substr(1)),t(f)){case"function":if(s=f(i,o,R,I,e,a,r,n),l)return s;break;case"string":s=q(i,B(f));break;case"object":if((s=q(i,B(f.i),f.f))&&"function"==typeof f.u)return f.u(r,s,e,a,n)}return s?function(t,n,r){var e=arguments.length>3&&void 0!==arguments[3]&&arguments[3];if(e)return t instanceof j?function(e){return t.style(n,r(e))}:function(e){return t.style[n]=r(e)};if(Array.isArray(n)){var i=n.length;return function(e){var o=r(e);if(null==o)for(var u=0;u<i;u++)t[u].removeAttribute(n);else for(var a=0;a<i;a++)t[a].setAttribute(n,o)}}return function(e){var i=r(e);null==i?t.removeAttribute(n):t.setAttribute(n,i)}}(r,e,s,a):null}function N(n,r,e,i){if(!i||"object"!==t(i))return null;var o=null,u=null;return Array.isArray(i)?u=function(t){if(!t||!t.length)return null;for(var n=0;n<t.length;n++)t[n].e&&(t[n].e=I(t[n].e));return t.sort(E)}(i):(u=i.keys,o=i.data||null),u?T(n,r,e,u,o):null}function C(t,n,r){if(!r)return null;var e=[];for(var i in r)if(r.hasOwnProperty(i)){var o=N(t,n,i,r[i]);o&&e.push(o)}return e.length?e:null}function z(t,n){if(!n.duration||n.duration<0)return null;var r=function(t,n){if(!n)return null;var r=[];if(Array.isArray(n))for(var e=n.length,i=0;i<e;i++){var o=n[i];if(2===o.length){var u=null;if("string"==typeof o[0])u=t.getElementById(o[0]);else if(Array.isArray(o[0])){u=[];for(var a=0;a<o[0].length;a++)if("string"==typeof o[0][a]){var l=t.getElementById(o[0][a]);l&&u.push(l)}u=u.length?1===u.length?u[0]:new j(u):null}if(u){var f=C(t,u,o[1]);f&&(r=r.concat(f))}}}else for(var s in n)if(n.hasOwnProperty(s)){var c=t.getElementById(s);if(c){var h=C(t,c,n[s]);h&&(r=r.concat(h))}}return r.length?r:null}(t,n.elements);return r?function(t,n){var r=arguments.length>2&&void 0!==arguments[2]?arguments[2]:1/0,e=arguments.length>3&&void 0!==arguments[3]?arguments[3]:1,i=arguments.length>4&&void 0!==arguments[4]&&arguments[4],o=arguments.length>5&&void 0!==arguments[5]?arguments[5]:1,u=t.length,a=e>0?n:0;i&&r%2==0&&(a=n-a);var l=null;return function(f,s){var c=f%n,h=1+(f-c)/n;s*=e,i&&h%2==0&&(s=-s);var v=!1;if(h>r)c=a,v=!0,-1===o&&(c=e>0?0:n);else if(s<0&&(c=n-c),c===l)return!1;l=c;for(var y=0;y<u;y++)t[y](c);return v}}(r,n.duration,n.iterations||1/0,n.direction||1,!!n.alternate,n.fill||1):null}var L=function(){function t(r,e){var i=arguments.length>2&&void 0!==arguments[2]?arguments[2]:{};n(this,t),this._id=0,this._running=!1,this._rollingBack=!1,this._animations=r,this.duration=e.duration,this.alternate=e.alternate,this.fill=e.fill,this.iterations=e.iterations,this.direction=i.direction||1,this.speed=i.speed||1,this.fps=i.fps||100,this.offset=i.offset||0,this.rollbackStartOffset=0}return e(t,[{key:"_rollback",value:function(){var t=this,n=1/0,r=null;this.rollbackStartOffset=this.offset,this._rollingBack||(this._rollingBack=!0,this._running=!0);this._id=window.requestAnimationFrame((function e(i){if(t._rollingBack){null==r&&(r=i);var o=i-r,u=t.rollbackStartOffset-o,a=Math.round(u*t.speed);if(a>t.duration&&n!=1/0){var l=!!t.alternate&&a/t.duration%2>1,f=a%t.duration;a=(f+=l?t.duration:0)||t.duration}var s=t.fps?1e3/t.fps:0,c=Math.max(0,a);if(c<n-s){t.offset=c,n=c;for(var h=t._animations,v=h.length,y=0;y<v;y++)h[y](c,t.direction)}var d=!1;if(t.iterations>0&&-1===t.fill){var g=t.iterations*t.duration,p=g==a;a=p?0:a,t.offset=p?0:t.offset,d=a>g}a>0&&t.offset>=a&&!d?t._id=window.requestAnimationFrame(e):t.stop()}}))}},{key:"_start",value:function(){var t=this,n=arguments.length>0&&void 0!==arguments[0]?arguments[0]:0,r=-1/0,e=null,i={},o=function o(u){t._running=!0,null==e&&(e=u);var a=Math.round((u-e+n)*t.speed),l=t.fps?1e3/t.fps:0;if(a>r+l&&!t._rollingBack){t.offset=a,r=a;for(var f=t._animations,s=f.length,c=0,h=0;h<s;h++)i[h]?c++:(i[h]=f[h](a,t.direction),i[h]&&c++);if(c===s)return void t._stop()}t._id=window.requestAnimationFrame(o)};this._id=window.requestAnimationFrame(o)}},{key:"_stop",value:function(){this._id&&window.cancelAnimationFrame(this._id),this._running=!1,this._rollingBack=!1}},{key:"play",value:function(){!this._rollingBack&&this._running||(this._rollingBack=!1,this.rollbackStartOffset>this.duration&&(this.offset=this.rollbackStartOffset-(this.rollbackStartOffset-this.offset)%this.duration,this.rollbackStartOffset=0),this._start(this.offset))}},{key:"stop",value:function(){this._stop(),this.offset=0,this.rollbackStartOffset=0;var t=this.direction,n=this._animations;window.requestAnimationFrame((function(){for(var r=0;r<n.length;r++)n[r](0,t)}))}},{key:"reachedToEnd",value:function(){return this.iterations>0&&this.offset>=this.iterations*this.duration}},{key:"restart",value:function(){this._stop(),this.offset=0,this._start()}},{key:"pause",value:function(){this._stop()}},{key:"reverse",value:function(){this.direction=-this.direction}}],[{key:"build",value:function(n,r){return(n=function(t,n){if(M=n,!t||!t.root||!Array.isArray(t.animations))return null;for(var r=document.getElementsByTagName("svg"),e=!1,i=0;i<r.length;i++)if(r[i].id===t.root&&!r[i].svgatorAnimation){(e=r[i]).svgatorAnimation=!0;break}if(!e)return null;var o=t.animations.map((function(t){return z(e,t)})).filter((function(t){return!!t}));return o.length?{element:e,animations:o,animationSettings:t.animationSettings,options:t.options||void 0}:null}(n,r))?{el:n.element,options:n.options||{},player:new t(n.animations,n.animationSettings,n.options)}:null}}]),t}();!function(){for(var t=0,n=["ms","moz","webkit","o"],r=0;r<n.length&&!window.requestAnimationFrame;++r)window.requestAnimationFrame=window[n[r]+"RequestAnimationFrame"],window.cancelAnimationFrame=window[n[r]+"CancelAnimationFrame"]||window[n[r]+"CancelRequestAnimationFrame"];window.requestAnimationFrame||(window.requestAnimationFrame=function(n){var r=Date.now(),e=Math.max(0,16-(r-t)),i=window.setTimeout((function(){n(r+e)}),e);return t=r+e,i},window.cancelAnimationFrame=window.clearTimeout)}();var D=/\.0+$/g;function Q(t){return Number.isInteger(t)?t+"":t.toFixed(6).replace(D,"")}function U(t){var n=arguments.length>1&&void 0!==arguments[1]?arguments[1]:" ";return t&&t.length?t.map(Q).join(n):""}function V(t){return t?null==t.a||t.a>=1?"rgb("+t.r+","+t.g+","+t.b+")":"rgba("+t.r+","+t.g+","+t.b+","+t.a+")":"transparent"}var $={f:null,i:function(t,n,r){return 0===t?n:1===t?r:{x:w(t,n.x,r.x),y:w(t,n.y,r.y)}},u:function(t,n){return function(r){var e=n(r);t.setAttribute("rx",Q(e.x)),t.setAttribute("ry",Q(e.y))}}},G={f:null,i:function(t,n,r){return 0===t?n:1===t?r:{width:w(t,n.width,r.width),height:w(t,n.height,r.height)}},u:function(t,n){return function(r){var e=n(r);t.setAttribute("width",Q(e.width)),t.setAttribute("height",Q(e.height))}}},H=Math.sin,Y=Math.cos,Z=Math.acos,J=Math.asin,K=Math.tan,W=Math.atan2,X=Math.PI/180,tt=180/Math.PI,nt=Math.sqrt,rt=function(){function t(){var r=arguments.length>0&&void 0!==arguments[0]?arguments[0]:1,e=arguments.length>1&&void 0!==arguments[1]?arguments[1]:0,i=arguments.length>2&&void 0!==arguments[2]?arguments[2]:0,o=arguments.length>3&&void 0!==arguments[3]?arguments[3]:1,u=arguments.length>4&&void 0!==arguments[4]?arguments[4]:0,a=arguments.length>5&&void 0!==arguments[5]?arguments[5]:0;n(this,t),this.m=[r,e,i,o,u,a],this.i=null,this.w=null,this.s=null}return e(t,[{key:"determinant",get:function(){var t=this.m;return t[0]*t[3]-t[1]*t[2]}},{key:"isIdentity",get:function(){if(null===this.i){var t=this.m;this.i=1===t[0]&&0===t[1]&&0===t[2]&&1===t[3]&&0===t[4]&&0===t[5]}return this.i}},{key:"point",value:function(t,n){var r=this.m;return{x:r[0]*t+r[2]*n+r[4],y:r[1]*t+r[3]*n+r[5]}}},{key:"translateSelf",value:function(){var t=arguments.length>0&&void 0!==arguments[0]?arguments[0]:0,n=arguments.length>1&&void 0!==arguments[1]?arguments[1]:0;if(!t&&!n)return this;var r=this.m;return r[4]+=r[0]*t+r[2]*n,r[5]+=r[1]*t+r[3]*n,this.w=this.s=this.i=null,this}},{key:"rotateSelf",value:function(){var t=arguments.length>0&&void 0!==arguments[0]?arguments[0]:0;if(t%=360){var n=H(t*=X),r=Y(t),e=this.m,i=e[0],o=e[1];e[0]=i*r+e[2]*n,e[1]=o*r+e[3]*n,e[2]=e[2]*r-i*n,e[3]=e[3]*r-o*n,this.w=this.s=this.i=null}return this}},{key:"scaleSelf",value:function(){var t=arguments.length>0&&void 0!==arguments[0]?arguments[0]:1,n=arguments.length>1&&void 0!==arguments[1]?arguments[1]:1;if(1!==t||1!==n){var r=this.m;r[0]*=t,r[1]*=t,r[2]*=n,r[3]*=n,this.w=this.s=this.i=null}return this}},{key:"skewSelf",value:function(t,n){if(n%=360,(t%=360)||n){var r=this.m,e=r[0],i=r[1],o=r[2],u=r[3];t&&(t=K(t*X),r[2]+=e*t,r[3]+=i*t),n&&(n=K(n*X),r[0]+=o*n,r[1]+=u*n),this.w=this.s=this.i=null}return this}},{key:"resetSelf",value:function(){var t=arguments.length>0&&void 0!==arguments[0]?arguments[0]:1,n=arguments.length>1&&void 0!==arguments[1]?arguments[1]:0,r=arguments.length>2&&void 0!==arguments[2]?arguments[2]:0,e=arguments.length>3&&void 0!==arguments[3]?arguments[3]:1,i=arguments.length>4&&void 0!==arguments[4]?arguments[4]:0,o=arguments.length>5&&void 0!==arguments[5]?arguments[5]:0,u=this.m;return u[0]=t,u[1]=n,u[2]=r,u[3]=e,u[4]=i,u[5]=o,this.w=this.s=this.i=null,this}},{key:"recomposeSelf",value:function(){var t=arguments.length>0&&void 0!==arguments[0]?arguments[0]:null,n=arguments.length>1&&void 0!==arguments[1]?arguments[1]:null,r=arguments.length>2&&void 0!==arguments[2]?arguments[2]:null,e=arguments.length>3&&void 0!==arguments[3]?arguments[3]:null,i=arguments.length>4&&void 0!==arguments[4]?arguments[4]:null;return this.isIdentity||this.resetSelf(),t&&(t.x||t.y)&&this.translateSelf(t.x,t.y),n&&this.rotateSelf(n),r&&(r.x&&this.skewSelf(r.x,0),r.y&&this.skewSelf(0,r.y)),!e||1===e.x&&1===e.y||this.scaleSelf(e.x,e.y),i&&(i.x||i.y)&&this.translateSelf(i.x,i.y),this}},{key:"decompose",value:function(){var t=arguments.length>0&&void 0!==arguments[0]?arguments[0]:0,n=arguments.length>1&&void 0!==arguments[1]?arguments[1]:0,r=this.m,e=r[0]*r[0]+r[1]*r[1],i=[[r[0],r[1]],[r[2],r[3]]],o=nt(e);if(0===o)return{origin:{x:r[4],y:r[5]},translate:{x:t,y:n},scale:{x:0,y:0},skew:{x:0,y:0},rotate:0};i[0][0]/=o,i[0][1]/=o;var u=r[0]*r[3]-r[1]*r[2]<0;u&&(o=-o);var a=i[0][0]*i[1][0]+i[0][1]*i[1][1];i[1][0]-=i[0][0]*a,i[1][1]-=i[0][1]*a;var l=nt(i[1][0]*i[1][0]+i[1][1]*i[1][1]);if(0===l)return{origin:{x:r[4],y:r[5]},translate:{x:t,y:n},scale:{x:o,y:0},skew:{x:0,y:0},rotate:0};i[1][0]/=l,i[1][1]/=l,a/=l;var f=0;return i[1][1]<0?(f=Z(i[1][1])*tt,i[0][1]<0&&(f=360-f)):f=J(i[0][1])*tt,u&&(f=-f),a=W(a,nt(i[0][0]*i[0][0]+i[0][1]*i[0][1]))*tt,u&&(a=-a),{origin:{x:r[4],y:r[5]},translate:{x:t,y:n},scale:{x:o,y:l},skew:{x:a,y:0},rotate:f}}},{key:"toString",value:function(){return null===this.s&&(this.s="matrix("+this.m.map(it).join(" ")+")"),this.s}}]),t}(),et=/\.0+$/;function it(t){return Number.isInteger(t)?t:t.toFixed(14).replace(et,"")}Object.freeze({M:2,L:2,Z:0,H:1,V:1,C:6,Q:4,T:2,S:4,A:7});var ot={},ut=null;function at(n){var r=function(){if(ut)return ut;if("object"!==("undefined"==typeof document?"undefined":t(document)))return{};var n=document.createElementNS("http://www.w3.org/2000/svg","svg");return n.style.position="absolute",n.style.opacity="0.01",n.style.zIndex="-9999",n.style.left="-9999px",n.style.width="1px",n.style.height="1px",ut={svg:n}}().svg;if(!r)return function(t){return null};var e=document.createElementNS(r.namespaceURI,"path");e.setAttributeNS(null,"d",n),e.setAttributeNS(null,"fill","none"),e.setAttributeNS(null,"stroke","none"),r.appendChild(e);var i=e.getTotalLength();return function(t){var n=e.getPointAtLength(i*t);return{x:n.x,y:n.y}}}function lt(t){return ot[t]?ot[t]:ot[t]=at(t)}function ft(t,n,r,e){if(!t||!e)return!1;var i=["M",t.x,t.y];if(n&&r&&(i.push("C"),i.push(n.x),i.push(n.y),i.push(r.x),i.push(r.y)),n?!r:r){var o=n||r;i.push("Q"),i.push(o.x),i.push(o.y)}return n||r||i.push("L"),i.push(e.x),i.push(e.y),i.join(" ")}function st(t,n,r,e){var i=arguments.length>4&&void 0!==arguments[4]?arguments[4]:1,o=ft(t,n,r,e),u=lt(o);try{return u(i)}catch(t){return null}}function ct(t,n,r,e){var i=1-e;return i*i*t+2*i*e*n+e*e*r}function ht(t,n,r,e){return 2*(1-e)*(n-t)+2*e*(r-n)}function vt(t,n,r,e){var i=arguments.length>4&&void 0!==arguments[4]&&arguments[4],o=st(t,n,null,r,e);return o||(o={x:ct(t.x,n.x,r.x,e),y:ct(t.y,n.y,r.y,e)}),i&&(o.a=yt(t,n,r,e)),o}function yt(t,n,r,e){return Math.atan2(ht(t.y,n.y,r.y,e),ht(t.x,n.x,r.x,e))}function dt(t,n,r,e,i){var o=i*i;return i*o*(e-t+3*(n-r))+3*o*(t+r-2*n)+3*i*(n-t)+t}function gt(t,n,r,e,i){var o=1-i;return 3*(o*o*(n-t)+2*o*i*(r-n)+i*i*(e-r))}function pt(t,n,r,e,i){var o=arguments.length>5&&void 0!==arguments[5]&&arguments[5],u=st(t,n,r,e,i);return u||(u={x:dt(t.x,n.x,r.x,e.x,i),y:dt(t.y,n.y,r.y,e.y,i)}),o&&(u.a=mt(t,n,r,e,i)),u}function mt(t,n,r,e,i){return Math.atan2(gt(t.y,n.y,r.y,e.y,i),gt(t.x,n.x,r.x,e.x,i))}function bt(t,n,r){return t+(n-t)*r}function wt(t,n,r){var e=arguments.length>3&&void 0!==arguments[3]&&arguments[3],i={x:bt(t.x,n.x,r),y:bt(t.y,n.y,r)};return e&&(i.a=xt(t,n)),i}function xt(t,n){return Math.atan2(n.y-t.y,n.x-t.x)}function kt(t,n,r){var e=arguments.length>3&&void 0!==arguments[3]&&arguments[3];if(_t(n)){if(St(r))return vt(n,r.start,r,t,e)}else if(_t(r)){if(n.end)return vt(n,n.end,r,t,e)}else{if(n.end)return r.start?pt(n,n.end,r.start,r,t,e):vt(n,n.end,r,t,e);if(r.start)return vt(n,r.start,r,t,e)}return wt(n,r,t,e)}function At(t,n,r){var e=kt(t,n,r,!0);return e.a=function(t){var n=arguments.length>1&&void 0!==arguments[1]&&arguments[1];return n?t+Math.PI:t}(e.a)/p,e}function _t(t){return!t.type||"corner"===t.type}function St(t){return null!=t.start&&!_t(t)}var Ot=new rt;var Mt={f:Q,i:b},jt={f:Q,i:function(t,n,r){var e=b(t,n,r);return e<=0?0:e>=1?1:e}};function Ft(t,n,r,e,i,o,u,a){return n=function(t,n,r){for(var e,i,o,u=t.length-1,a={},l=0;l<=u;l++)(e=t[l]).e&&(e.e=n(e.e)),e.v&&"g"===(i=e.v).t&&i.r&&(o=r.getElementById(i.r))&&(a[i.r]=o.querySelectorAll("stop"));return a}(t,e,a),function(e){var i,o=r(e,t,Pt);return o?"c"===o.t?V(o.v):"g"===o.t?(n[o.r]&&function(t,n){for(var r=0,e=t.length;r<e;r++)t[r].setAttribute("stop-color",V(n[r]))}(n[o.r],o.v),(i=o.r)?"url(#"+i+")":"none"):"none":"none"}}function Pt(t,n,r){if(0===t)return n;if(1===t)return r;if(n&&r){var e=n.t;if(e===r.t)switch(n.t){case"c":return{t:e,v:A(t,n.v,r.v)};case"g":if(n.r===r.r)return{t:e,v:_(t,n.v,r.v),r:n.r}}}return m(t,n,r)}var Bt={fill:Ft,"fill-opacity":jt,stroke:Ft,"stroke-opacity":jt,"stroke-width":Mt,"stroke-dashoffset":{f:Q,i:b},"stroke-dasharray":{f:function(t){var n=arguments.length>1&&void 0!==arguments[1]?arguments[1]:" ";return t&&t.length>0&&(t=t.map((function(t){return Math.floor(1e4*t)/1e4}))),U(t,n)},i:function(t,n,r){var e,i,o,u=n.length,a=r.length;if(u!==a)if(0===u)n=S(u=a,0);else if(0===a)a=u,r=S(u,0);else{var l=(o=(e=u)*(i=a)/function(t,n){for(var r;n;)r=n,n=t%n,t=r;return t||1}(e,i))<0?-o:o;n=O(n,Math.floor(l/u)),r=O(r,Math.floor(l/a)),u=a=l}for(var f=[],s=0;s<u;s++)f.push(g(w(t,n[s],r[s]),6));return f}},opacity:jt,transform:function(n,r,e,i){if(!(n=function(n,r){if(!n||"object"!==t(n))return null;var e=!1;for(var i in n)n.hasOwnProperty(i)&&(n[i]&&n[i].length?(n[i].forEach((function(t){t.e&&(t.e=r(t.e))})),e=!0):delete n[i]);return e?n:null}(n,i)))return null;var o=function(t,i,o){var u=arguments.length>3&&void 0!==arguments[3]?arguments[3]:null;return n[t]?e(i,n[t],o):r&&r[t]?r[t]:u};return r&&r.a&&n.o?function(t){var r=e(t,n.o,At);return Ot.recomposeSelf(r,o("r",t,b,0)+r.a,o("k",t,x),o("s",t,x),o("t",t,x)).toString()}:function(t){return Ot.recomposeSelf(o("o",t,kt,null),o("r",t,b,0),o("k",t,x),o("s",t,x),o("t",t,x)).toString()}},r:Mt,"#size":G,"#radius":$,_:function(t,n){if(Array.isArray(t))for(var r=0;r<t.length;r++)this[t[r]]=n;else this[t]=n}};return function(t){!function(t,n){if("function"!=typeof n&&null!==n)throw new TypeError("Super expression must either be null or a function");t.prototype=Object.create(n&&n.prototype,{constructor:{value:t,writable:!0,configurable:!0}}),n&&o(t,n)}(u,t);var r=a(u);function u(){return n(this,u),r.apply(this,arguments)}return e(u,null,[{key:"build",value:function(t){var n=l(i(u),"build",this).call(this,t,Bt);n.el,n.options;var r=n.player;return function(t,n,r){t.play()}(r),r}}]),u}(L)}));
__SVGATOR_PLAYER__.build({"root":"eZWQ1PD5YRk1","animations":[{"duration":3000,"direction":1,"iterations":0,"fill":1,"alternate":false,"speed":1,"elements":{"eZWQ1PD5YRk3":{"transform":{"data":{"t":{"x":-249.52837372,"y":-10.742986999999998}},"keys":{"o":[{"t":0,"v":{"x":249.97729078999998,"y":10.72948,"type":"corner"},"e":[0.42,0,0.58,1]},{"t":1200,"v":{"x":250.11564137999792,"y":17.837408000000003,"type":"corner"},"e":[0.42,0,0.58,1]},{"t":3000,"v":{"x":250.01332108999998,"y":10.775737,"type":"corner"}}]}}},"eZWQ1PD5YRk6":{"transform":{"data":{"t":{"x":-227.34159851,"y":-52.483934405}},"keys":{"o":[{"t":0,"v":{"x":227.34159851,"y":52.483934405,"type":"corner"},"e":[0.42,0,0.58,1]},{"t":1500,"v":{"x":227.34159851,"y":56.483934405,"type":"corner"},"e":[0.42,0,0.58,1]},{"t":3000,"v":{"x":227.34159851,"y":52.483934405,"type":"corner"}}]}}},"eZWQ1PD5YRk15":{"transform":{"data":{"t":{"x":-121.07692337036133,"y":-52.978458404541016}},"keys":{"o":[{"t":400,"v":{"x":121.07692337036133,"y":55.978458404541016,"type":"corner"},"e":[0.42,0,0.58,1]},{"t":2000,"v":{"x":121.07692337036133,"y":58.978458404541016,"type":"corner"},"e":[0.42,0,0.58,1]},{"t":3000,"v":{"x":121.07692337036133,"y":55.978458404541016,"type":"corner"},"e":[0.42,0,0.58,1]}]}}},"eZWQ1PD5YRk16":{"transform":{"data":{"t":{"x":-152.46030044555664,"y":-65.67924880981445}},"keys":{"o":[{"t":300,"v":{"x":152.46030044555664,"y":65.67924880981445,"type":"corner"},"e":[0.42,0,0.58,1]},{"t":1700,"v":{"x":152.46030044555664,"y":68.67924880981445,"type":"corner"},"e":[0.42,0,0.58,1]},{"t":3000,"v":{"x":152.46030044555664,"y":65.67924880981445,"type":"corner"}}]}}}}}],"options":{"start":"load","hover":"freeze","click":"freeze","scroll":25,"font":"embed","exportedIds":"unique","svgFormat":"animated","title":"health-circle"},"animationSettings":{"duration":3000,"direction":1,"iterations":0,"fill":1,"alternate":false,"speed":1}})]]></script></svg>