<svg width="953" height="215" viewBox="0 0 953 215" fill="none" xmlns="http://www.w3.org/2000/svg">
<path d="M50.9991 169V56.204H76.4301V102.395H77.1221L110.684 56.204H138.71L104.629 101.184L144.938 169H117.085L89.5781 121.425L76.4301 138.725V169H50.9991ZM192.796 171.076C187.375 171.076 182.127 170.096 177.053 168.135C171.978 166.059 167.48 163.118 163.559 159.312C159.753 155.506 156.696 150.835 154.39 145.299C152.083 139.648 150.93 133.247 150.93 126.096C150.93 118.945 152.083 112.602 154.39 107.066C156.696 101.415 159.753 96.686 163.559 92.88C167.48 89.074 171.978 86.1907 177.053 84.23C182.127 82.154 187.375 81.116 192.796 81.116C198.216 81.116 203.406 82.154 208.366 84.23C213.44 86.1907 217.881 89.074 221.687 92.88C225.608 96.686 228.722 101.415 231.029 107.066C233.335 112.602 234.489 118.945 234.489 126.096C234.489 133.247 233.335 139.648 231.029 145.299C228.722 150.835 225.608 155.506 221.687 159.312C217.881 163.118 213.44 166.059 208.366 168.135C203.406 170.096 198.216 171.076 192.796 171.076ZM192.796 150.489C197.986 150.489 201.907 148.298 204.56 143.915C207.212 139.532 208.539 133.593 208.539 126.096C208.539 118.599 207.212 112.66 204.56 108.277C201.907 103.894 197.986 101.703 192.796 101.703C187.49 101.703 183.511 103.894 180.859 108.277C178.321 112.66 177.053 118.599 177.053 126.096C177.053 133.593 178.321 139.532 180.859 143.915C183.511 148.298 187.49 150.489 192.796 150.489ZM285.988 171.076C280.683 171.076 275.839 170.038 271.456 167.962C267.189 165.886 263.498 162.945 260.384 159.139C257.386 155.218 255.021 150.489 253.291 144.953C251.677 139.417 250.869 133.131 250.869 126.096C250.869 119.061 251.85 112.775 253.81 107.239C255.886 101.703 258.539 97.032 261.768 93.226C265.113 89.3047 268.919 86.306 273.186 84.23C277.569 82.154 282.009 81.116 286.507 81.116C291.351 81.116 295.33 81.9233 298.444 83.538C301.558 85.1527 304.615 87.344 307.613 90.112L306.575 76.964V47.727H332.006V169H311.246L309.516 160.523H308.824C305.826 163.522 302.308 166.059 298.271 168.135C294.235 170.096 290.14 171.076 285.988 171.076ZM292.562 150.316C295.33 150.316 297.81 149.739 300.001 148.586C302.308 147.433 304.499 145.414 306.575 142.531V107.412C304.269 105.336 301.904 103.894 299.482 103.087C297.06 102.28 294.696 101.876 292.389 101.876C288.353 101.876 284.777 103.837 281.663 107.758C278.549 111.564 276.992 117.561 276.992 125.75C276.992 134.285 278.319 140.513 280.971 144.434C283.739 148.355 287.603 150.316 292.562 150.316ZM379.623 171.076C375.702 171.076 372.127 170.384 368.897 169C365.783 167.731 363.131 165.944 360.939 163.637C358.748 161.215 357.018 158.447 355.749 155.333C354.596 152.219 354.019 148.817 354.019 145.126C354.019 136.13 357.825 129.095 365.437 124.02C373.049 118.945 385.332 115.543 402.286 113.813C402.056 110.007 400.902 107.008 398.826 104.817C396.866 102.51 393.521 101.357 388.792 101.357C385.102 101.357 381.411 102.049 377.72 103.433C374.145 104.817 370.281 106.72 366.129 109.142L356.96 92.361C362.496 89.0163 368.263 86.306 374.26 84.23C380.373 82.154 386.832 81.116 393.636 81.116C404.708 81.116 413.128 84.2877 418.894 90.631C424.776 96.859 427.717 106.605 427.717 119.868V169H406.957L405.227 160.177H404.535C400.845 163.406 396.981 166.059 392.944 168.135C388.908 170.096 384.467 171.076 379.623 171.076ZM388.273 151.354C391.157 151.354 393.636 150.72 395.712 149.451C397.788 148.182 399.98 146.395 402.286 144.088V129.037C393.29 130.306 387.062 132.151 383.602 134.573C380.142 136.995 378.412 139.878 378.412 143.223C378.412 145.991 379.277 148.067 381.007 149.451C382.853 150.72 385.275 151.354 388.273 151.354Z" fill="white"/>
<path d="M454.765 169V56.204H480.196V99.627H519.121V56.204H544.725V169H519.121V121.944H480.196V169H454.765ZM594.346 171.076C590.425 171.076 586.849 170.384 583.62 169C580.506 167.731 577.853 165.944 575.662 163.637C573.471 161.215 571.741 158.447 570.472 155.333C569.319 152.219 568.742 148.817 568.742 145.126C568.742 136.13 572.548 129.095 580.16 124.02C587.772 118.945 600.055 115.543 617.009 113.813C616.778 110.007 615.625 107.008 613.549 104.817C611.588 102.51 608.244 101.357 603.515 101.357C599.824 101.357 596.134 102.049 592.443 103.433C588.868 104.817 585.004 106.72 580.852 109.142L571.683 92.361C577.219 89.0163 582.986 86.306 588.983 84.23C595.096 82.154 601.554 81.116 608.359 81.116C619.431 81.116 627.85 84.2877 633.617 90.631C639.499 96.859 642.44 106.605 642.44 119.868V169H621.68L619.95 160.177H619.258C615.567 163.406 611.704 166.059 607.667 168.135C603.63 170.096 599.19 171.076 594.346 171.076ZM602.996 151.354C605.879 151.354 608.359 150.72 610.435 149.451C612.511 148.182 614.702 146.395 617.009 144.088V129.037C608.013 130.306 601.785 132.151 598.325 134.573C594.865 136.995 593.135 139.878 593.135 143.223C593.135 145.991 594 148.067 595.73 149.451C597.575 150.72 599.997 151.354 602.996 151.354ZM704.78 171.076C698.782 171.076 693.189 170.096 687.999 168.135C682.924 166.059 678.484 163.118 674.678 159.312C670.872 155.506 667.873 150.835 665.682 145.299C663.49 139.648 662.395 133.247 662.395 126.096C662.395 118.945 663.606 112.602 666.028 107.066C668.45 101.415 671.679 96.686 675.716 92.88C679.868 89.074 684.654 86.1907 690.075 84.23C695.495 82.154 701.147 81.116 707.029 81.116C712.334 81.116 717.005 81.981 721.042 83.711C725.194 85.441 728.884 87.6323 732.114 90.285L720.177 106.72C716.14 103.375 712.276 101.703 708.586 101.703C702.358 101.703 697.456 103.894 693.881 108.277C690.305 112.66 688.518 118.599 688.518 126.096C688.518 133.593 690.305 139.532 693.881 143.915C697.571 148.298 702.185 150.489 707.721 150.489C710.489 150.489 713.141 149.912 715.679 148.759C718.331 147.49 720.811 145.991 723.118 144.261L733.152 160.869C728.884 164.56 724.271 167.212 719.312 168.827C714.352 170.326 709.508 171.076 704.78 171.076ZM751.627 169V47.727H776.366V117.273H777.058L804.219 83.192H831.899L801.797 118.484L834.148 169H806.641L787.265 135.611L776.366 147.894V169H751.627ZM875.124 171.076C869.472 171.076 863.648 169.98 857.651 167.789C851.769 165.598 846.636 162.714 842.254 159.139L853.672 143.223C857.593 146.222 861.341 148.471 864.917 149.97C868.492 151.469 872.125 152.219 875.816 152.219C879.622 152.219 882.39 151.585 884.12 150.316C885.85 149.047 886.715 147.26 886.715 144.953C886.715 143.569 886.196 142.358 885.158 141.32C884.235 140.167 882.909 139.129 881.179 138.206C879.564 137.283 877.719 136.476 875.643 135.784C873.567 134.977 871.433 134.112 869.242 133.189C866.589 132.151 863.936 130.94 861.284 129.556C858.631 128.172 856.209 126.5 854.018 124.539C851.826 122.463 850.039 120.099 848.655 117.446C847.271 114.678 846.579 111.506 846.579 107.931C846.579 104.01 847.328 100.377 848.828 97.032C850.442 93.6873 852.691 90.8617 855.575 88.555C858.458 86.2483 861.918 84.4607 865.955 83.192C869.991 81.808 874.489 81.116 879.449 81.116C886.023 81.116 891.789 82.2693 896.749 84.576C901.708 86.7673 906.033 89.247 909.724 92.015L898.306 107.239C895.192 104.932 892.135 103.145 889.137 101.876C886.138 100.607 883.139 99.973 880.141 99.973C873.682 99.973 870.453 102.222 870.453 106.72C870.453 108.104 870.914 109.315 871.837 110.353C872.759 111.276 873.97 112.141 875.47 112.948C877.084 113.755 878.872 114.563 880.833 115.37C882.909 116.062 885.042 116.812 887.234 117.619C890.002 118.657 892.712 119.868 895.365 121.252C898.133 122.521 900.612 124.135 902.804 126.096C905.11 128.057 906.956 130.479 908.34 133.362C909.724 136.13 910.416 139.475 910.416 143.396C910.416 147.317 909.666 150.95 908.167 154.295C906.667 157.64 904.418 160.581 901.42 163.118C898.421 165.54 894.73 167.501 890.348 169C885.965 170.384 880.89 171.076 875.124 171.076Z" fill="#BCCEE3"/>
<path d="M845.5 104.5C851.645 74.43 894 76 909.953 92.4479C886 78 855.092 80.7307 854.5 106.5C853.908 132.269 895.805 130.962 893.5 147.5C891.196 164.038 861.717 152.017 852.5 144.5L853.5 143C875.5 156.216 884.738 152.397 886.5 145.5C888 134 841 134.5 845.5 104.5Z" fill="#426E9F"/>
<path d="M852 145.5L842 159C842 159.544 844.889 161.32 846 162L845.833 161.04L852 145.5Z" fill="#426E9F"/>
<path d="M51 169V56H59V169H51Z" fill="#97B5D6"/>
<path d="M751 169V48H759V169H751Z" fill="#426E9F"/>
<path d="M110.5 56.3811L76.5 102.989H85.7859L119.5 56.3811H110.5Z" fill="#97B5D6"/>
<path d="M117 169L89.7412 121.5H96.4895L124.5 169H117Z" fill="#97B5D6"/>
<path d="M804 83L776.84 117.273H784.5L811.66 83H804Z" fill="#426E9F"/>
<path d="M806.5 169L786.5 135.315H794L814.272 169H806.5Z" fill="#426E9F"/>
<path d="M150.803 126.667C150.762 96.2237 171.811 81.1887 191.356 81.1887C174.066 84.1957 159 96.7678 159 126.667C159 156.567 176.437 168.748 203.5 169.5C166.664 177.769 150.803 148 150.803 126.667Z" fill="#97B5D6"/>
<path d="M250.241 126.753C251.745 79.9334 292.217 72.2098 306.5 89.5C301.454 86.5616 297.851 83.0309 283.434 84.5C269.017 85.9691 258.743 108.693 258.545 128.079C258.379 144.313 267.224 161.778 278.5 166C289.776 170.222 302.121 165.04 308.128 161.122C300.611 169.392 292.084 171.44 283.434 171.44C269.037 171.44 249.204 159.057 250.241 126.753Z" fill="#97B5D6"/>
<path d="M454 56H462V169H454V56Z" fill="#426E9F"/>
<path d="M518.36 121.783H525.5V169.5H518.36V121.783Z" fill="#426E9F"/>
<path d="M518.36 56H526.5V99.9825H518.36V56Z" fill="#426E9F"/>
<path d="M365.5 109.5L357 92.5L368.5 103.741C377.205 99.732 393.917 91.0139 400 98.5C406.083 105.986 407 116 407 116C388.309 115.499 357.241 122.535 364 149.598C370.759 176.661 390 167.5 404.5 160C391.5 174.5 360 178.5 354.23 149.598C349.233 124.566 375.214 113.514 401.59 113.514C401.525 112.762 401.558 109.004 396.328 103.741C391.099 98.4791 374.461 105.24 365.5 109.5Z" fill="#97B5D6"/>
<path d="M669 99.4992C677.5 86 705.999 71.0001 732 89.9999C714.5 79.5002 698.963 83.4999 687.499 89.9999C676.036 96.4999 669.499 109.5 669.499 126C669.499 142.5 676.5 159.038 689.253 165.38C702.007 171.722 717.999 169.361 732.999 160.999C725.499 168.999 705.499 175.499 687.499 167.999C679.243 164.558 670.668 157.621 666 146C660.491 132.286 660.5 112.998 669 99.4992Z" fill="#426E9F"/>
<path d="M407 169L405 160L408 162L411 169H407Z" fill="#97B5D6"/>
<path d="M312 87.9545L306.622 90.2097L306.622 77.5L306.622 47.5H312V87.9545Z" fill="#97B5D6"/>
<path d="M208.5 126C209.101 112.769 201.87 105 196.5 102C213.5 107.5 214 132.5 208.143 142.832C202.287 153.164 191.262 153.51 186 149C199.531 153.51 207.748 142.538 208.5 126Z" fill="#97B5D6"/>
<path d="M311 169L309.496 160.731L313.5 162.5L315 169H311Z" fill="#97B5D6"/>
<path d="M306.5 142.5V107.5L310 110.5V138.5L306.5 142.5Z" fill="#97B5D6"/>
<path d="M402.245 144.255L402 129H406.5V140.5L402.245 144.255Z" fill="#97B5D6"/>
<path d="M579.891 110L571.391 93L582.892 104.241C591.597 100.232 608.308 91.5139 614.392 99C620.475 106.486 621.392 116.5 621.392 116.5C602.701 115.999 571.632 123.035 578.392 150.098C585.151 177.161 604.391 168 618.891 160.5C605.891 175 574.391 179 568.622 150.098C563.624 125.066 589.606 114.014 615.982 114.014C615.917 113.262 615.949 109.504 610.72 104.241C605.49 98.9791 588.853 105.74 579.891 110Z" fill="#426E9F"/>
<path d="M621.5 169L619.5 160L623 162L626 169H621.5Z" fill="#426E9F"/>
<path d="M617 144V129H621.5V140.5L617 144Z" fill="#426E9F"/>
</svg>
