<svg width="26" height="29" viewBox="0 0 26 29" fill="none" xmlns="http://www.w3.org/2000/svg">
<rect y="0.0378418" width="10.4" height="28.4243" rx="5.2" fill="#4470BF"/>
<rect x="15.6001" y="0.0378418" width="10.4" height="28.4243" rx="5.2" fill="#4470BF"/>
<path d="M0 4.5598C0 0.425354 3.46667 -0.177585 5.2 0.0377502C3.25 1.32987 1.95016 1.97587 1.95 3.91389C1.94988 5.42517 1.94995 15.186 1.94998 20.3303L1.95 23.2942C1.95 25.2322 2.6 27.8161 4.55 28.4621C0.91 28.4621 0 25.4475 0 23.9401V4.5598Z" fill="#315EAE"/>
<path d="M15.6001 4.59764C15.6001 0.463196 19.0668 -0.139744 20.8001 0.075592C18.8501 1.36771 17.5503 2.01371 17.5501 3.95173C17.55 5.46301 17.55 15.2238 17.5501 20.3681L17.5501 23.332C17.5501 25.2701 18.2001 27.854 20.1501 28.5C16.5101 28.5 15.6001 25.4853 15.6001 23.9779V4.59764Z" fill="#315EAE"/>
</svg>
