<svg width="1152" height="614" viewBox="0 0 1152 614" fill="none" xmlns="http://www.w3.org/2000/svg">
<rect width="1152" height="403" fill="#50A9DD"/>
<path d="M107.325 234.638C113.648 219.76 116.282 182.702 76.2384 153.488C50.5358 134.737 22.0113 132.814 0 136.345V518.996C17.004 525.116 36.0793 530.491 53.8895 532.354C92.6686 536.412 152.681 502.654 162.561 477.944C182.582 482.677 212.505 525.589 270.134 532.354C335.446 540.022 368.135 521.196 395.534 513.082C400.627 513.082 420.087 515.922 457.18 527.283C494.273 538.644 535.862 522.549 552.02 513.082C561.153 517.815 586.9 527.283 616.827 527.283C646.755 527.283 708.33 517.815 735.377 513.082C754.697 517.815 805.032 529.007 851.82 535.905C898.608 542.802 940.162 533.031 955.09 527.283C967.911 532.355 999.876 543.107 1025.17 545.541C1050.46 547.976 1096.12 540.131 1115.79 535.905C1115.79 535.905 1138.18 537.694 1152 535.8V276.5C1130.08 287.455 1130.72 297.021 1131.6 300.572C1118.43 292.119 1085.97 278.053 1061.52 289.414C1037.07 300.774 1027.1 327.96 1025.17 340.132C1017.97 335.567 998.822 329.177 979.854 340.132C960.886 351.087 955.442 373.437 955.09 383.243C951.227 377.833 940.654 368.94 929.273 376.649C917.892 384.358 909.427 394.739 906.617 398.965C899.767 390.85 881.747 375.026 864.465 376.649C847.183 378.272 837.594 392.203 834.96 398.965C830.393 395.415 815.675 388.314 793.335 388.314C770.995 388.314 759.087 407.249 755.926 416.717C751.36 410.799 735.904 400.791 710.614 408.095C685.323 415.398 684.972 433.792 687.957 442.076C650.021 428.28 624.731 436.328 616.827 442.076C610.856 436.835 593.644 426.15 572.568 425.339C551.493 424.527 532.876 436.159 526.202 442.076C516.507 433.149 501.087 430.918 494.589 430.918C494.94 426.691 492.376 416.209 479.309 408.095C466.242 399.98 453.14 404.713 448.223 408.095C447.52 405.051 444.007 398.965 435.577 398.965C427.147 398.965 421.527 405.051 419.77 408.095C418.892 404.037 414.818 394.401 405.544 388.314C396.271 382.228 387.63 385.778 384.469 388.314C387.63 376.649 378.146 353.826 361.286 340.132C347.797 329.177 319.486 335.567 307.016 340.132C307.192 337.089 305.962 328.568 299.64 318.83C293.317 309.092 277.335 310.039 270.134 311.73C271.89 308.687 272.241 300.064 259.596 289.921C246.951 279.777 229.036 281.975 221.66 284.342C221.133 276.565 213.651 257.157 187.939 241.738C162.227 226.32 134.372 238.695 123.658 246.81C121.972 237.884 112.067 234.976 107.325 234.638Z" fill="#E1DDDD"/>
<path d="M140.607 416.473C176.282 483.432 83.9661 522.839 54.9871 520.205C39.006 518.752 18.1732 512.114 0 504.395V467.959C15.6174 476.589 33.6364 483.581 51.1452 485.628C84.954 489.579 140.607 464.223 140.607 416.473Z" fill="#D1D1D1"/>
<path d="M87.9179 239.001C92.1257 222.536 93.4064 184.227 64.8665 162.712C43.955 146.948 18.2307 149.472 0 155.474V163.342C16.2555 163.453 37.9724 163.844 52.2431 173.689C76.3922 190.35 84.259 222.902 87.9179 239.001Z" fill="#D1D1D1"/>
<path d="M176.831 251.271C156.194 241.611 134.935 260.784 126.886 271.578C137.314 268.285 161.353 262.687 174.086 266.639C186.819 270.59 205.004 289.873 212.505 299.02C209.212 287.129 197.467 260.931 176.831 251.271Z" fill="#D1D1D1"/>
<path d="M1067.91 529.403C1098.06 527.842 1128.24 514.551 1144.99 507.288V493.229C1127.67 503.311 1090.52 516.581 1055.35 518.922C1020.18 521.264 962.286 506.238 962.286 477.944C953.722 518.922 1037.77 530.964 1067.91 529.403Z" fill="#D1D1D1"/>
<path d="M708.5 415.5C690.5 425.9 692 437.5 695 442C696.833 438.167 703.5 428.5 715.5 420.5C727.5 412.5 745.833 417.167 753.5 420.5C746 414.5 726.5 405.1 708.5 415.5Z" fill="#D1D1D1"/>
<path d="M570.5 432C551.7 432.8 536 440.667 530.5 444.5C538.167 442.167 557.3 437.5 572.5 437.5C587.7 437.5 605.833 442.167 613 444.5C606.667 440 589.3 431.2 570.5 432Z" fill="#D1D1D1"/>
<path d="M354.5 358.5C342.9 344.1 316 352.5 304 358.5C314.667 355.856 338.2 353.554 347 365.5C355.8 377.446 358 392.144 358 398C361.667 390.833 366.1 372.9 354.5 358.5Z" fill="#D1D1D1"/>
<path d="M278.5 523.5C244 518.073 201.5 487 175 458.5C199.5 469.833 251.7 498.2 278.5 507C305.3 515.8 363.833 507.167 388 503.5C360.667 511 323 530.5 278.5 523.5Z" fill="#D1D1D1"/>
<path d="M477.5 524.5C444.3 523.3 418.667 509.667 410 503C422.667 506.667 453.9 514.4 477.5 516C501.1 517.6 531.333 511 543.5 507.5C535.333 513.667 510.7 525.7 477.5 524.5Z" fill="#D1D1D1"/>
<path d="M1070.5 298C1041.3 312 1035 334.833 1035.5 344.5C1042.67 337.333 1056.4 320 1074 308C1091.6 296 1120.67 308.333 1130.5 316C1122.67 304.167 1099.7 284 1070.5 298Z" fill="#D1D1D1"/>
<ellipse cx="312" cy="416.5" rx="70" ry="16.5" fill="#BCBCBC"/>
<path d="M354.124 368.44L403.47 411.65C410.526 410.45 493.669 409.146 534.359 408.644C485.6 393.319 387.988 362.16 387.613 360.125C387.144 357.581 402.295 355.881 398.919 349.896C396.217 345.108 384.37 345.81 378.784 346.759L354.124 368.44Z" fill="#B6B6B6"/>
<path d="M354.991 368.302L380.117 346.702C374.122 352.697 365.129 364.776 365.129 368.302C365.129 371.829 403.921 402.686 403.921 402.686C444.476 402.98 526.997 404.537 532.639 408.417C527.35 409.739 492.084 410.18 472.688 410.18C461.051 408.769 420.231 409.592 401.276 410.18L354.991 368.302Z" fill="#929191"/>
<path d="M832.489 336.118L912.669 224.034C941.483 218.556 1009.24 220.69 1009.24 220.69C1000.83 226.302 947.419 315.714 921.764 359.718L895.247 405.612C895.925 429.022 739.37 513.57 506.074 548.863C272.777 584.155 111.952 559.209 107.514 520.319C103.076 481.429 150.457 484.703 164.209 463.197C177.96 441.692 207.513 419.679 246.084 409.638C284.655 399.598 373.2 401.976 410.996 402.523C448.792 403.07 542.073 379.375 593.752 371.463C635.096 365.134 770.137 345.262 832.489 336.118Z" fill="#C4C4C4"/>
<path d="M730.526 311.316L827.425 338.192L759.788 349.687L730.526 311.316Z" fill="#B6B6B6"/>
<path d="M134.399 511.722C126.994 507.49 124.853 493.231 125 487.5C116 491.5 106.34 502.499 107.51 519.216C109 540.5 146.155 549.338 163.934 554.04C223.742 569.857 369.382 569.212 523.64 547.428C684.135 524.763 896.57 442.514 896.57 401.959C811.199 426.939 628.609 494.442 555.963 511.722C465.155 533.322 246.367 539.053 209.338 535.526C172.31 532 143.657 517.012 134.399 511.722Z" fill="#AAAAAA"/>
<path d="M268.11 487.477C227.348 485.057 179.947 473.077 166.722 461.91C167.751 460.441 168.133 458.295 175.539 450.89C182.944 443.484 188.469 439.134 193.171 436.343C205.073 445.6 223.588 456.179 263.261 458.824C302.934 461.469 355.832 465.73 376.551 458.824V480.424C376.551 480.424 310.786 490.011 268.11 487.477Z" fill="#8A8A8A"/>
<path d="M367.294 479.543C359.506 482.481 309.123 488.359 273.152 488.359C229.782 487.665 168.045 468.963 165.4 461.91C165.4 461.91 166.088 460.147 170.69 455.738C176.42 461.469 210.556 472.489 239.65 479.543C262.925 485.185 347.016 481.894 367.294 479.543Z" fill="#797979"/>
<path d="M913.905 241.943C908.968 246.88 862.624 313.355 840.73 345.094L846.46 353.469L919.636 247.233L951.815 233.567C941.236 234.302 918.842 237.006 913.905 241.943Z" fill="#DCDCDC"/>
<path d="M902.444 366.253L907.293 384.326L1007.8 221.224H993.693L902.444 366.253Z" fill="#B1B1B1"/>
<rect x="439.587" y="457.22" width="16.751" height="14.9877" transform="rotate(-14.3 439.587 457.22)" fill="#9F9F9F"/>
<rect x="480.142" y="449.285" width="16.751" height="14.9877" transform="rotate(-14.3 480.142 449.285)" fill="#9F9F9F"/>
<rect x="520.697" y="438.706" width="16.751" height="14.9877" transform="rotate(-14.3 520.697 438.706)" fill="#9F9F9F"/>
<rect x="561.262" y="426.346" width="16.751" height="14.9877" transform="rotate(-14.2 561.262 426.346)" fill="#9F9F9F"/>
<rect x="601.817" y="416.648" width="16.751" height="14.9877" transform="rotate(-14.2 601.817 416.648)" fill="#9F9F9F"/>
<rect x="641.49" y="409.595" width="16.751" height="14.9877" transform="rotate(-14.2 641.49 409.595)" fill="#9F9F9F"/>
<rect x="681.163" y="401.66" width="16.751" height="14.9877" transform="rotate(-14.2 681.163 401.66)" fill="#9F9F9F"/>
<rect x="720.837" y="394.607" width="16.751" height="14.9877" transform="rotate(-14.2 720.837 394.607)" fill="#9F9F9F"/>
<rect x="758.747" y="387.554" width="16.751" height="14.9877" transform="rotate(-14.2 758.747 387.554)" fill="#9F9F9F"/>
<path d="M443.114 471.597L439.587 457.491H440.469L444.877 468.511L459.424 465.866V467.189L443.114 471.597Z" fill="#898989"/>
<path d="M483.669 463.662L480.142 449.556H481.024L485.432 460.577L499.979 457.932V459.254L483.669 463.662Z" fill="#898989"/>
<path d="M524.224 453.083L520.697 438.977H521.579L525.987 449.997L540.534 447.352V448.675L524.224 453.083Z" fill="#898989"/>
<path d="M564.779 440.74L561.253 426.634H562.134L566.542 437.654L581.089 435.009V436.332L564.779 440.74Z" fill="#898989"/>
<path d="M605.334 430.16L601.808 416.054H602.689L607.097 427.075L621.644 424.43V425.752L605.334 430.16Z" fill="#898989"/>
<path d="M645.008 423.989L641.481 409.883H642.363L646.771 420.903L661.318 418.258V419.581L645.008 423.989Z" fill="#898989"/>
<path d="M684.681 416.054L681.154 401.948H682.036L686.444 412.968L700.991 410.324V411.646L684.681 416.054Z" fill="#898989"/>
<path d="M724.354 409.883L720.828 395.777H721.71L726.118 406.797L740.665 404.152V405.475L724.354 409.883Z" fill="#898989"/>
<path d="M762.265 401.948L758.738 387.842H759.62L764.028 398.862L778.575 396.217V397.54L762.265 401.948Z" fill="#898989"/>
<path d="M881.77 376.565L847.146 388.551L864.422 415.689L982.952 432.155L1012.47 417.115L881.77 376.565Z" fill="#C1C1C1"/>
<path d="M863.652 415.624L847.342 388.734L853.528 386.672L869.839 406.95L976.942 424.441L1012.65 416.947L982.232 432.375L863.652 415.624Z" fill="#9E9E9E"/>
<path d="M881.726 375.951L1011.33 416.947L1009.56 417.828L881.726 379.918H872.909L881.726 375.951Z" fill="#9E9E9E"/>
<path d="M208.6 433.689C208.6 420.689 296.496 401.4 350.809 408.948C308.658 410.905 224.935 418.592 227.257 433.689C229.579 448.785 320.129 450.462 362.004 442.495C352.468 458.849 208.6 459.268 208.6 433.689Z" fill="#CDCDCD"/>
<path d="M573.351 382.248C558.209 386.256 456.073 402.846 412.464 411.753L426.939 418.433C434.51 416.206 706.403 368.887 803.826 346.062C733.31 356.454 588.493 378.239 573.351 382.248Z" fill="#DCDCDC"/>
<path d="M754.79 587.667C732.691 588.858 564.881 522.121 488.224 492.871C508.251 490.672 560.328 491.493 596.068 481.65C608.842 483.645 791.188 555.975 800.285 556.378C809.382 556.781 837.991 549.863 838.998 555.755C840.005 561.647 782.413 586.179 754.79 587.667Z" fill="#B6B6B6"/>
<path d="M839.157 556.913C835.668 562.865 768.343 591.953 745.589 588.669C724.124 587.238 564.668 525.801 488.253 492.431L508.193 491.552C513.518 496.501 663.681 549.337 744.328 574.447C762.244 577.409 824.32 560.783 825.786 558.672C826.959 556.983 812.366 556.746 809.16 556.238C820.831 553.482 839.538 551.195 839.157 556.913Z" fill="#929191"/>
<path d="M325.844 432.254C319.872 432.899 313 431.985 310.31 431.447L296.591 429.631C292.758 428.689 283.8 426.564 278.636 425.596C273.471 424.628 266.128 424.251 263.101 424.184C262.025 424.117 259.833 421.844 259.672 413.29C259.51 404.736 262.971 396.276 264.721 393.115C264.755 386.738 266.378 376.882 268.548 372.134C271.776 365.073 274.999 354.806 279.437 345.526C273.385 336.044 280.653 305.558 311.722 308.181C336.577 310.279 338.756 337.635 328.87 347.723C334.116 351.556 345.713 362.619 350.255 393.115C351.667 402.597 350.255 408.784 350.255 413.29C351.735 414.097 354.492 416.074 353.685 417.526C352.878 418.979 348.507 420.149 346.422 420.552C342.051 424.184 331.816 431.608 325.844 432.254Z" fill="#D3CEC8"/>
<path d="M311.538 308.181C336.393 310.279 338.572 337.635 328.686 347.723C324.845 349.68 313.934 353.192 300.417 350.368C279.638 349.964 278 344.136 277.218 342.096C276.815 332.21 280.469 305.558 311.538 308.181Z" fill="#5D5855"/>
<path d="M301.944 436.513C294.681 436.19 294.345 423.735 295.084 417.549C294.345 416.54 293.309 413.231 295.084 408.067C297.826 409.365 298.622 412.588 298.711 414.506C298.75 412.398 299.3 408.58 301.338 406.251C302.75 408.067 304.163 411.496 304.163 415.733C304.324 412.344 306.247 408.672 307.189 407.26C308.198 407.394 310.417 408.753 311.224 413.11C312.232 418.557 311.022 436.916 301.944 436.513Z" fill="#5C5753"/>
<path d="M267.646 422.592C268.776 415.168 262.2 403.225 257.357 402.014C256.148 404.839 257.762 409.277 257.762 409.277C256.955 408.201 254.372 402.256 252.112 400.804C251.507 403.426 253.525 409.008 253.928 410.084C253.928 410.084 254.251 414.401 253.928 419.566C253.525 426.022 257.357 429.653 259.778 429.653C262.199 429.653 266.234 431.872 267.646 422.592Z" fill="#5C5753"/>
<path d="M323.59 338.684C322.783 350.788 312.696 351.999 292.925 349.981L288.487 348.771C288.487 348.771 282.61 346.929 280.5 343.5C278.39 340.071 281 330.816 282.232 326.983C283.465 323.149 285.5 321 288 321.5C290.5 322 290.43 325.476 289.899 328.395C289.508 330.544 287.679 331.623 287.478 333.438C287.276 335.254 288.083 337.877 293.53 338.684C298.977 339.491 303.819 337.877 303.819 335.658C303.819 334.725 302.407 334.649 302.811 330.816C303.214 326.983 305.635 322.343 311.687 322.343C317.74 322.343 324.397 326.579 323.59 338.684Z" fill="#FEFEFE"/>
<path d="M268.823 400.804C276.086 396.123 278.709 376.527 279.112 367.314H270.639C267.68 372.896 263.175 387.408 268.823 400.804Z" fill="#C5C0BB"/>
<path d="M299.729 407.349C296.179 392.339 306.454 374.196 312.036 367L327.166 371.438C325.418 380.786 315.263 395.85 299.729 407.349Z" fill="#C5C0BB"/>
<path d="M314 389C317.6 385.8 323.833 376 326.5 371.5H327C324.5 381 316 395.5 299.5 407L299 404C302.5 400.167 310.4 392.2 314 389Z" fill="#B3ADA8"/>
<path d="M321 332C323 337.6 320.658 346.5 316 349C322.5 348.5 324 339.5 323.5 334.5C323.1 330.5 321 325.5 317 323.5C317.5 324 319 326.4 321 332Z" fill="#E2E2E2"/>
<path d="M287 335.5C289.333 333.833 293 330 295 330C297 330 298.333 332.5 299.5 334L287 335.5Z" fill="#8A8988"/>
<path d="M287 335.5C289.333 337.167 294.106 337 295 337C296.5 337 298.333 335.5 299.5 334L287 335.5Z" fill="#747474"/>
<path d="M327.5 322C330.5 327.5 329 338.167 329 347.5C331.167 345.167 335.1 337.6 333.5 326C331.9 314.4 321 309 313 308.5C314.333 309.5 324.5 316.5 327.5 322Z" fill="#4F4A47"/>
<ellipse cx="312.5" cy="332" rx="1.5" ry="2" fill="#0A0A0A"/>
<ellipse cx="285" cy="328.5" rx="1" ry="1.5" transform="rotate(10 285 328.5)" fill="#0A0A0A"/>
<path d="M354 417.5C352.8 419.1 348.5 420.167 346.5 420.5C347 419.833 348.2 418.2 349 417C349.8 415.8 350.333 414.167 350.5 413.5C352.167 414.167 355.2 415.9 354 417.5Z" fill="#918A83"/>
<path d="M354.5 417C354.1 417.8 351.667 419 350.5 419.5C351.333 419 353.1 417.8 353.5 417C353.9 416.2 352.333 414.667 351.5 414C352.667 414.667 354.9 416.2 354.5 417Z" fill="#76726D"/>
<path d="M348.5 382.5C345.3 364.9 334.167 352.167 329 348C330.333 352.167 335.696 360.134 338.5 368.5C343.503 383.426 343.501 401.551 343.5 408.739L343.5 409C343.5 414.6 331.5 427 325.5 432.5C330.5 431.5 339.4 426.4 345 422C352 416.5 352.5 404.5 348.5 382.5Z" fill="#C1BAB1"/>
<path d="M309 422C309.8 418.4 308.5 410.833 307.5 407.5C310.5 408.5 312.5 412.5 311 424.5C309.8 434.1 304.667 436.667 302 436.5C304.5 436.5 308 426.5 309 422Z" fill="#474441"/>
<path d="M304 415.5C304 411.1 302.333 407.667 301.5 406.5L300.5 407.5C301.5 408 302.5 412.5 304 415.5Z" fill="#474441"/>
<path d="M265 418C265 412.4 260 405 257.5 402C260.5 402.333 267.016 410.219 267.5 417C268.3 428.2 263.167 430 260.5 429.5C262 428 265 423.6 265 418Z" fill="#4A4642"/>
<path d="M257.5 409.5C257.1 407.5 254.5 402.5 252 401V403C253 404.667 255.5 408.3 257.5 409.5Z" fill="#4A4642"/>
<path d="M307.277 323.568C307.354 323.54 307.429 323.518 307.5 323.5C307.428 323.521 307.354 323.543 307.277 323.568C305.928 324.049 303.78 326.034 303 330.5C302 333.5 303.5 334 303.5 336C303.189 337.459 299 338.5 294 338.5C292.986 338.5 299.1 337.4 299.5 333C300.275 327.185 304.871 324.344 307.277 323.568Z" fill="#4F4A47"/>
<path d="M268.5 399C271.3 397 275.667 377.167 277.5 367.5H279C279.167 369.167 278.6 374.5 277 382.5C275.4 390.5 272 398.5 269 401L268.5 399Z" fill="#B2ADA8"/>
<path d="M1100 122.5C1009.16 194.495 975.667 293.333 931 366.5C956.5 351 1059 264.5 1084.5 250C1104.9 238.4 1138.33 233.833 1152.5 233V86C1146.67 90 1119.57 106.99 1100 122.5Z" fill="url(#paint0_linear)" fill-opacity="0.36"/>
<defs>
<linearGradient id="paint0_linear" x1="1058" y1="257.5" x2="931" y2="381.5" gradientUnits="userSpaceOnUse">
<stop stop-color="#DCDCDC"/>
<stop offset="1" stop-color="#DCDCDC" stop-opacity="0"/>
</linearGradient>
</defs>
</svg>
