<svg width="26" height="29" viewBox="0 0 26 29" fill="none" xmlns="http://www.w3.org/2000/svg">
<path d="M22.7908 16.1507C24.1796 15.3984 24.1893 13.4086 22.8078 12.6428L2.96964 1.64603C1.63661 0.907095 -9.53674e-07 1.87112 -9.53674e-07 3.39526V25.1377C-9.53674e-07 26.6533 1.61996 27.6181 2.95256 26.8963L22.7908 16.1507Z" fill="#4470BF"/>
<path d="M0 25.7874L0 3.03736C0 2.13989 0.727537 1.41236 1.625 1.41236C2.52246 1.41236 3.25 2.13989 3.25 3.03736L3.25 25.7874C3.25 26.6848 2.52246 27.4124 1.625 27.4124C0.727537 27.4124 0 26.6848 0 25.7874Z" fill="#315EAE"/>
</svg>
