<svg width="344" height="259" viewBox="0 0 344 259" fill="none" xmlns="http://www.w3.org/2000/svg">
<circle cx="222" cy="7" r="5" fill="#BCCEE3"/>
<circle cx="239" cy="19" r="5" fill="#BCCEE3"/>
<circle cx="253" cy="36" r="5" fill="#BCCEE3"/>
<path d="M41.6711 254.72C40.4178 254.72 39.1778 254.48 37.9511 254C36.7511 253.52 35.6311 252.853 34.5911 252L36.5111 249.12C37.2578 249.733 38.0711 250.24 38.9511 250.64C39.8311 251.067 40.7778 251.28 41.7911 251.28C43.2844 251.28 44.4844 250.84 45.3911 249.96C46.3244 249.107 46.9911 247.893 47.3911 246.32L48.3911 242.52C47.4578 243.48 46.4444 244.24 45.3511 244.8C44.2844 245.333 43.1644 245.6 41.9911 245.6C40.3378 245.6 38.9644 245.027 37.8711 243.88C36.8044 242.707 36.2711 240.973 36.2711 238.68C36.2711 236.893 36.5511 235.227 37.1111 233.68C37.6978 232.133 38.4711 230.787 39.4311 229.64C40.3911 228.467 41.4844 227.547 42.7111 226.88C43.9644 226.213 45.2578 225.88 46.5911 225.88C47.5511 225.88 48.4178 226.133 49.1911 226.64C49.9911 227.12 50.6044 227.787 51.0311 228.64H51.1511L51.9911 226.36H55.4711L51.4711 246.28C50.9111 249.053 49.7911 251.147 48.1111 252.56C46.4311 254 44.2844 254.72 41.6711 254.72ZM43.5511 242.04C44.3244 242.04 45.1644 241.813 46.0711 241.36C47.0044 240.88 47.8578 240.12 48.6311 239.08L50.1111 231.8C49.6578 230.947 49.1511 230.333 48.5911 229.96C48.0311 229.587 47.4444 229.4 46.8311 229.4C46.0311 229.4 45.2578 229.64 44.5111 230.12C43.7911 230.573 43.1378 231.2 42.5511 232C41.9911 232.8 41.5378 233.733 41.1911 234.8C40.8711 235.84 40.7111 236.947 40.7111 238.12C40.7111 239.453 40.9644 240.44 41.4711 241.08C42.0044 241.72 42.6978 242.04 43.5511 242.04ZM58.5145 238.16C58.5145 236.32 58.8212 234.653 59.4345 233.16C60.0745 231.64 60.9012 230.347 61.9145 229.28C62.9545 228.187 64.1145 227.347 65.3945 226.76C66.6745 226.173 67.9545 225.88 69.2345 225.88C70.3812 225.88 71.3412 226.067 72.1145 226.44C72.9145 226.813 73.5545 227.333 74.0345 228C74.5412 228.64 74.9012 229.4 75.1145 230.28C75.3545 231.16 75.4745 232.107 75.4745 233.12C75.4745 233.973 75.3679 234.8 75.1545 235.6C74.9412 236.4 74.7679 236.96 74.6345 237.28H62.6745C62.5679 238.32 62.6212 239.213 62.8345 239.96C63.0479 240.707 63.3679 241.32 63.7945 241.8C64.2479 242.28 64.7945 242.64 65.4345 242.88C66.0745 243.093 66.7679 243.2 67.5145 243.2C68.2079 243.2 68.9145 243.04 69.6345 242.72C70.3545 242.4 70.9812 242.04 71.5145 241.64L73.1145 244.4C72.3145 244.96 71.3412 245.453 70.1945 245.88C69.0745 246.28 67.8079 246.48 66.3945 246.48C65.2212 246.48 64.1545 246.293 63.1945 245.92C62.2345 245.547 61.4079 245.013 60.7145 244.32C60.0212 243.6 59.4745 242.733 59.0745 241.72C58.7012 240.68 58.5145 239.493 58.5145 238.16ZM63.0345 234.56H71.7145C71.7679 234.293 71.8079 234.027 71.8345 233.76C71.8879 233.467 71.9145 233.16 71.9145 232.84C71.9145 231.88 71.6745 231.04 71.1945 230.32C70.7412 229.573 69.9145 229.2 68.7145 229.2C67.5145 229.2 66.3812 229.68 65.3145 230.64C64.2745 231.573 63.5145 232.88 63.0345 234.56ZM78.4058 246L82.3258 226.36H85.8058L85.6058 229.12H85.7658C86.8058 228.24 87.8724 227.48 88.9658 226.84C90.0858 226.2 91.2724 225.88 92.5258 225.88C94.1791 225.88 95.3658 226.307 96.0858 227.16C96.8058 228.013 97.1658 229.24 97.1658 230.84C97.1658 231.293 97.1391 231.733 97.0858 232.16C97.0591 232.587 96.9791 233.067 96.8458 233.6L94.3658 246H90.0858L92.4858 234.16C92.5658 233.707 92.6324 233.32 92.6858 233C92.7658 232.68 92.8058 232.373 92.8058 232.08C92.8058 230.4 91.9791 229.56 90.3258 229.56C89.6324 229.56 88.8858 229.8 88.0858 230.28C87.3124 230.76 86.4058 231.533 85.3658 232.6L82.7258 246H78.4058ZM101.208 238.16C101.208 236.32 101.515 234.653 102.128 233.16C102.768 231.64 103.595 230.347 104.608 229.28C105.648 228.187 106.808 227.347 108.088 226.76C109.368 226.173 110.648 225.88 111.928 225.88C113.075 225.88 114.035 226.067 114.808 226.44C115.608 226.813 116.248 227.333 116.728 228C117.235 228.64 117.595 229.4 117.808 230.28C118.048 231.16 118.168 232.107 118.168 233.12C118.168 233.973 118.062 234.8 117.848 235.6C117.635 236.4 117.462 236.96 117.328 237.28H105.368C105.262 238.32 105.315 239.213 105.528 239.96C105.742 240.707 106.062 241.32 106.488 241.8C106.942 242.28 107.488 242.64 108.128 242.88C108.768 243.093 109.462 243.2 110.208 243.2C110.902 243.2 111.608 243.04 112.328 242.72C113.048 242.4 113.675 242.04 114.208 241.64L115.808 244.4C115.008 244.96 114.035 245.453 112.888 245.88C111.768 246.28 110.502 246.48 109.088 246.48C107.915 246.48 106.848 246.293 105.888 245.92C104.928 245.547 104.102 245.013 103.408 244.32C102.715 243.6 102.168 242.733 101.768 241.72C101.395 240.68 101.208 239.493 101.208 238.16ZM105.728 234.56H114.408C114.462 234.293 114.502 234.027 114.528 233.76C114.582 233.467 114.608 233.16 114.608 232.84C114.608 231.88 114.368 231.04 113.888 230.32C113.435 229.573 112.608 229.2 111.408 229.2C110.208 229.2 109.075 229.68 108.008 230.64C106.968 231.573 106.208 232.88 105.728 234.56ZM121.1 246L125.02 226.36H128.5L128.14 230.16H128.3C129.073 228.933 129.98 227.92 131.02 227.12C132.06 226.293 133.18 225.88 134.38 225.88C135.153 225.88 135.806 226 136.34 226.24L134.9 230C134.66 229.867 134.38 229.787 134.06 229.76C133.74 229.707 133.406 229.68 133.06 229.68C132.126 229.68 131.206 230.04 130.3 230.76C129.393 231.48 128.54 232.6 127.74 234.12L125.42 246H121.1ZM142.16 246.48C140.427 246.48 139.053 245.867 138.04 244.64C137.053 243.413 136.56 241.64 136.56 239.32C136.56 237.453 136.853 235.707 137.44 234.08C138.027 232.427 138.813 231 139.8 229.8C140.787 228.573 141.907 227.613 143.16 226.92C144.44 226.227 145.76 225.88 147.12 225.88C148.08 225.88 148.96 226.133 149.76 226.64C150.56 227.12 151.187 227.787 151.64 228.64H151.72L152.56 226.36H156L152.08 246H148.56L148.76 243.28H148.64C147.707 244.24 146.667 245.013 145.52 245.6C144.4 246.187 143.28 246.48 142.16 246.48ZM143.92 242.96C144.773 242.96 145.64 242.707 146.52 242.2C147.427 241.693 148.28 240.84 149.08 239.64L150.68 231.8C150.227 230.947 149.707 230.333 149.12 229.96C148.56 229.587 147.973 229.4 147.36 229.4C146.533 229.4 145.733 229.653 144.96 230.16C144.187 230.64 143.507 231.307 142.92 232.16C142.333 233.013 141.867 234.013 141.52 235.16C141.173 236.28 141 237.467 141 238.72C141 240.16 141.253 241.227 141.76 241.92C142.293 242.613 143.013 242.96 143.92 242.96ZM165.478 246.48C163.638 246.48 162.318 246.027 161.518 245.12C160.745 244.187 160.358 243.04 160.358 241.68C160.358 241.28 160.385 240.893 160.438 240.52C160.491 240.147 160.545 239.76 160.598 239.36L162.598 229.76H159.838L160.478 226.56L163.478 226.36L165.038 221.08H168.638L167.598 226.36H172.318L171.638 229.76H166.838L164.838 239.52C164.758 240 164.718 240.467 164.718 240.92C164.718 241.64 164.891 242.187 165.238 242.56C165.585 242.907 166.171 243.08 166.998 243.08C167.345 243.08 167.665 243.027 167.958 242.92C168.251 242.813 168.545 242.693 168.838 242.56L169.638 245.6C169.158 245.813 168.571 246.013 167.878 246.2C167.185 246.387 166.385 246.48 165.478 246.48ZM173.226 246L177.186 226.36H181.466L177.546 246H173.226ZM180.346 222.88C179.733 222.88 179.173 222.693 178.666 222.32C178.159 221.92 177.906 221.36 177.906 220.64C177.906 219.867 178.186 219.213 178.746 218.68C179.306 218.12 179.986 217.84 180.786 217.84C181.399 217.84 181.959 218.04 182.466 218.44C182.973 218.813 183.226 219.36 183.226 220.08C183.226 220.88 182.946 221.547 182.386 222.08C181.826 222.613 181.146 222.88 180.346 222.88ZM184.065 246L187.985 226.36H191.465L191.265 229.12H191.425C192.465 228.24 193.532 227.48 194.625 226.84C195.745 226.2 196.932 225.88 198.185 225.88C199.838 225.88 201.025 226.307 201.745 227.16C202.465 228.013 202.825 229.24 202.825 230.84C202.825 231.293 202.798 231.733 202.745 232.16C202.718 232.587 202.638 233.067 202.505 233.6L200.025 246H195.745L198.145 234.16C198.225 233.707 198.292 233.32 198.345 233C198.425 232.68 198.465 232.373 198.465 232.08C198.465 230.4 197.638 229.56 195.985 229.56C195.292 229.56 194.545 229.8 193.745 230.28C192.972 230.76 192.065 231.533 191.025 232.6L188.385 246H184.065ZM212.348 254.72C211.094 254.72 209.854 254.48 208.628 254C207.428 253.52 206.308 252.853 205.268 252L207.188 249.12C207.934 249.733 208.748 250.24 209.628 250.64C210.508 251.067 211.454 251.28 212.468 251.28C213.961 251.28 215.161 250.84 216.068 249.96C217.001 249.107 217.668 247.893 218.068 246.32L219.068 242.52C218.134 243.48 217.121 244.24 216.028 244.8C214.961 245.333 213.841 245.6 212.668 245.6C211.014 245.6 209.641 245.027 208.548 243.88C207.481 242.707 206.948 240.973 206.948 238.68C206.948 236.893 207.228 235.227 207.788 233.68C208.374 232.133 209.148 230.787 210.108 229.64C211.068 228.467 212.161 227.547 213.388 226.88C214.641 226.213 215.934 225.88 217.268 225.88C218.228 225.88 219.094 226.133 219.868 226.64C220.668 227.12 221.281 227.787 221.708 228.64H221.828L222.668 226.36H226.148L222.148 246.28C221.588 249.053 220.468 251.147 218.788 252.56C217.108 254 214.961 254.72 212.348 254.72ZM214.228 242.04C215.001 242.04 215.841 241.813 216.748 241.36C217.681 240.88 218.534 240.12 219.308 239.08L220.788 231.8C220.334 230.947 219.828 230.333 219.268 229.96C218.708 229.587 218.121 229.4 217.508 229.4C216.708 229.4 215.934 229.64 215.188 230.12C214.468 230.573 213.814 231.2 213.228 232C212.668 232.8 212.214 233.733 211.868 234.8C211.548 235.84 211.388 236.947 211.388 238.12C211.388 239.453 211.641 240.44 212.148 241.08C212.681 241.72 213.374 242.04 214.228 242.04ZM240.484 246L239.324 226.36H243.564L243.884 236.88C243.91 237.813 243.91 238.747 243.884 239.68C243.857 240.613 243.844 241.56 243.844 242.52H244.004C244.377 241.56 244.737 240.613 245.084 239.68C245.457 238.747 245.857 237.813 246.284 236.88L250.844 226.36H254.764L255.284 236.88C255.31 237.813 255.324 238.747 255.324 239.68C255.324 240.613 255.337 241.56 255.364 242.52H255.524C255.897 241.56 256.244 240.613 256.564 239.68C256.91 238.747 257.284 237.813 257.684 236.88L262.044 226.36H266.044L257.404 246H252.284L251.924 236.56C251.924 235.627 251.91 234.68 251.884 233.72C251.884 232.76 251.884 231.773 251.884 230.76H251.724C251.35 231.773 250.977 232.76 250.604 233.72C250.257 234.68 249.897 235.627 249.524 236.56L245.484 246H240.484ZM274.831 246.48C273.737 246.48 272.737 246.293 271.831 245.92C270.924 245.547 270.151 245.013 269.511 244.32C268.871 243.627 268.377 242.787 268.031 241.8C267.684 240.813 267.511 239.707 267.511 238.48C267.511 236.613 267.817 234.907 268.431 233.36C269.071 231.787 269.897 230.453 270.911 229.36C271.924 228.267 273.071 227.413 274.351 226.8C275.657 226.187 276.977 225.88 278.311 225.88C280.551 225.88 282.337 226.6 283.671 228.04C285.004 229.453 285.671 231.4 285.671 233.88C285.671 235.747 285.351 237.453 284.711 239C284.097 240.547 283.284 241.88 282.271 243C281.257 244.093 280.097 244.947 278.791 245.56C277.511 246.173 276.191 246.48 274.831 246.48ZM275.311 243C276.084 243 276.831 242.773 277.551 242.32C278.271 241.84 278.911 241.2 279.471 240.4C280.031 239.573 280.471 238.613 280.791 237.52C281.137 236.427 281.311 235.253 281.311 234C281.311 232.507 281.017 231.36 280.431 230.56C279.844 229.76 278.991 229.36 277.871 229.36C277.097 229.36 276.337 229.6 275.591 230.08C274.871 230.533 274.231 231.16 273.671 231.96C273.111 232.76 272.657 233.707 272.311 234.8C271.991 235.893 271.831 237.067 271.831 238.32C271.831 239.813 272.124 240.973 272.711 241.8C273.297 242.6 274.164 243 275.311 243ZM288.807 246L292.727 226.36H296.207L295.847 230.16H296.007C296.781 228.933 297.687 227.92 298.727 227.12C299.767 226.293 300.887 225.88 302.087 225.88C302.861 225.88 303.514 226 304.047 226.24L302.607 230C302.367 229.867 302.087 229.787 301.767 229.76C301.447 229.707 301.114 229.68 300.767 229.68C299.834 229.68 298.914 230.04 298.007 230.76C297.101 231.48 296.247 232.6 295.447 234.12L293.127 246H288.807ZM308.179 246.48C307.032 246.48 306.192 246.2 305.659 245.64C305.125 245.08 304.859 244.293 304.859 243.28C304.859 242.667 304.952 241.973 305.139 241.2L309.819 217.76H314.099L309.379 241.4C309.325 241.613 309.299 241.773 309.299 241.88C309.299 241.987 309.299 242.08 309.299 242.16C309.299 242.72 309.525 243 309.979 243C310.112 243 310.219 243 310.299 243C310.379 242.973 310.512 242.933 310.699 242.88L310.619 246.08C310.325 246.213 309.979 246.307 309.579 246.36C309.179 246.44 308.712 246.48 308.179 246.48ZM330.927 228.48L331.487 224.72L332.847 217.76H337.127L331.447 246H327.927L328.127 243.28H328.007C327.074 244.24 326.034 245.013 324.887 245.6C323.767 246.187 322.647 246.48 321.527 246.48C319.794 246.48 318.421 245.867 317.407 244.64C316.421 243.413 315.927 241.64 315.927 239.32C315.927 237.453 316.221 235.707 316.807 234.08C317.394 232.427 318.181 231 319.167 229.8C320.154 228.573 321.274 227.613 322.527 226.92C323.807 226.227 325.127 225.88 326.487 225.88C327.447 225.88 328.301 226.12 329.047 226.6C329.794 227.08 330.381 227.707 330.807 228.48H330.927ZM323.287 242.96C324.141 242.96 325.007 242.707 325.887 242.2C326.767 241.693 327.621 240.84 328.447 239.64L330.047 231.8C329.594 230.947 329.074 230.333 328.487 229.96C327.927 229.587 327.341 229.4 326.727 229.4C325.901 229.4 325.101 229.653 324.327 230.16C323.554 230.64 322.874 231.307 322.287 232.16C321.701 233.013 321.234 234.013 320.887 235.16C320.541 236.28 320.367 237.467 320.367 238.72C320.367 240.16 320.621 241.227 321.127 241.92C321.661 242.613 322.381 242.96 323.287 242.96Z" fill="#729DCE"/>
<path d="M259.558 87.5479C259.558 135.899 220.362 175.096 172.01 175.096C123.659 175.096 84.4624 135.899 84.4624 87.5479C84.4624 39.1965 123.659 0 172.01 0C220.362 0 259.558 39.1965 259.558 87.5479Z" fill="#BCCEE3"/>
<path d="M140.864 168.314C185.948 185.787 236.66 163.403 254.132 118.319C271.605 73.2354 248.194 23.1496 201.895 5.47157C229.446 28.3375 253.192 96.2872 212.922 138.461C172.653 180.634 140.864 168.314 140.864 168.314Z" fill="#ACC0D7"/>
<rect x="144.458" y="147.738" width="77.4126" height="17.4178" rx="8.70892" fill="#7290B5"/>
<rect x="161.875" y="113.547" width="59.9948" height="27.7395" rx="13.8698" fill="#7290B5"/>
<path d="M189.292 144.19C189.149 142.405 187.464 141.072 186.389 140.642H204.452C203.484 140.964 201.693 142.405 201.549 144.19C201.39 146.175 203.484 147.846 204.452 148.383H186.389C187.249 147.738 189.452 146.175 189.292 144.19Z" fill="#7290B5"/>
<rect x="139.296" y="61.939" width="43.2221" height="19.9983" rx="9.99913" fill="#7290B5"/>
<rect x="136.716" y="32.9092" width="63.2203" height="23.2238" rx="11.6119" fill="#7290B5"/>
<path d="M155.424 59.0359C155.424 57.2296 153.704 55.7029 152.844 55.1653L170.261 55.4878L170.233 55.5047C169.156 56.1509 167.438 57.1813 167.359 59.0359C167.274 61.0017 169.186 62.1539 170.261 62.9065H151.876C153.059 62.369 155.424 60.8422 155.424 59.0359Z" fill="#7290B5"/>
<rect x="161.23" y="21.2974" width="18.0629" height="7.74126" rx="3.87063" fill="#7FA3CF"/>
<mask id="mask0" mask-type="alpha" maskUnits="userSpaceOnUse" x="85" y="0" width="176" height="176">
<path d="M260.096 87.5479C260.096 135.899 220.899 175.096 172.548 175.096C124.197 175.096 85 135.899 85 87.5479C85 39.1965 124.197 0 172.548 0C220.899 0 260.096 39.1965 260.096 87.5479Z" fill="#BCCEE3"/>
</mask>
<g mask="url(#mask0)">
<rect x="86" y="39" width="18.0629" height="7.74126" rx="3.87063" fill="#7FA3CF"/>
<rect x="201.227" y="44.521" width="18.0629" height="7.74126" rx="3.87063" fill="#7FA3CF"/>
<rect x="229" y="41" width="31" height="15" rx="7.5" fill="#7FA3CF"/>
<rect x="187.034" y="80.002" width="29.6748" height="12.9021" rx="6.45105" fill="#7FA3CF"/>
<rect x="234" y="69" width="56" height="31" rx="15.5" fill="#7FA3CF"/>
<rect x="33" y="69" width="79" height="31" rx="15.5" fill="#7FA3CF"/>
<rect x="120.588" y="90.3235" width="31.6102" height="14.8374" rx="7.41871" fill="#7FA3CF"/>
<rect x="95" y="114" width="39.3514" height="7.74126" rx="3.87063" fill="#557498"/>
<rect x="104.031" y="126.902" width="56.7693" height="12.257" rx="6.1285" fill="#557498"/>
<path d="M124.675 124.322C124.675 122.773 126.18 121.526 126.933 121.096H112.418C113.278 121.741 115.082 122.711 114.998 124.322C114.92 125.836 113.278 126.687 112.418 127.225H126.933C126.18 126.902 124.675 125.87 124.675 124.322Z" fill="#557498"/>
</g>
</svg>
