<svg width="1155" height="1169" viewBox="0 0 1155 1169" fill="none" xmlns="http://www.w3.org/2000/svg">
<rect x="2" y="0.5" width="1153" height="1168" fill="#090A16"/>
<rect x="3" y="637" width="1152" height="462" fill="#13142B"/>
<path d="M56.4998 471C66.0998 447.8 87.4998 375.667 96.9998 342.5H0V767.5L8 727C12.8333 711.167 22.1998 675.6 20.9998 660C19.4998 640.5 35.4998 618 44.4998 539.5C53.4998 461 44.4998 500 56.4998 471Z" fill="url(#paint0_linear)"/>
<path d="M996.899 305.5C986.384 282.3 981.252 258.167 980 249H1155V731C1143.73 711.5 1136.97 664 1138.48 625C1132.47 603.5 1093.04 589.5 1095.29 508.5C1063.74 504.5 1018.3 429.5 1010.04 423.5C1001.78 417.5 980 357 996.899 305.5Z" fill="url(#paint1_linear)"/>
<circle cx="282" cy="469" r="50" fill="url(#paint2_radial)"/>
<circle cx="663" cy="324" r="50" fill="url(#paint3_radial)"/>
<path d="M59.2435 825.5C25.9413 785.988 17.7256 677.362 0 654V1099H190C184.1 1051.07 134.392 1038.8 132.509 997.5C130.626 956.199 92.5458 865.012 59.2435 825.5Z" fill="url(#paint4_linear)"/>
<path d="M1095.76 825.5C1129.06 785.988 1137.27 677.362 1155 654V1099H965C970.9 1051.07 1020.61 1038.8 1022.49 997.5C1024.37 956.199 1062.45 865.012 1095.76 825.5Z" fill="url(#paint5_linear)"/>
<circle cx="578.5" cy="789" r="288.5" fill="url(#paint6_radial)"/>
<path d="M539.5 743.5L501 780.181L583.78 842.5L663 780.181L625.006 743.5H539.5Z" fill="#7B2C2C"/>
<path d="M44.141 386.249C37.0247 389.091 11.7485 405.934 0 414V191.769V58.1201C38.9053 57.8497 254.104 58.1203 254.104 58.1203C254.104 58.1203 256.12 191.008 254.104 191.769C244.705 195.321 206.103 245.939 199.893 261.258C193.683 276.577 174.55 300.11 154.745 307.436C134.94 314.762 98.8556 332.967 87.2749 343.179C75.6942 353.392 53.0363 382.697 44.141 386.249Z" fill="url(#paint7_linear)"/>
<path d="M388.853 161.999C425.442 143.575 490.731 121.156 529.837 123.597V0.5H0V229.036C25.903 229.85 94.3642 230.989 144.984 229.036C208.259 226.594 243.505 187.082 265.66 192.188C287.815 197.293 352.265 180.423 388.853 161.999Z" fill="url(#paint8_linear)"/>
<path d="M1032.17 261.666C1057.55 267.704 1125.96 264.182 1155 261.666V0.5H530.837V123.597C569.944 126.039 610.561 138.692 640.268 161.999C669.975 185.307 739.46 169.546 786.287 197.293C833.114 225.04 885.48 233.919 903.774 244.796C922.069 255.673 1000.45 254.119 1032.17 261.666Z" fill="url(#paint9_linear)"/>
<path d="M889.598 131.855C876.95 125.818 852.596 20.9362 842 0H1155V230.396C1153.93 235.13 1149.28 244.955 1139.19 246.375C1126.58 248.151 1084.02 230.396 1058.63 230.396C1033.23 230.396 1011.2 191.112 992.193 186.896C976.989 183.522 951.211 173.801 940.222 169.362C930.524 172.469 906.82 169.318 889.598 131.855Z" fill="url(#paint10_linear)"/>
<rect y="0.5" width="1155" height="45" fill="black"/>
<defs>
<linearGradient id="paint0_linear" x1="48.4999" y1="342.5" x2="48.4999" y2="767.5" gradientUnits="userSpaceOnUse">
<stop/>
<stop offset="1" stop-color="#393625"/>
</linearGradient>
<linearGradient id="paint1_linear" x1="1075.39" y1="358" x2="913.551" y2="464.922" gradientUnits="userSpaceOnUse">
<stop/>
<stop offset="1" stop-color="#403C29"/>
</linearGradient>
<radialGradient id="paint2_radial" cx="0" cy="0" r="1" gradientUnits="userSpaceOnUse" gradientTransform="translate(282 469) rotate(90) scale(50)">
<stop stop-color="#C7AF63"/>
<stop offset="1" stop-color="#FEFAED" stop-opacity="0"/>
</radialGradient>
<radialGradient id="paint3_radial" cx="0" cy="0" r="1" gradientUnits="userSpaceOnUse" gradientTransform="translate(663 324) rotate(90) scale(50)">
<stop stop-color="#C7AF63"/>
<stop offset="1" stop-color="#FEFAED" stop-opacity="0"/>
</radialGradient>
<linearGradient id="paint4_linear" x1="95.3506" y1="794" x2="-66.1758" y2="1024.66" gradientUnits="userSpaceOnUse">
<stop stop-color="#383424"/>
<stop offset="1"/>
</linearGradient>
<linearGradient id="paint5_linear" x1="1059.65" y1="794" x2="1221.18" y2="1024.66" gradientUnits="userSpaceOnUse">
<stop stop-color="#383424"/>
<stop offset="1"/>
</linearGradient>
<radialGradient id="paint6_radial" cx="0" cy="0" r="1" gradientUnits="userSpaceOnUse" gradientTransform="translate(578.5 789) rotate(90) scale(288.5)">
<stop stop-color="#7B2C2C" stop-opacity="0.63"/>
<stop offset="1" stop-color="#7B2C2C" stop-opacity="0"/>
</radialGradient>
<linearGradient id="paint7_linear" x1="127.556" y1="195.645" x2="127.458" y2="414" gradientUnits="userSpaceOnUse">
<stop/>
<stop offset="1" stop-color="#403C29"/>
</linearGradient>
<linearGradient id="paint8_linear" x1="313.5" y1="146" x2="330.5" y2="251" gradientUnits="userSpaceOnUse">
<stop/>
<stop offset="1" stop-color="#443F37"/>
</linearGradient>
<linearGradient id="paint9_linear" x1="814.5" y1="127.5" x2="790.5" y2="312" gradientUnits="userSpaceOnUse">
<stop/>
<stop offset="1" stop-color="#443F37"/>
</linearGradient>
<linearGradient id="paint10_linear" x1="1016.58" y1="126.972" x2="985.967" y2="243.199" gradientUnits="userSpaceOnUse">
<stop/>
<stop offset="1" stop-color="#443F37"/>
</linearGradient>
</defs>
</svg>
