<svg width="163" height="73" viewBox="0 0 163 73" fill="none" xmlns="http://www.w3.org/2000/svg">
<path d="M33.7161 51.4042C33.9643 51.2387 36.3707 49.0599 37.5428 47.9912L68.0528 29.7886C64.0537 21.9974 55.8074 6.06323 54.8146 4.65667C53.5735 2.89847 48.6091 -0.100818 47.6783 0.00260606C46.7475 0.10603 44.1619 2.07108 38.4736 2.5882C30.7789 3.25011 28.5105 5.20826 28.3381 6.1046C26.2351 5.9667 21.8638 6.02188 16.2375 6.93201C10.6113 7.84214 6.51569 10.0002 5.17118 10.9655C5.17118 10.8966 4.96434 10.8001 4.13695 10.9655C2.96481 11.3792 0.496434 12.5376 0 13.8614C0.248217 14.8543 2.24085 17.7915 3.20613 19.136C4.13695 23.0661 6.82596 30.0989 9.20471 32.9948C10.9527 35.1228 16.5478 42.6132 20.995 45.509C22.898 48.1567 29.0965 50.5423 31.9579 51.4042L32.1648 50.7837C32.2337 50.8871 32.6405 51.156 33.7161 51.4042Z" fill="#C5B6D7"/>
<path d="M42.6105 37.5428C38.4735 32.9922 36.7153 25.132 37.5427 19.3403L38.2667 17.0649C38.3011 18.2371 38.5356 21.7397 39.1975 26.3731C39.8594 31.0065 43.6102 34.3022 45.4029 35.3709C45.1616 35.5088 44.2652 36.1363 42.6105 37.5428Z" fill="#656468"/>
<path d="M10.7559 34.7504C14.6446 40.4594 24.0975 49.8502 32.268 51.4016V50.781L33.5091 51.4016L34.5433 50.781C32.5438 49.8158 27.4484 47.2233 23.0633 44.5756C18.6781 41.928 13.0312 36.9223 10.7559 34.7504Z" fill="#B2A2C7"/>
<path d="M4.65407 18.9266C4.24038 21.1605 8.6876 30.5445 10.9629 34.9572C8.2739 32.8888 3.80599 23.8288 3.30956 19.4437C2.64765 19.03 0.82739 15.4102 0 13.652C0.930813 12.6867 3.33024 10.7975 5.48146 10.9629C6.97076 9.08114 13.2038 7.55879 16.1341 7.03284C14.6862 7.6189 11.3973 8.93583 9.82525 9.51501C8.25321 10.0942 6.27437 11.618 5.48146 12.3074C4.86091 12.5143 3.28887 13.3003 1.96505 14.7896C2.27532 15.4102 3.10272 16.2375 4.65407 18.9266Z" fill="#B2A2C7"/>
<path d="M13.3418 32.5785C12.1834 31.1719 11.756 28.407 11.687 27.2004H12.5144C12.5489 28.1313 12.7626 30.51 13.3418 32.5785Z" fill="#B2A2C7"/>
<path d="M28.4414 5.99861C29.5997 3.59918 33.8194 2.79248 36.405 2.79248C38.9906 2.79248 40.7488 2.37878 40.7488 2.37878C39.6801 2.93038 37.3151 4.03356 36.405 4.03356C35.2673 4.03356 31.0269 5.0678 29.7859 5.99861C28.793 6.74326 27.7863 9.34265 27.4071 10.5493C27.2692 10.0321 27.283 8.39804 28.4414 5.99861Z" fill="#B2A2C7"/>
<path d="M30.6132 19.5471C32.6817 7.30169 46.3336 2.99927 50.7808 5.89513L43.3343 38.3702C39.7145 43.7482 28.5447 31.7924 30.6132 19.5471Z" fill="#B2A2C7"/>
<path d="M37.3361 20.3744C38.9081 8.37728 51.2294 5.24009 57.1935 5.17114C57.814 5.51589 59.8825 5.99853 62.468 7.13619C65.0536 8.27385 68.2253 10.3423 70.3282 11.6868C68.8803 12.5142 65.7569 14.6034 63.6057 17.582C61.4545 20.5606 59.6756 24.8906 59.0551 26.6833C58.7103 27.3728 57.421 29.1241 55.0215 30.6134C52.5394 31.2753 45.9203 35.4398 42.921 37.4393C40.2664 35.9569 36.3874 27.6141 37.3361 20.3744Z" fill="#717076"/>
<path d="M71.1554 11.2732C76.6989 9.45299 82.9112 10.5148 85.3244 11.2732C82.6699 13.6865 76.4713 19.8367 72.9136 25.132C69.3558 30.4273 66.191 39.2666 65.0534 43.0243C62.778 44.4723 51.1946 46.3339 47.0577 45.8168C45.2995 46.4373 35.7845 49.6434 36.7153 45.1962C38.4735 38.4737 54.4007 30.9237 58.848 27.2005C60.089 22.1327 64.3294 15.0999 71.1554 11.2732Z" fill="#C4C4C4"/>
<path d="M58.1242 9.72185C57.4622 8.06707 57.3657 6.13649 57.4002 5.37805C60.1306 5.37805 67.3633 9.72185 70.1213 11.5835C69.3973 12.0316 67.5357 12.928 66.5015 14.6862C64.5364 16.1341 62.1577 19.6505 61.2269 21.2019C60.0892 21.8224 58.5378 26.9936 56.5728 27.3039C54.6077 27.6141 47.6784 25.132 47.5749 18.2026C47.4715 11.2732 58.6413 10.6527 58.1242 9.72185Z" fill="white"/>
<path d="M66.0877 6.72255L65.8809 9.72184C65.019 9.99763 62.5299 10.4458 61.1234 10.4458C59.7168 10.4458 58.4688 10.1355 57.8138 9.92868L57.607 8.48075C57.2622 8.20496 57.0898 6.88803 57.0898 5.89516C57.2553 4.40586 59.0549 3.44747 60.1926 2.89587L62.5713 5.89516L66.0877 6.72255Z" fill="#D0D0C8"/>
<path d="M53.3665 20.5814C53.0562 20.5814 52.3322 20.7882 52.022 18.4095C52.022 17.7544 52.1668 16.4237 52.7459 16.341C53.4699 16.2376 53.3665 17.7889 53.3665 18.4095C53.3665 19.03 53.6768 20.5814 53.3665 20.5814Z" fill="black"/>
<path d="M36.8349 45.5387C36.2588 40.9171 51.3393 31.1807 58.9515 26.8901V29.8293C53.4995 31.9577 39.4066 42.8022 39.4066 44.0185C39.4066 44.9914 44.2071 45.4374 46.6074 45.5387C43.8642 46.4509 38.0693 47.7279 36.8349 45.5387Z" fill="#B7B7B7"/>
<path d="M47.8853 20.995C45.9006 14.5827 50.7812 11.6869 54.9182 10.9629C51.0915 13.3416 48.5921 16.2375 49.1264 19.4436C49.6608 22.6498 54.1252 25.6146 56.7798 27.2004C54.1597 27.4073 49.3579 25.7525 47.8853 20.995Z" fill="#F1F1F1"/>
<path d="M57.1933 7.23967C56.8624 4.42654 59.0549 3.17167 60.1926 2.89587L62.5713 5.79174L61.02 10.4458C60.6063 10.4458 58.7447 10.17 57.7104 9.92868L57.5036 8.6876C57.5036 8.6876 57.276 8.31528 57.1933 7.23967Z" fill="#C2C2BC"/>
<path d="M60.4439 47.6783C61.4782 40.4386 70.0624 17.2717 84.3348 10.1355C87.6788 10.1355 95.9803 11.4386 102.434 16.6512C105.433 16.7546 110.604 21.4087 112.569 25.8559C116.458 26.6833 117.568 30.1307 117.637 31.751C123.567 31.6476 136.357 32.3716 140.08 36.0948C152.698 36.612 163.971 43.5413 162.42 47.8851C160.868 52.2289 153.732 61.2268 133.358 66.6048C112.983 71.9829 95.7114 72.5 92.195 72.5C88.6786 72.5 85.2656 71.3623 83.0938 70.4315C80.9219 69.5007 72.9582 70.6383 67.1665 71.3623C61.3748 72.0863 43.2756 72.9137 34.3812 67.5356C30.1408 66.9151 14.1102 66.6048 16.3855 62.8816C19.2813 58.7446 42.3448 55.1248 46.0681 51.0913C47.2479 49.8131 56.307 48.5057 60.4439 47.6783Z" fill="#75BCD2"/>
<path d="M69.1313 48.1954C75.4402 48.9194 80.6114 48.1954 87.6442 46.5406C83.4245 51.2568 73.2683 50.8844 69.1313 48.1954Z" fill="#4EA0B1"/>
<path d="M122.705 47.6783C118.982 50.4914 103.985 52.7116 96.9525 53.47C96.5388 53.47 95.9596 53.2425 96.9525 52.3324C98.1936 51.1947 114.224 49.9536 113.604 48.7125C112.983 47.4714 110.915 48.7125 108.536 45.403C109.26 42.1968 119.809 38.4736 119.913 39.7147C120.016 40.9558 114.017 42.8174 114.224 45.403C114.431 47.9886 120.016 46.2304 122.705 47.6783Z" fill="#4EA0B1"/>
<path d="M119.395 34.9573C117.989 34.2954 117.637 32.4751 117.637 31.6477C117.947 31.889 118.733 32.6199 119.395 33.6128C120.057 34.6056 122.291 35.4744 123.326 35.7847C122.602 35.7847 120.802 35.6192 119.395 34.9573Z" fill="#4EA0B1"/>
<path d="M67.2698 29.2689C70.4966 22.5671 78.3361 13.3417 84.5416 10.3424H88.9888C84.7139 14.1346 75.0266 23.229 70.4759 29.2689C65.9253 35.3089 61.8918 43.9896 60.4438 47.5749C60.5473 45.7133 63.2363 37.6463 67.2698 29.2689Z" fill="#4EA0B1"/>
<path d="M45.6541 51.0914C46.4815 49.6434 56.2033 48.5058 60.4437 47.9886L47.826 55.5386C40.6897 57.5726 26.4586 61.9922 26.6241 63.3988C26.7896 64.8053 33.588 65.2259 36.9665 65.2604C40.4484 65.9499 48.7154 67.5771 53.928 68.57C59.1405 69.5628 75.3367 66.7773 82.7832 65.2604C83.8864 66.1567 87.0236 68.3217 90.7468 69.811C94.4701 71.3003 109.949 70.4316 117.223 69.811C112.259 70.5005 100.634 71.8795 93.8495 71.8795C87.0649 71.8795 82.8177 70.5005 81.5421 69.811C75.6469 70.4316 61.8709 71.714 53.928 71.8795C43.9993 72.0864 34.898 67.3289 34.1741 67.3289C33.4501 67.3289 13.6962 66.0878 16.3852 63.3988C19.3845 60.1926 43.9993 53.9872 45.6541 51.0914Z" fill="#4EA0B1"/>
</svg>
