<svg id="ePSg5FOwEYm1" xmlns="http://www.w3.org/2000/svg" xmlns:xlink="http://www.w3.org/1999/xlink" viewBox="0 0 1152 1674" shape-rendering="geometricPrecision" text-rendering="geometricPrecision"><defs><linearGradient id="ePSg5FOwEYm2-fill" x1="576" y1="394.500000" x2="576" y2="3650.500000" spreadMethod="pad" gradientUnits="userSpaceOnUse"><stop id="ePSg5FOwEYm2-fill-0" offset="6.261140%" stop-color="rgb(215,161,144)"/><stop id="ePSg5FOwEYm2-fill-1" offset="28.645800%" stop-color="rgb(214,102,70)"/><stop id="ePSg5FOwEYm2-fill-2" offset="48.437500%" stop-color="rgb(151,60,85)"/><stop id="ePSg5FOwEYm2-fill-3" offset="68.229200%" stop-color="rgb(89,34,74)"/><stop id="ePSg5FOwEYm2-fill-4" offset="84.274400%" stop-color="rgb(47,25,67)"/><stop id="ePSg5FOwEYm2-fill-5" offset="100%" stop-color="rgb(5,11,61)"/></linearGradient><linearGradient id="ePSg5FOwEYm80-fill" x1="1058" y1="260.500000" x2="931" y2="384.500000" spreadMethod="pad" gradientUnits="userSpaceOnUse"><stop id="ePSg5FOwEYm80-fill-0" offset="0%" stop-color="rgb(220,220,220)"/><stop id="ePSg5FOwEYm80-fill-1" offset="100%" stop-color="rgba(220,220,220,0)"/></linearGradient><linearGradient id="ePSg5FOwEYm82-stroke" x1="0.026407" y1="0.143550" x2="0.026407" y2="1" spreadMethod="pad" gradientUnits="objectBoundingBox"><stop id="ePSg5FOwEYm82-stroke-0" offset="0%" stop-color="rgb(215,169,155)"/><stop id="ePSg5FOwEYm82-stroke-1" offset="100%" stop-color="rgb(215,158,140)"/></linearGradient><linearGradient id="ePSg5FOwEYm83-stroke" x1="0.520378" y1="0.974244" x2="0.534890" y2="0" spreadMethod="pad" gradientUnits="objectBoundingBox"><stop id="ePSg5FOwEYm83-stroke-0" offset="0%" stop-color="rgb(215,148,128)"/><stop id="ePSg5FOwEYm83-stroke-1" offset="100%" stop-color="rgb(215,154,135)"/></linearGradient></defs><path id="ePSg5FOwEYm2" d="M-1,430L1153,430L1153,1674L-1,1674L-1,430Z" transform="matrix(1 0 0 1 0 10.97219848999998)" fill="url(#ePSg5FOwEYm2-fill)" stroke="none" stroke-width="1"/><path id="ePSg5FOwEYm3" d="M150.732000,677C127.338000,677,120.145000,691.536000,119.472000,698.804000C117.063000,696.436000,108.346000,693.047000,97.792100,697.445000C87.237800,701.843000,86.868200,707.225000,87.372400,709.490000C81.910400,705.290000,67.524500,707.044000,66.112800,715.296000C64.701000,723.548000,76.868500,729.688000,84.515500,726.106000C85.775800,730.306000,89.221000,731.736000,93.758900,732.900000C103.775000,735.470000,110.257000,729.441000,112.246000,726.106000C113.646000,729.935000,119.741000,737.471000,132.917000,736.977000C146.093000,736.483000,150.284000,727.259000,150.732000,722.708000C151.376000,725.797000,155.639000,732.838000,166.529000,735.803000C177.420000,738.768000,184.764000,732.921000,187.201000,729.688000C188.602000,730.985000,192.848000,733.641000,198.629000,733.888000C204.410000,734.136000,209.945000,731.191000,211.990000,729.688000C218.376000,733.250000,233.216000,736.211000,238.123000,723.758000C243.031000,711.306000,226.191000,703.993000,216.023000,710.602000C217.620000,706.587000,219.754000,700.385000,207.452000,695.098000C195.150000,689.811000,184.120000,695.366000,180.142000,698.804000C180.086000,691.536000,174.126000,677,150.732000,677Z" transform="matrix(1 0 0 1 -2.99328612999989 16)" fill="rgb(217,217,217)" fill-opacity="0.5" stroke="none" stroke-width="1"/><path id="ePSg5FOwEYm4" d="M1099.940000,871C1085.870000,871,1081.550000,879.964000,1081.150000,884.446000C1079.700000,882.986000,1074.460000,880.896000,1068.110000,883.608000C1061.770000,886.320000,1061.550000,889.639000,1061.850000,891.036000C1058.560000,888.445000,1049.920000,889.527000,1049.070000,894.616000C1048.220000,899.705000,1055.530000,903.491000,1060.130000,901.282000C1060.890000,903.872000,1062.960000,904.754000,1065.690000,905.472000C1071.710000,907.056000,1075.610000,903.339000,1076.800000,901.282000C1077.640000,903.643000,1081.310000,908.290000,1089.230000,907.986000C1097.150000,907.681000,1099.670000,901.993000,1099.940000,899.187000C1100.320000,901.091000,1102.890000,905.434000,1109.430000,907.262000C1115.980000,909.090000,1120.400000,905.484000,1121.860000,903.491000C1122.700000,904.291000,1125.260000,905.929000,1128.730000,906.081000C1132.210000,906.234000,1135.530000,904.418000,1136.760000,903.491000C1140.600000,905.688000,1149.520000,907.513000,1152.470000,899.834000C1155.420000,892.155000,1145.300000,887.645000,1139.190000,891.721000C1140.150000,889.245000,1141.430000,885.421000,1134.030000,882.160000C1126.640000,878.900000,1120.010000,882.326000,1117.620000,884.446000C1117.580000,879.964000,1114,871,1099.940000,871Z" transform="matrix(1 0 0 1 -18.94450462999976 13.23319517999994)" fill="rgb(217,217,217)" fill-opacity="0.5" stroke="none" stroke-width="1"/><path id="ePSg5FOwEYm5" d="M98.937000,1354C84.873400,1354,80.549300,1362.960000,80.145200,1367.450000C78.697100,1365.990000,73.456900,1363.900000,67.112000,1366.610000C60.767200,1369.320000,60.545100,1372.640000,60.848200,1374.040000C57.564700,1371.450000,48.916400,1372.530000,48.067800,1377.620000C47.219100,1382.700000,54.533700,1386.490000,59.130700,1384.280000C59.888300,1386.870000,61.959500,1387.750000,64.687400,1388.470000C70.708900,1390.060000,74.605300,1386.340000,75.800800,1384.280000C76.642800,1386.640000,80.306800,1391.290000,88.227700,1390.990000C96.148500,1390.680000,98.667500,1384.990000,98.937000,1382.190000C99.324200,1384.090000,101.887000,1388.430000,108.434000,1390.260000C114.981000,1392.090000,119.396000,1388.480000,120.861000,1386.490000C121.703000,1387.290000,124.255000,1388.930000,127.731000,1389.080000C131.206000,1389.230000,134.534000,1387.420000,135.763000,1386.490000C139.602000,1388.690000,148.523000,1390.510000,151.473000,1382.830000C154.423000,1375.160000,144.300000,1370.650000,138.188000,1374.720000C139.147000,1372.250000,140.430000,1368.420000,133.035000,1365.160000C125.639000,1361.900000,119.008000,1365.330000,116.617000,1367.450000C116.584000,1362.960000,113,1354,98.937000,1354Z" transform="matrix(1 0 0 1 -2.49166487999989 0)" fill="rgb(217,217,217)" fill-opacity="0.5" stroke="none" stroke-width="1"/><path id="ePSg5FOwEYm6" d="M697.507907,1148.500000C789.515907,1145.470000,1022.715907,1148.500000,1150.025907,1177L1150.025907,1152.740000C1075.375907,1138.800000,1049.335907,1131.520000,745.537907,1131.520000C441.736907,1131.520000,-1.521578,1088.470000,-1.521578,1002.960000C-1.521578,926.556000,338.155907,864.702000,582.353907,864.702000C826.550907,864.702000,1035.095907,804.469000,1151.025907,769.500000L1151.025907,531C1146.525907,668,1039.495907,805.275000,582.353907,805.275000C230.486907,809.173000,63.475107,871.900000,-1.521578,935.643000L-1.521578,1002.960000L-1.521578,1062.500000C0.716827,1063.790000,3.034577,1064.960000,5.422387,1066.030000C257.142907,1146.070000,605.499907,1151.530000,697.507907,1148.500000Z" transform="matrix(1 0 0 1 -1 1.52288818000000)" fill="rgb(223,223,223)" fill-opacity="0.15" stroke="none" stroke-width="1"/><path id="ePSg5FOwEYm7" d="M903.001000,1376C903.801000,1384,1068,1393.330000,1150,1397L1150,1408C1058.170000,1404.170000,874.401000,1392.400000,874.001000,1376C873.601000,1359.600000,993.501000,1346,1150,1337L1150,1348C1049.500000,1348,902.201000,1368,903.001000,1376Z" transform="matrix(1 0 0 1 2 0)" fill="rgb(223,223,223)" fill-opacity="0.15" stroke="none" stroke-width="1"/><rect id="ePSg5FOwEYm8" width="1152" height="461" rx="0" ry="0" transform="matrix(1 0 0 1 0 0.50000000000000)" fill="rgb(80,169,221)" stroke="none" stroke-width="1"/><g id="ePSg5FOwEYm9"><path id="ePSg5FOwEYm10" d="M107.325000,237.638000C113.648000,222.760000,116.282000,185.702000,76.238400,156.488000C50.535800,137.737000,22.011300,135.814000,0,139.345000L0,521.996000C17.004000,528.116000,36.079300,533.491000,53.889500,535.354000C92.668600,539.412000,152.681000,505.654000,162.561000,480.944000C182.582000,485.677000,212.505000,528.589000,270.134000,535.354000C335.446000,543.022000,368.135000,524.196000,395.534000,516.082000C400.627000,516.082000,420.087000,518.922000,457.180000,530.283000C494.273000,541.644000,535.862000,525.549000,552.020000,516.082000C561.153000,520.815000,586.900000,530.283000,616.827000,530.283000C646.755000,530.283000,708.330000,520.815000,735.377000,516.082000C754.697000,520.815000,805.032000,532.007000,851.820000,538.905000C898.608000,545.802000,940.162000,536.031000,955.090000,530.283000C967.911000,535.355000,999.876000,546.107000,1025.170000,548.541000C1050.460000,550.976000,1096.120000,543.131000,1115.790000,538.905000C1115.790000,538.905000,1138.180000,540.694000,1152,538.800000L1152,279.500000C1130.080000,290.455000,1130.720000,300.021000,1131.600000,303.572000C1118.430000,295.119000,1085.970000,281.053000,1061.520000,292.414000C1037.070000,303.774000,1027.100000,330.960000,1025.170000,343.132000C1017.970000,338.567000,998.822000,332.177000,979.854000,343.132000C960.886000,354.087000,955.442000,376.437000,955.090000,386.243000C951.227000,380.833000,940.654000,371.940000,929.273000,379.649000C917.892000,387.358000,909.427000,397.739000,906.617000,401.965000C899.767000,393.850000,881.747000,378.026000,864.465000,379.649000C847.183000,381.272000,837.594000,395.203000,834.960000,401.965000C830.393000,398.415000,815.675000,391.314000,793.335000,391.314000C770.995000,391.314000,759.087000,410.249000,755.926000,419.717000C751.360000,413.799000,735.904000,403.791000,710.614000,411.095000C685.323000,418.398000,684.972000,436.792000,687.957000,445.076000C650.021000,431.280000,624.731000,439.328000,616.827000,445.076000C610.856000,439.835000,593.644000,429.150000,572.568000,428.339000C551.493000,427.527000,532.876000,439.159000,526.202000,445.076000C516.507000,436.149000,501.087000,433.918000,494.589000,433.918000C494.940000,429.691000,492.376000,419.209000,479.309000,411.095000C466.242000,402.980000,453.140000,407.713000,448.223000,411.095000C447.520000,408.051000,444.007000,401.965000,435.577000,401.965000C427.147000,401.965000,421.527000,408.051000,419.770000,411.095000C418.892000,407.037000,414.818000,397.401000,405.544000,391.314000C396.271000,385.228000,387.630000,388.778000,384.469000,391.314000C387.630000,379.649000,378.146000,356.826000,361.286000,343.132000C347.797000,332.177000,319.486000,338.567000,307.016000,343.132000C307.192000,340.089000,305.962000,331.568000,299.640000,321.830000C293.317000,312.092000,277.335000,313.039000,270.134000,314.730000C271.890000,311.687000,272.241000,303.064000,259.596000,292.921000C246.951000,282.777000,229.036000,284.975000,221.660000,287.342000C221.133000,279.565000,213.651000,260.157000,187.939000,244.738000C162.227000,229.320000,134.372000,241.695000,123.658000,249.810000C121.972000,240.884000,112.067000,237.976000,107.325000,237.638000Z" transform="matrix(1 0 0 1 0 1.63848877000004)" fill="rgb(225,221,221)" stroke="none" stroke-width="1"/><path id="ePSg5FOwEYm11" d="M140.607000,419.473000C176.282000,486.432000,83.966100,525.839000,54.987100,523.205000C39.006000,521.752000,18.173200,515.114000,0,507.395000L0,470.959000C15.617400,479.589000,33.636400,486.581000,51.145200,488.628000C84.954000,492.579000,140.607000,467.223000,140.607000,419.473000Z" fill="rgb(209,209,209)" stroke="none" stroke-width="1"/><path id="ePSg5FOwEYm12" d="M87.917900,242.001000C92.125700,225.536000,93.406400,187.227000,64.866500,165.712000C43.955000,149.948000,18.230700,152.472000,0,158.474000L0,166.342000C16.255500,166.453000,37.972400,166.844000,52.243100,176.689000C76.392200,193.350000,84.259000,225.902000,87.917900,242.001000Z" fill="rgb(209,209,209)" stroke="none" stroke-width="1"/><path id="ePSg5FOwEYm13" d="M176.831000,254.271000C156.194000,244.611000,134.935000,263.784000,126.886000,274.578000C137.314000,271.285000,161.353000,265.687000,174.086000,269.639000C186.819000,273.590000,205.004000,292.873000,212.505000,302.020000C209.212000,290.129000,197.467000,263.931000,176.831000,254.271000Z" fill="rgb(209,209,209)" stroke="none" stroke-width="1"/><path id="ePSg5FOwEYm14" d="M1067.910000,532.403000C1098.060000,530.842000,1128.240000,517.551000,1144.990000,510.288000L1144.990000,496.229000C1127.670000,506.311000,1090.520000,519.581000,1055.350000,521.922000C1020.180000,524.264000,962.286000,509.238000,962.286000,480.944000C953.722000,521.922000,1037.770000,533.964000,1067.910000,532.403000Z" fill="rgb(209,209,209)" stroke="none" stroke-width="1"/><path id="ePSg5FOwEYm15" d="M1070.500000,301C1041.300000,315,1035,337.833000,1035.500000,347.500000C1042.670000,340.333000,1056.400000,323,1074,311C1091.600000,299,1120.670000,311.333000,1130.500000,319C1122.670000,307.167000,1099.700000,287,1070.500000,301Z" fill="rgb(209,209,209)" stroke="none" stroke-width="1"/></g><g id="ePSg5FOwEYm16" transform="matrix(0.99999704141097 -0.00243252323835 0.00243252323835 0.99999704141097 -8.04744265346221 -6.87179649708025)"><path id="ePSg5FOwEYm17" d="M708.500000,418.500000C690.500000,428.900000,692,440.500000,695,445C696.833000,441.167000,703.500000,431.500000,715.500000,423.500000C727.500000,415.500000,745.833000,420.167000,753.500000,423.500000C746,417.500000,726.500000,408.100000,708.500000,418.500000Z" fill="rgb(209,209,209)" stroke="none" stroke-width="1"/><path id="ePSg5FOwEYm18" d="M570.500000,435C551.700000,435.800000,536,443.667000,530.500000,447.500000C538.167000,445.167000,557.300000,440.500000,572.500000,440.500000C587.700000,440.500000,605.833000,445.167000,613,447.500000C606.667000,443,589.300000,434.200000,570.500000,435Z" fill="rgb(209,209,209)" stroke="none" stroke-width="1"/><path id="ePSg5FOwEYm19" d="M354.500000,361.500000C342.900000,347.100000,316,355.500000,304,361.500000C314.667000,358.856000,338.200000,356.554000,347,368.500000C355.800000,380.446000,358,395.144000,358,401C361.667000,393.833000,366.100000,375.900000,354.500000,361.500000Z" fill="rgb(209,209,209)" stroke="none" stroke-width="1"/><path id="ePSg5FOwEYm20" d="M278.500000,526.500000C244,521.073000,201.500000,490,175,461.500000C199.500000,472.833000,251.700000,501.200000,278.500000,510C305.300000,518.800000,363.833000,510.167000,388,506.500000C360.667000,514,323,533.500000,278.500000,526.500000Z" fill="rgb(209,209,209)" stroke="none" stroke-width="1"/><path id="ePSg5FOwEYm21" d="M477.500000,527.500000C444.300000,526.300000,418.667000,512.667000,410,506C422.667000,509.667000,453.900000,517.400000,477.500000,519C501.100000,520.600000,531.333000,514,543.500000,510.500000C535.333000,516.667000,510.700000,528.700000,477.500000,527.500000Z" fill="rgb(209,209,209)" stroke="none" stroke-width="1"/><ellipse id="ePSg5FOwEYm22" rx="70" ry="16.500000" transform="matrix(1 0 0 1 318 403.50000000000000)" fill="rgb(188,188,188)" stroke="none" stroke-width="1"/><path id="ePSg5FOwEYm23" d="M360.124000,355.440000L409.470000,398.650000C416.526000,397.450000,499.669000,396.146000,540.359000,395.644000C491.600000,380.319000,393.988000,349.160000,393.613000,347.125000C393.144000,344.581000,408.295000,342.881000,404.919000,336.896000C402.217000,332.108000,390.370000,332.810000,384.784000,333.759000L360.124000,355.440000Z" fill="rgb(182,182,182)" stroke="none" stroke-width="1"/><path id="ePSg5FOwEYm24" d="M360.991000,355.302000L386.117000,333.702000C380.122000,339.697000,371.129000,351.776000,371.129000,355.302000C371.129000,358.829000,409.921000,389.686000,409.921000,389.686000C450.476000,389.980000,532.997000,391.537000,538.639000,395.417000C533.350000,396.739000,498.084000,397.180000,478.688000,397.180000C467.051000,395.769000,426.231000,396.592000,407.276000,397.180000L360.991000,355.302000Z" fill="rgb(146,145,145)" stroke="none" stroke-width="1"/><path id="ePSg5FOwEYm25" d="M838.489000,323.118000L918.669000,211.034000C947.483000,205.556000,1015.240000,207.690000,1015.240000,207.690000C1006.830000,213.302000,953.419000,302.714000,927.764000,346.718000L901.247000,392.612000C901.925000,416.022000,745.370000,500.570000,512.074000,535.863000C278.777000,571.155000,117.952000,546.209000,113.514000,507.319000C109.076000,468.429000,156.457000,471.703000,170.209000,450.197000C183.960000,428.692000,213.513000,406.679000,252.084000,396.638000C290.655000,386.598000,379.200000,388.976000,416.996000,389.523000C454.792000,390.070000,548.073000,366.375000,599.752000,358.463000C641.096000,352.134000,776.137000,332.262000,838.489000,323.118000Z" fill="rgb(196,196,196)" stroke="none" stroke-width="1"/><path id="ePSg5FOwEYm26" d="M736.526000,298.316000L833.425000,325.192000L765.788000,336.687000L736.526000,298.316000Z" fill="rgb(182,182,182)" stroke="none" stroke-width="1"/><path id="ePSg5FOwEYm27" d="M140.399000,498.722000C132.994000,494.490000,130.853000,480.231000,131,474.500000C122,478.500000,112.340000,489.499000,113.510000,506.216000C115,527.500000,152.155000,536.338000,169.934000,541.040000C229.742000,556.857000,375.382000,556.212000,529.640000,534.428000C690.135000,511.763000,902.570000,429.514000,902.570000,388.959000C817.199000,413.939000,634.609000,481.442000,561.963000,498.722000C471.155000,520.322000,252.367000,526.053000,215.338000,522.526000C178.310000,519,149.657000,504.012000,140.399000,498.722000Z" transform="matrix(1 0 0 1 0 1.16434863500001)" fill="rgb(170,170,170)" stroke="none" stroke-width="1"/><path id="ePSg5FOwEYm28" d="M274.110000,474.477000C233.348000,472.057000,185.947000,460.077000,172.722000,448.910000C173.751000,447.441000,174.133000,445.295000,181.539000,437.890000C188.944000,430.484000,194.469000,426.134000,199.171000,423.343000C211.073000,432.600000,229.588000,443.179000,269.261000,445.824000C308.934000,448.469000,361.832000,452.730000,382.551000,445.824000L382.551000,467.424000C382.551000,467.424000,316.786000,477.011000,274.110000,474.477000Z" fill="rgb(138,138,138)" stroke="none" stroke-width="1"/><path id="ePSg5FOwEYm29" d="M373.294000,466.543000C365.506000,469.481000,315.123000,475.359000,279.152000,475.359000C235.782000,474.665000,174.045000,455.963000,171.400000,448.910000C171.400000,448.910000,172.088000,447.147000,176.690000,442.738000C182.420000,448.469000,216.556000,459.489000,245.650000,466.543000C268.925000,472.185000,353.016000,468.894000,373.294000,466.543000Z" fill="rgb(121,121,121)" stroke="none" stroke-width="1"/><path id="ePSg5FOwEYm30" d="M919.905000,228.943000C914.968000,233.880000,868.624000,300.355000,846.730000,332.094000L852.460000,340.469000L925.636000,234.233000L957.815000,220.567000C947.236000,221.302000,924.842000,224.006000,919.905000,228.943000Z" fill="rgb(220,220,220)" stroke="none" stroke-width="1"/><path id="ePSg5FOwEYm31" d="M908.444000,353.253000L913.293000,371.326000L1013.800000,208.224000L999.693000,208.224000L908.444000,353.253000Z" fill="rgb(177,177,177)" stroke="none" stroke-width="1"/><rect id="ePSg5FOwEYm32" width="16.751000" height="14.987700" rx="0" ry="0" transform="matrix(0.96901600000000 -0.24699900000000 0.24699900000000 0.96901600000000 445.58712817200001 444.21974410700000)" fill="rgb(159,159,159)" stroke="none" stroke-width="1"/><rect id="ePSg5FOwEYm33" width="16.751000" height="14.987700" rx="0" ry="0" transform="matrix(0.96901600000000 -0.24699900000000 0.24699900000000 0.96901600000000 486.14213498700008 436.28555770200012)" fill="rgb(159,159,159)" stroke="none" stroke-width="1"/><rect id="ePSg5FOwEYm34" width="16.751000" height="14.987700" rx="0" ry="0" transform="matrix(0.96901600000000 -0.24699900000000 0.24699900000000 0.96901600000000 526.69717644600007 425.70629299300003)" fill="rgb(159,159,159)" stroke="none" stroke-width="1"/><rect id="ePSg5FOwEYm35" width="16.751000" height="14.987700" rx="0" ry="0" transform="matrix(0.96944500000000 -0.24530700000000 0.24530700000000 0.96944500000000 567.26167681200002 413.34587353600000)" fill="rgb(159,159,159)" stroke="none" stroke-width="1"/><rect id="ePSg5FOwEYm36" width="16.751000" height="14.987700" rx="0" ry="0" transform="matrix(0.96944500000000 -0.24530700000000 0.24530700000000 0.96944500000000 607.81663150100007 403.64777054100000)" fill="rgb(159,159,159)" stroke="none" stroke-width="1"/><rect id="ePSg5FOwEYm37" width="16.751000" height="14.987700" rx="0" ry="0" transform="matrix(0.96944500000000 -0.24530700000000 0.24530700000000 0.96944500000000 647.48957271500001 396.59521034500005)" fill="rgb(159,159,159)" stroke="none" stroke-width="1"/><rect id="ePSg5FOwEYm38" width="16.751000" height="14.987700" rx="0" ry="0" transform="matrix(0.96944500000000 -0.24530700000000 0.24530700000000 0.96944500000000 687.16265315500004 388.66059965900001)" fill="rgb(159,159,159)" stroke="none" stroke-width="1"/><rect id="ePSg5FOwEYm39" width="16.751000" height="14.987700" rx="0" ry="0" transform="matrix(0.96944500000000 -0.24530700000000 0.24530700000000 0.96944500000000 726.83656381400010 381.60679415600003)" fill="rgb(159,159,159)" stroke="none" stroke-width="1"/><rect id="ePSg5FOwEYm40" width="16.751000" height="14.987700" rx="0" ry="0" transform="matrix(0.96944500000000 -0.24530700000000 0.24530700000000 0.96944500000000 764.74657349299991 374.55371020100000)" fill="rgb(159,159,159)" stroke="none" stroke-width="1"/><path id="ePSg5FOwEYm41" d="M449.114000,458.597000L445.587000,444.491000L446.469000,444.491000L450.877000,455.511000L465.424000,452.866000L465.424000,454.189000L449.114000,458.597000Z" fill="rgb(137,137,137)" stroke="none" stroke-width="1"/><path id="ePSg5FOwEYm42" d="M489.669000,450.662000L486.142000,436.556000L487.024000,436.556000L491.432000,447.577000L505.979000,444.932000L505.979000,446.254000L489.669000,450.662000Z" fill="rgb(137,137,137)" stroke="none" stroke-width="1"/><path id="ePSg5FOwEYm43" d="M530.224000,440.083000L526.697000,425.977000L527.579000,425.977000L531.987000,436.997000L546.534000,434.352000L546.534000,435.675000L530.224000,440.083000Z" fill="rgb(137,137,137)" stroke="none" stroke-width="1"/><path id="ePSg5FOwEYm44" d="M570.779000,427.740000L567.253000,413.634000L568.134000,413.634000L572.542000,424.654000L587.089000,422.009000L587.089000,423.332000L570.779000,427.740000Z" fill="rgb(137,137,137)" stroke="none" stroke-width="1"/><path id="ePSg5FOwEYm45" d="M611.334000,417.160000L607.808000,403.054000L608.689000,403.054000L613.097000,414.075000L627.644000,411.430000L627.644000,412.752000L611.334000,417.160000Z" fill="rgb(137,137,137)" stroke="none" stroke-width="1"/><path id="ePSg5FOwEYm46" d="M651.008000,410.989000L647.481000,396.883000L648.363000,396.883000L652.771000,407.903000L667.318000,405.258000L667.318000,406.581000L651.008000,410.989000Z" fill="rgb(137,137,137)" stroke="none" stroke-width="1"/><path id="ePSg5FOwEYm47" d="M690.681000,403.054000L687.154000,388.948000L688.036000,388.948000L692.444000,399.968000L706.991000,397.324000L706.991000,398.646000L690.681000,403.054000Z" fill="rgb(137,137,137)" stroke="none" stroke-width="1"/><path id="ePSg5FOwEYm48" d="M730.354000,396.883000L726.828000,382.777000L727.710000,382.777000L732.118000,393.797000L746.665000,391.152000L746.665000,392.475000L730.354000,396.883000Z" fill="rgb(137,137,137)" stroke="none" stroke-width="1"/><path id="ePSg5FOwEYm49" d="M768.265000,388.948000L764.738000,374.842000L765.620000,374.842000L770.028000,385.862000L784.575000,383.217000L784.575000,384.540000L768.265000,388.948000Z" fill="rgb(137,137,137)" stroke="none" stroke-width="1"/><path id="ePSg5FOwEYm50" d="M887.770000,363.565000L853.146000,375.551000L870.422000,402.689000L988.952000,419.155000L1018.470000,404.115000L887.770000,363.565000Z" fill="rgb(193,193,193)" stroke="none" stroke-width="1"/><path id="ePSg5FOwEYm51" d="M869.652000,402.624000L853.342000,375.734000L859.528000,373.672000L875.839000,393.950000L982.942000,411.441000L1018.650000,403.947000L988.232000,419.375000L869.652000,402.624000Z" fill="rgb(158,158,158)" stroke="none" stroke-width="1"/><path id="ePSg5FOwEYm52" d="M887.726000,362.951000L1017.330000,403.947000L1015.560000,404.828000L887.726000,366.918000L878.909000,366.918000L887.726000,362.951000Z" fill="rgb(158,158,158)" stroke="none" stroke-width="1"/><path id="ePSg5FOwEYm53" d="M214.600000,420.689000C214.600000,407.689000,302.496000,388.400000,356.809000,395.948000C314.658000,397.905000,230.935000,405.592000,233.257000,420.689000C235.579000,435.785000,326.129000,437.462000,368.004000,429.495000C358.468000,445.849000,214.600000,446.268000,214.600000,420.689000Z" fill="rgb(205,205,205)" stroke="none" stroke-width="1"/><path id="ePSg5FOwEYm54" d="M579.351000,369.248000C564.209000,373.256000,462.073000,389.846000,418.464000,398.753000L432.939000,405.433000C440.510000,403.206000,712.403000,355.887000,809.826000,333.062000C739.310000,343.454000,594.493000,365.239000,579.351000,369.248000Z" fill="rgb(220,220,220)" stroke="none" stroke-width="1"/><path id="ePSg5FOwEYm55" d="M760.790000,574.667000C738.691000,575.858000,570.881000,509.121000,494.224000,479.871000C514.251000,477.672000,566.328000,478.493000,602.068000,468.650000C614.842000,470.645000,797.188000,542.975000,806.285000,543.378000C815.382000,543.781000,843.991000,536.863000,844.998000,542.755000C846.005000,548.647000,788.413000,573.179000,760.790000,574.667000Z" fill="rgb(182,182,182)" stroke="none" stroke-width="1"/><path id="ePSg5FOwEYm56" d="M845.157000,543.913000C841.668000,549.865000,774.343000,578.953000,751.589000,575.669000C730.124000,574.238000,570.668000,512.801000,494.253000,479.431000L514.193000,478.552000C519.518000,483.501000,669.681000,536.337000,750.328000,561.447000C768.244000,564.409000,830.320000,547.783000,831.786000,545.672000C832.959000,543.983000,818.366000,543.746000,815.160000,543.238000C826.831000,540.482000,845.538000,538.195000,845.157000,543.913000Z" fill="rgb(146,145,145)" stroke="none" stroke-width="1"/><path id="ePSg5FOwEYm57" d="M331.844000,419.254000C325.872000,419.899000,319,418.985000,316.310000,418.447000L302.591000,416.631000C298.758000,415.689000,289.800000,413.564000,284.636000,412.596000C279.471000,411.628000,272.128000,411.251000,269.101000,411.184000C268.025000,411.117000,265.833000,408.844000,265.672000,400.290000C265.510000,391.736000,268.971000,383.276000,270.721000,380.115000C270.755000,373.738000,272.378000,363.882000,274.548000,359.134000C277.776000,352.073000,280.999000,341.806000,285.437000,332.526000C279.385000,323.044000,286.653000,292.558000,317.722000,295.181000C342.577000,297.279000,344.756000,324.635000,334.870000,334.723000C340.116000,338.556000,351.713000,349.619000,356.255000,380.115000C357.667000,389.597000,356.255000,395.784000,356.255000,400.290000C357.735000,401.097000,360.492000,403.074000,359.685000,404.526000C358.878000,405.979000,354.507000,407.149000,352.422000,407.552000C348.051000,411.184000,337.816000,418.608000,331.844000,419.254000Z" transform="matrix(1 0 0 1 0 1.39944458000002)" fill="rgb(211,206,200)" stroke="none" stroke-width="1"/><path id="ePSg5FOwEYm58" d="M317.538000,295.181000C342.393000,297.279000,344.572000,324.635000,334.686000,334.723000C330.845000,336.680000,319.934000,340.192000,306.417000,337.368000C285.638000,336.964000,284,331.136000,283.218000,329.096000C282.815000,319.210000,286.469000,292.558000,317.538000,295.181000Z" fill="rgb(93,88,85)" stroke="none" stroke-width="1"/><path id="ePSg5FOwEYm59" d="M307.944000,423.513000C300.681000,423.190000,300.345000,410.735000,301.084000,404.549000C300.345000,403.540000,299.309000,400.231000,301.084000,395.067000C303.826000,396.365000,304.622000,399.588000,304.711000,401.506000C304.750000,399.398000,305.300000,395.580000,307.338000,393.251000C308.750000,395.067000,310.163000,398.496000,310.163000,402.733000C310.324000,399.344000,312.247000,395.672000,313.189000,394.260000C314.198000,394.394000,316.417000,395.753000,317.224000,400.110000C318.232000,405.557000,317.022000,423.916000,307.944000,423.513000Z" fill="rgb(92,87,83)" stroke="none" stroke-width="1"/><path id="ePSg5FOwEYm60" d="M273.646000,409.592000C274.776000,402.168000,268.200000,390.225000,263.357000,389.014000C262.148000,391.839000,263.762000,396.277000,263.762000,396.277000C262.955000,395.201000,260.372000,389.256000,258.112000,387.804000C257.507000,390.426000,259.525000,396.008000,259.928000,397.084000C259.928000,397.084000,260.251000,401.401000,259.928000,406.566000C259.525000,413.022000,263.357000,416.653000,265.778000,416.653000C268.199000,416.653000,272.234000,418.872000,273.646000,409.592000Z" fill="rgb(92,87,83)" stroke="none" stroke-width="1"/><path id="ePSg5FOwEYm61" d="M329.590000,325.684000C328.783000,337.788000,318.696000,338.999000,298.925000,336.981000L294.487000,335.771000C294.487000,335.771000,288.610000,333.929000,286.500000,330.500000C284.390000,327.071000,287,317.816000,288.232000,313.983000C289.465000,310.149000,291.500000,308,294,308.500000C296.500000,309,296.430000,312.476000,295.899000,315.395000C295.508000,317.544000,293.679000,318.623000,293.478000,320.438000C293.276000,322.254000,294.083000,324.877000,299.530000,325.684000C304.977000,326.491000,309.819000,324.877000,309.819000,322.658000C309.819000,321.725000,308.407000,321.649000,308.811000,317.816000C309.214000,313.983000,311.635000,309.343000,317.687000,309.343000C323.740000,309.343000,330.397000,313.579000,329.590000,325.684000Z" fill="rgb(254,254,254)" stroke="none" stroke-width="1"/><path id="ePSg5FOwEYm62" d="M274.823000,387.804000C282.086000,383.123000,284.709000,363.527000,285.112000,354.314000L276.639000,354.314000C273.680000,359.896000,269.175000,374.408000,274.823000,387.804000Z" fill="rgb(197,192,187)" stroke="none" stroke-width="1"/><path id="ePSg5FOwEYm63" d="M305.729000,394.349000C302.179000,379.339000,312.454000,361.196000,318.036000,354L333.166000,358.438000C331.418000,367.786000,321.263000,382.850000,305.729000,394.349000Z" fill="rgb(197,192,187)" stroke="none" stroke-width="1"/><path id="ePSg5FOwEYm64" d="M320,376C323.600000,372.800000,329.833000,363,332.500000,358.500000L333,358.500000C330.500000,368,322,382.500000,305.500000,394L305,391C308.500000,387.167000,316.400000,379.200000,320,376Z" fill="rgb(179,173,168)" stroke="none" stroke-width="1"/><path id="ePSg5FOwEYm65" d="M327,319C329,324.600000,326.658000,333.500000,322,336C328.500000,335.500000,330,326.500000,329.500000,321.500000C329.100000,317.500000,327,312.500000,323,310.500000C323.500000,311,325,313.400000,327,319Z" fill="rgb(226,226,226)" stroke="none" stroke-width="1"/><path id="ePSg5FOwEYm66" d="M293,322.500000C295.333000,320.833000,299,317,301,317C303,317,304.333000,319.500000,305.500000,321L293,322.500000Z" fill="rgb(138,137,136)" stroke="none" stroke-width="1"/><path id="ePSg5FOwEYm67" d="M293,322.500000C295.333000,324.167000,300.106000,324,301,324C302.500000,324,304.333000,322.500000,305.500000,321L293,322.500000Z" fill="rgb(116,116,116)" stroke="none" stroke-width="1"/><path id="ePSg5FOwEYm68" d="M333.500000,309C336.500000,314.500000,335,325.167000,335,334.500000C337.167000,332.167000,341.100000,324.600000,339.500000,313C337.900000,301.400000,327,296,319,295.500000C320.333000,296.500000,330.500000,303.500000,333.500000,309Z" fill="rgb(79,74,71)" stroke="none" stroke-width="1"/><ellipse id="ePSg5FOwEYm69" rx="1.500000" ry="2" transform="matrix(1 0 0 1 318.50000000000000 319)" fill="rgb(10,10,10)" stroke="none" stroke-width="1"/><ellipse id="ePSg5FOwEYm70" rx="1" ry="1.500000" transform="matrix(0.98480800000000 0.17364800000000 -0.17364800000000 0.98480800000000 291.00008399999996 315.49999199999996)" fill="rgb(10,10,10)" stroke="none" stroke-width="1"/><path id="ePSg5FOwEYm71" d="M360,404.500000C358.800000,406.100000,354.500000,407.167000,352.500000,407.500000C353,406.833000,354.200000,405.200000,355,404C355.800000,402.800000,356.333000,401.167000,356.500000,400.500000C358.167000,401.167000,361.200000,402.900000,360,404.500000Z" fill="rgb(145,138,131)" stroke="none" stroke-width="1"/><path id="ePSg5FOwEYm72" d="M360.500000,404C360.100000,404.800000,357.667000,406,356.500000,406.500000C357.333000,406,359.100000,404.800000,359.500000,404C359.900000,403.200000,358.333000,401.667000,357.500000,401C358.667000,401.667000,360.900000,403.200000,360.500000,404Z" fill="rgb(118,114,109)" stroke="none" stroke-width="1"/><path id="ePSg5FOwEYm73" d="M354.500000,369.500000C351.300000,351.900000,340.167000,339.167000,335,335C336.333000,339.167000,341.696000,347.134000,344.500000,355.500000C349.503000,370.426000,349.501000,388.551000,349.500000,395.739000L349.500000,396C349.500000,401.600000,337.500000,414,331.500000,419.500000C336.500000,418.500000,345.400000,413.400000,351,409C358,403.500000,358.500000,391.500000,354.500000,369.500000Z" fill="rgb(193,186,177)" stroke="none" stroke-width="1"/><path id="ePSg5FOwEYm74" d="M315,409C315.800000,405.400000,314.500000,397.833000,313.500000,394.500000C316.500000,395.500000,318.500000,399.500000,317,411.500000C315.800000,421.100000,310.667000,423.667000,308,423.500000C310.500000,423.500000,314,413.500000,315,409Z" fill="rgb(71,68,65)" stroke="none" stroke-width="1"/><path id="ePSg5FOwEYm75" d="M310,402.500000C310,398.100000,308.333000,394.667000,307.500000,393.500000L306.500000,394.500000C307.500000,395,308.500000,399.500000,310,402.500000Z" fill="rgb(71,68,65)" stroke="none" stroke-width="1"/><path id="ePSg5FOwEYm76" d="M271,405C271,399.400000,266,392,263.500000,389C266.500000,389.333000,273.016000,397.219000,273.500000,404C274.300000,415.200000,269.167000,417,266.500000,416.500000C268,415,271,410.600000,271,405Z" fill="rgb(74,70,66)" stroke="none" stroke-width="1"/><path id="ePSg5FOwEYm77" d="M263.500000,396.500000C263.100000,394.500000,260.500000,389.500000,258,388L258,390C259,391.667000,261.500000,395.300000,263.500000,396.500000Z" fill="rgb(74,70,66)" stroke="none" stroke-width="1"/><path id="ePSg5FOwEYm78" d="M313.277000,310.568000C313.354000,310.540000,313.429000,310.518000,313.500000,310.500000C313.428000,310.521000,313.354000,310.543000,313.277000,310.568000C311.928000,311.049000,309.780000,313.034000,309,317.500000C308,320.500000,309.500000,321,309.500000,323C309.189000,324.459000,305,325.500000,300,325.500000C298.986000,325.500000,305.100000,324.400000,305.500000,320C306.275000,314.185000,310.871000,311.344000,313.277000,310.568000Z" fill="rgb(79,74,71)" stroke="none" stroke-width="1"/><path id="ePSg5FOwEYm79" d="M274.500000,386C277.300000,384,281.667000,364.167000,283.500000,354.500000L285,354.500000C285.167000,356.167000,284.600000,361.500000,283,369.500000C281.400000,377.500000,278,385.500000,275,388L274.500000,386Z" fill="rgb(178,173,168)" stroke="none" stroke-width="1"/></g><path id="ePSg5FOwEYm80" d="M1100,125.500000C1009.160000,197.495000,975.667000,296.333000,931,369.500000C956.500000,354,1059,267.500000,1084.500000,253C1104.900000,241.400000,1141.756413,231.833000,1155.926413,231L1155.926413,88.133921C1150.096413,92.133921,1119.570000,109.990000,1100,125.500000Z" transform="matrix(1 0 0 1 -3.92641293999986 0)" fill="url(#ePSg5FOwEYm80-fill)" fill-opacity="0.36" stroke="none" stroke-width="1"/><path id="ePSg5FOwEYm81" d="" fill="none" stroke="rgb(63,87,135)" stroke-width="3.348000"/><path id="ePSg5FOwEYm82" d="M1134.048781,565.942864Q1119.945085,646.921661,1035.498291,703.245636C951.051497,759.569611,833.310464,784.402211,735.944368,790.003037" fill="none" stroke="url(#ePSg5FOwEYm82-stroke)" stroke-width="5" stroke-linecap="round" stroke-dashoffset="489.250000" stroke-dasharray="489.250000"/><path id="ePSg5FOwEYm83" d="M284.212806,816.006610Q82.263610,837.786265,9.556241,906.727520" fill="none" stroke="url(#ePSg5FOwEYm83-stroke)" stroke-width="3.348000" stroke-linecap="round" stroke-dashoffset="293.740000" stroke-dasharray="293.740000"/><path id="ePSg5FOwEYm84" d="M599.592283,1111.678836Q696.069252,1113.270416,787.597820,1112.154926Q879.126387,1111.039436,1012.109154,1119.250038" transform="matrix(1 0 0 1 1.14691412000002 -0.60663199999999)" fill="none" stroke="rgb(224,136,110)" stroke-width="3.348000" stroke-dashoffset="412.680000" stroke-dasharray="412.680000"/><path id="ePSg5FOwEYm85" d="M1143.025907,1322.876372Q968.892489,1328.648511,873.604311,1353.116667" transform="matrix(1 0 0 1 7 3)" fill="none" stroke="rgb(224,117,87)" stroke-width="3.348000" stroke-dashoffset="271.600000" stroke-dasharray="271.600000"/><path id="ePSg5FOwEYm86" d="M981.921236,1403.724083Q1109.981414,1414.298413,1152,1414.298413" fill="none" stroke="rgb(212,114,87)" stroke-width="3.348000" stroke-dashoffset="170.440000" stroke-dasharray="170.440000"/><script><![CDATA[!function(t,n){"object"==typeof exports&&"undefined"!=typeof module?module.exports=n():"function"==typeof define&&define.amd?define(n):(t="undefined"!=typeof globalThis?globalThis:t||self).__SVGATOR_PLAYER__=n()}(this,(function(){"use strict";function t(n){return(t="function"==typeof Symbol&&"symbol"==typeof Symbol.iterator?function(t){return typeof t}:function(t){return t&&"function"==typeof Symbol&&t.constructor===Symbol&&t!==Symbol.prototype?"symbol":typeof t})(n)}function n(t,n){if(!(t instanceof n))throw new TypeError("Cannot call a class as a function")}function r(t,n){for(var r=0;r<n.length;r++){var e=n[r];e.enumerable=e.enumerable||!1,e.configurable=!0,"value"in e&&(e.writable=!0),Object.defineProperty(t,e.key,e)}}function e(t,n,e){return n&&r(t.prototype,n),e&&r(t,e),t}function i(t){return(i=Object.setPrototypeOf?Object.getPrototypeOf:function(t){return t.__proto__||Object.getPrototypeOf(t)})(t)}function u(t,n){return(u=Object.setPrototypeOf||function(t,n){return t.__proto__=n,t})(t,n)}function o(t,n){return!n||"object"!=typeof n&&"function"!=typeof n?function(t){if(void 0===t)throw new ReferenceError("this hasn't been initialised - super() hasn't been called");return t}(t):n}function a(t){var n=function(){if("undefined"==typeof Reflect||!Reflect.construct)return!1;if(Reflect.construct.sham)return!1;if("function"==typeof Proxy)return!0;try{return Boolean.prototype.valueOf.call(Reflect.construct(Boolean,[],(function(){}))),!0}catch(t){return!1}}();return function(){var r,e=i(t);if(n){var u=i(this).constructor;r=Reflect.construct(e,arguments,u)}else r=e.apply(this,arguments);return o(this,r)}}function l(t,n,r){return(l="undefined"!=typeof Reflect&&Reflect.get?Reflect.get:function(t,n,r){var e=function(t,n){for(;!Object.prototype.hasOwnProperty.call(t,n)&&null!==(t=i(t)););return t}(t,n);if(e){var u=Object.getOwnPropertyDescriptor(e,n);return u.get?u.get.call(r):u.value}})(t,n,r||t)}var f=Math.abs;function s(t){return t}function c(t,n,r){var e=1-r;return 3*r*e*(t*e+n*r)+r*r*r}function h(){var t=arguments.length>0&&void 0!==arguments[0]?arguments[0]:0,n=arguments.length>1&&void 0!==arguments[1]?arguments[1]:0,r=arguments.length>2&&void 0!==arguments[2]?arguments[2]:1,e=arguments.length>3&&void 0!==arguments[3]?arguments[3]:1;return t<0||t>1||r<0||r>1?null:f(t-n)<=1e-5&&f(r-e)<=1e-5?s:function(i){if(i<=0)return t>0?i*n/t:0===n&&r>0?i*e/r:0;if(i>=1)return r<1?1+(i-1)*(e-1)/(r-1):1===r&&t<1?1+(i-1)*(n-1)/(t-1):1;for(var u,o=0,a=1;o<a;){var l=c(t,r,u=(o+a)/2);if(f(i-l)<1e-5)break;l<i?o=u:a=u}return c(n,e,u)}}function v(){return 1}function y(t){return 1===t?1:0}function d(){var t=arguments.length>0&&void 0!==arguments[0]?arguments[0]:1,n=arguments.length>1&&void 0!==arguments[1]?arguments[1]:0;if(1===t){if(0===n)return y;if(1===n)return v}var r=1/t;return function(t){return t>=1?1:(t+=n*r)-t%r}}function g(t){var n=arguments.length>1&&void 0!==arguments[1]?arguments[1]:2;if(Number.isInteger(t))return t;var r=Math.pow(10,n);return Math.round(t*r)/r}var p=Math.PI/180;function m(t,n,r){return t>=.5?r:n}function b(t,n,r){return 0===t||n===r?n:t*(r-n)+n}function w(t,n,r){var e=b(t,n,r);return e<=0?0:e}function x(t,n,r){return 0===t?n:1===t?r:{x:b(t,n.x,r.x),y:b(t,n.y,r.y)}}function A(t,n,r){return 0===t?n:1===t?r:{x:w(t,n.x,r.x),y:w(t,n.y,r.y)}}function k(t,n,r){var e=function(t,n,r){return Math.round(b(t,n,r))}(t,n,r);return e<=0?0:e>=255?255:e}function _(t,n,r){return 0===t?n:1===t?r:{r:k(t,n.r,r.r),g:k(t,n.g,r.g),b:k(t,n.b,r.b),a:b(t,null==n.a?1:n.a,null==r.a?1:r.a)}}function S(t,n,r){if(0===t)return n;if(1===t)return r;var e=n.length;if(e!==r.length)return m(t,n,r);for(var i=[],u=0;u<e;u++)i.push(_(t,n[u],r[u]));return i}function O(t,n,r){var e=n.length;if(e!==r.length)return m(t,n,r);for(var i=new Array(e),u=0;u<e;u++)i[u]=b(t,n[u],r[u]);return i}function M(t,n){for(var r=[],e=0;e<t;e++)r.push(n);return r}function B(t,n){if(--n<=0)return t;var r=(t=Object.assign([],t)).length;do{for(var e=0;e<r;e++)t.push(t[e])}while(--n>0);return t}var I,j=function(){function t(r){n(this,t),this.list=r,this.length=r.length}return e(t,[{key:"setAttribute",value:function(t,n){for(var r=this.list,e=0;e<this.length;e++)r[e].setAttribute(t,n)}},{key:"removeAttribute",value:function(t){for(var n=this.list,r=0;r<this.length;r++)n[r].removeAttribute(t)}},{key:"style",value:function(t,n){for(var r=this.list,e=0;e<this.length;e++)r[e].style[t]=n}}]),t}(),E=/-./g,F=function(t,n){return n.toUpperCase()};function P(t){return"function"==typeof t?t:m}function R(t){return t?"function"==typeof t?t:Array.isArray(t)?function(t){var n=arguments.length>1&&void 0!==arguments[1]?arguments[1]:s;if(!Array.isArray(t))return n;switch(t.length){case 1:return d(t[0])||n;case 2:return d(t[0],t[1])||n;case 4:return h(t[0],t[1],t[2],t[3])||n}return n}(t,null):function(t,n){var r=arguments.length>2&&void 0!==arguments[2]?arguments[2]:s;switch(t){case"linear":return s;case"steps":return d(n.steps||1,n.jump||0)||r;case"bezier":case"cubic-bezier":return h(n.x1||0,n.y1||0,n.x2||0,n.y2||0)||r}return r}(t.type,t.value,null):null}function q(t,n,r){var e=arguments.length>3&&void 0!==arguments[3]&&arguments[3],i=n.length-1;if(t<=n[0].t)return e?[0,0,n[0].v]:n[0].v;if(t>=n[i].t)return e?[i,1,n[i].v]:n[i].v;var u,o=n[0],a=null;for(u=1;u<=i;u++){if(!(t>n[u].t)){a=n[u];break}o=n[u]}return null==a?e?[i,1,n[i].v]:n[i].v:o.t===a.t?e?[u,1,a.v]:a.v:(t=(t-o.t)/(a.t-o.t),o.e&&(t=o.e(t)),e?[u,t,r(t,o.v,a.v)]:r(t,o.v,a.v))}function T(t,n){var r=arguments.length>2&&void 0!==arguments[2]?arguments[2]:null;return t&&t.length?"function"!=typeof n?null:("function"!=typeof r&&(r=null),function(e){var i=q(e,t,n);return null!=i&&r&&(i=r(i)),i}):null}function N(t,n){return t.t-n.t}function C(n,r,e,i,u){var o,a="@"===e[0],l="#"===e[0],f=I[e],s=m;switch(a?(o=e.substr(1),e=o.replace(E,F)):l&&(e=e.substr(1)),t(f)){case"function":if(s=f(i,u,q,R,e,a,r,n),l)return s;break;case"string":s=T(i,P(f));break;case"object":if((s=T(i,P(f.i),f.f))&&"function"==typeof f.u)return f.u(r,s,e,a,n)}return s?function(t,n,r){var e=arguments.length>3&&void 0!==arguments[3]&&arguments[3];if(e)return t instanceof j?function(e){return t.style(n,r(e))}:function(e){return t.style[n]=r(e)};if(Array.isArray(n)){var i=n.length;return function(e){var u=r(e);if(null==u)for(var o=0;o<i;o++)t[o].removeAttribute(n);else for(var a=0;a<i;a++)t[a].setAttribute(n,u)}}return function(e){var i=r(e);null==i?t.removeAttribute(n):t.setAttribute(n,i)}}(r,e,s,a):null}function z(n,r,e,i){if(!i||"object"!==t(i))return null;var u=null,o=null;return Array.isArray(i)?o=function(t){if(!t||!t.length)return null;for(var n=0;n<t.length;n++)t[n].e&&(t[n].e=R(t[n].e));return t.sort(N)}(i):(o=i.keys,u=i.data||null),o?C(n,r,e,o,u):null}function L(t,n,r){if(!r)return null;var e=[];for(var i in r)if(r.hasOwnProperty(i)){var u=z(t,n,i,r[i]);u&&e.push(u)}return e.length?e:null}function D(t,n){if(!n.duration||n.duration<0)return null;var r=function(t,n){if(!n)return null;var r=[];if(Array.isArray(n))for(var e=n.length,i=0;i<e;i++){var u=n[i];if(2===u.length){var o=null;if("string"==typeof u[0])o=t.getElementById(u[0]);else if(Array.isArray(u[0])){o=[];for(var a=0;a<u[0].length;a++)if("string"==typeof u[0][a]){var l=t.getElementById(u[0][a]);l&&o.push(l)}o=o.length?1===o.length?o[0]:new j(o):null}if(o){var f=L(t,o,u[1]);f&&(r=r.concat(f))}}}else for(var s in n)if(n.hasOwnProperty(s)){var c=t.getElementById(s);if(c){var h=L(t,c,n[s]);h&&(r=r.concat(h))}}return r.length?r:null}(t,n.elements);return r?function(t,n){var r=arguments.length>2&&void 0!==arguments[2]?arguments[2]:1/0,e=arguments.length>3&&void 0!==arguments[3]?arguments[3]:1,i=arguments.length>4&&void 0!==arguments[4]&&arguments[4],u=arguments.length>5&&void 0!==arguments[5]?arguments[5]:1,o=t.length,a=e>0?n:0;i&&r%2==0&&(a=n-a);var l=null;return function(f,s){var c=f%n,h=1+(f-c)/n;s*=e,i&&h%2==0&&(s=-s);var v=!1;if(h>r)c=a,v=!0,-1===u&&(c=e>0?0:n);else if(s<0&&(c=n-c),c===l)return!1;l=c;for(var y=0;y<o;y++)t[y](c);return v}}(r,n.duration,n.iterations||1/0,n.direction||1,!!n.alternate,n.fill||1):null}var V=function(){function t(r,e){var i=arguments.length>2&&void 0!==arguments[2]?arguments[2]:{};n(this,t),this._id=0,this._running=!1,this._rollingBack=!1,this._animations=r,this.duration=e.duration,this.alternate=e.alternate,this.fill=e.fill,this.iterations=e.iterations,this.direction=i.direction||1,this.speed=i.speed||1,this.fps=i.fps||100,this.offset=i.offset||0,this.rollbackStartOffset=0}return e(t,[{key:"_rollback",value:function(){var t=this,n=1/0,r=null;this.rollbackStartOffset=this.offset,this._rollingBack||(this._rollingBack=!0,this._running=!0);this._id=window.requestAnimationFrame((function e(i){if(t._rollingBack){null==r&&(r=i);var u=i-r,o=t.rollbackStartOffset-u,a=Math.round(o*t.speed);if(a>t.duration&&n!=1/0){var l=!!t.alternate&&a/t.duration%2>1,f=a%t.duration;a=(f+=l?t.duration:0)||t.duration}var s=t.fps?1e3/t.fps:0,c=Math.max(0,a);if(c<n-s){t.offset=c,n=c;for(var h=t._animations,v=h.length,y=0;y<v;y++)h[y](c,t.direction)}var d=!1;if(t.iterations>0&&-1===t.fill){var g=t.iterations*t.duration,p=g==a;a=p?0:a,t.offset=p?0:t.offset,d=a>g}a>0&&t.offset>=a&&!d?t._id=window.requestAnimationFrame(e):t.stop()}}))}},{key:"_start",value:function(){var t=this,n=arguments.length>0&&void 0!==arguments[0]?arguments[0]:0,r=-1/0,e=null,i={},u=function u(o){t._running=!0,null==e&&(e=o);var a=Math.round((o-e+n)*t.speed),l=t.fps?1e3/t.fps:0;if(a>r+l&&!t._rollingBack){t.offset=a,r=a;for(var f=t._animations,s=f.length,c=0,h=0;h<s;h++)i[h]?c++:(i[h]=f[h](a,t.direction),i[h]&&c++);if(c===s)return void t._stop()}t._id=window.requestAnimationFrame(u)};this._id=window.requestAnimationFrame(u)}},{key:"_stop",value:function(){this._id&&window.cancelAnimationFrame(this._id),this._running=!1,this._rollingBack=!1}},{key:"play",value:function(){!this._rollingBack&&this._running||(this._rollingBack=!1,this.rollbackStartOffset>this.duration&&(this.offset=this.rollbackStartOffset-(this.rollbackStartOffset-this.offset)%this.duration,this.rollbackStartOffset=0),this._start(this.offset))}},{key:"stop",value:function(){this._stop(),this.offset=0,this.rollbackStartOffset=0;var t=this.direction,n=this._animations;window.requestAnimationFrame((function(){for(var r=0;r<n.length;r++)n[r](0,t)}))}},{key:"reachedToEnd",value:function(){return this.iterations>0&&this.offset>=this.iterations*this.duration}},{key:"restart",value:function(){this._stop(),this.offset=0,this._start()}},{key:"pause",value:function(){this._stop()}},{key:"reverse",value:function(){this.direction=-this.direction}}],[{key:"build",value:function(n,r){return(n=function(t,n){if(I=n,!t||!t.root||!Array.isArray(t.animations))return null;for(var r=document.getElementsByTagName("svg"),e=!1,i=0;i<r.length;i++)if(r[i].id===t.root&&!r[i].svgatorAnimation){(e=r[i]).svgatorAnimation=!0;break}if(!e)return null;var u=t.animations.map((function(t){return D(e,t)})).filter((function(t){return!!t}));return u.length?{element:e,animations:u,animationSettings:t.animationSettings,options:t.options||void 0}:null}(n,r))?{el:n.element,options:n.options||{},player:new t(n.animations,n.animationSettings,n.options)}:null}}]),t}();!function(){for(var t=0,n=["ms","moz","webkit","o"],r=0;r<n.length&&!window.requestAnimationFrame;++r)window.requestAnimationFrame=window[n[r]+"RequestAnimationFrame"],window.cancelAnimationFrame=window[n[r]+"CancelAnimationFrame"]||window[n[r]+"CancelRequestAnimationFrame"];window.requestAnimationFrame||(window.requestAnimationFrame=function(n){var r=Date.now(),e=Math.max(0,16-(r-t)),i=window.setTimeout((function(){n(r+e)}),e);return t=r+e,i},window.cancelAnimationFrame=window.clearTimeout)}();var G=/\.0+$/g;function Q(t){return Number.isInteger(t)?t+"":t.toFixed(6).replace(G,"")}function U(t){var n=arguments.length>1&&void 0!==arguments[1]?arguments[1]:" ";return t&&t.length?t.map(Q).join(n):""}function $(t){return Q(t.x)+","+Q(t.y)}function H(t){return t?null==t.a||t.a>=1?"rgb("+t.r+","+t.g+","+t.b+")":"rgba("+t.r+","+t.g+","+t.b+","+t.a+")":"transparent"}var Y={f:null,i:A,u:function(t,n){return function(r){var e=n(r);t.setAttribute("rx",Q(e.x)),t.setAttribute("ry",Q(e.y))}}},Z={f:null,i:function(t,n,r){return 0===t?n:1===t?r:{width:w(t,n.width,r.width),height:w(t,n.height,r.height)}},u:function(t,n){return function(r){var e=n(r);t.setAttribute("width",Q(e.width)),t.setAttribute("height",Q(e.height))}}},J=Math.sin,K=Math.cos,W=Math.acos,X=Math.asin,tt=Math.tan,nt=Math.atan2,rt=Math.PI/180,et=180/Math.PI,it=Math.sqrt,ut=function(){function t(){var r=arguments.length>0&&void 0!==arguments[0]?arguments[0]:1,e=arguments.length>1&&void 0!==arguments[1]?arguments[1]:0,i=arguments.length>2&&void 0!==arguments[2]?arguments[2]:0,u=arguments.length>3&&void 0!==arguments[3]?arguments[3]:1,o=arguments.length>4&&void 0!==arguments[4]?arguments[4]:0,a=arguments.length>5&&void 0!==arguments[5]?arguments[5]:0;n(this,t),this.m=[r,e,i,u,o,a],this.i=null,this.w=null,this.s=null}return e(t,[{key:"determinant",get:function(){var t=this.m;return t[0]*t[3]-t[1]*t[2]}},{key:"isIdentity",get:function(){if(null===this.i){var t=this.m;this.i=1===t[0]&&0===t[1]&&0===t[2]&&1===t[3]&&0===t[4]&&0===t[5]}return this.i}},{key:"point",value:function(t,n){var r=this.m;return{x:r[0]*t+r[2]*n+r[4],y:r[1]*t+r[3]*n+r[5]}}},{key:"translateSelf",value:function(){var t=arguments.length>0&&void 0!==arguments[0]?arguments[0]:0,n=arguments.length>1&&void 0!==arguments[1]?arguments[1]:0;if(!t&&!n)return this;var r=this.m;return r[4]+=r[0]*t+r[2]*n,r[5]+=r[1]*t+r[3]*n,this.w=this.s=this.i=null,this}},{key:"rotateSelf",value:function(){var t=arguments.length>0&&void 0!==arguments[0]?arguments[0]:0;if(t%=360){var n=J(t*=rt),r=K(t),e=this.m,i=e[0],u=e[1];e[0]=i*r+e[2]*n,e[1]=u*r+e[3]*n,e[2]=e[2]*r-i*n,e[3]=e[3]*r-u*n,this.w=this.s=this.i=null}return this}},{key:"scaleSelf",value:function(){var t=arguments.length>0&&void 0!==arguments[0]?arguments[0]:1,n=arguments.length>1&&void 0!==arguments[1]?arguments[1]:1;if(1!==t||1!==n){var r=this.m;r[0]*=t,r[1]*=t,r[2]*=n,r[3]*=n,this.w=this.s=this.i=null}return this}},{key:"skewSelf",value:function(t,n){if(n%=360,(t%=360)||n){var r=this.m,e=r[0],i=r[1],u=r[2],o=r[3];t&&(t=tt(t*rt),r[2]+=e*t,r[3]+=i*t),n&&(n=tt(n*rt),r[0]+=u*n,r[1]+=o*n),this.w=this.s=this.i=null}return this}},{key:"resetSelf",value:function(){var t=arguments.length>0&&void 0!==arguments[0]?arguments[0]:1,n=arguments.length>1&&void 0!==arguments[1]?arguments[1]:0,r=arguments.length>2&&void 0!==arguments[2]?arguments[2]:0,e=arguments.length>3&&void 0!==arguments[3]?arguments[3]:1,i=arguments.length>4&&void 0!==arguments[4]?arguments[4]:0,u=arguments.length>5&&void 0!==arguments[5]?arguments[5]:0,o=this.m;return o[0]=t,o[1]=n,o[2]=r,o[3]=e,o[4]=i,o[5]=u,this.w=this.s=this.i=null,this}},{key:"recomposeSelf",value:function(){var t=arguments.length>0&&void 0!==arguments[0]?arguments[0]:null,n=arguments.length>1&&void 0!==arguments[1]?arguments[1]:null,r=arguments.length>2&&void 0!==arguments[2]?arguments[2]:null,e=arguments.length>3&&void 0!==arguments[3]?arguments[3]:null,i=arguments.length>4&&void 0!==arguments[4]?arguments[4]:null;return this.isIdentity||this.resetSelf(),t&&(t.x||t.y)&&this.translateSelf(t.x,t.y),n&&this.rotateSelf(n),r&&(r.x&&this.skewSelf(r.x,0),r.y&&this.skewSelf(0,r.y)),!e||1===e.x&&1===e.y||this.scaleSelf(e.x,e.y),i&&(i.x||i.y)&&this.translateSelf(i.x,i.y),this}},{key:"decompose",value:function(){var t=arguments.length>0&&void 0!==arguments[0]?arguments[0]:0,n=arguments.length>1&&void 0!==arguments[1]?arguments[1]:0,r=this.m,e=r[0]*r[0]+r[1]*r[1],i=[[r[0],r[1]],[r[2],r[3]]],u=it(e);if(0===u)return{origin:{x:r[4],y:r[5]},translate:{x:t,y:n},scale:{x:0,y:0},skew:{x:0,y:0},rotate:0};i[0][0]/=u,i[0][1]/=u;var o=r[0]*r[3]-r[1]*r[2]<0;o&&(u=-u);var a=i[0][0]*i[1][0]+i[0][1]*i[1][1];i[1][0]-=i[0][0]*a,i[1][1]-=i[0][1]*a;var l=it(i[1][0]*i[1][0]+i[1][1]*i[1][1]);if(0===l)return{origin:{x:r[4],y:r[5]},translate:{x:t,y:n},scale:{x:u,y:0},skew:{x:0,y:0},rotate:0};i[1][0]/=l,i[1][1]/=l,a/=l;var f=0;return i[1][1]<0?(f=W(i[1][1])*et,i[0][1]<0&&(f=360-f)):f=X(i[0][1])*et,o&&(f=-f),a=nt(a,it(i[0][0]*i[0][0]+i[0][1]*i[0][1]))*et,o&&(a=-a),{origin:{x:r[4],y:r[5]},translate:{x:t,y:n},scale:{x:u,y:l},skew:{x:a,y:0},rotate:f}}},{key:"toString",value:function(){return null===this.s&&(this.s="matrix("+this.m.map(at).join(" ")+")"),this.s}}]),t}(),ot=/\.0+$/;function at(t){return Number.isInteger(t)?t:t.toFixed(14).replace(ot,"")}Object.freeze({M:2,L:2,Z:0,H:1,V:1,C:6,Q:4,T:2,S:4,A:7});var lt={},ft=null;function st(n){var r=function(){if(ft)return ft;if("object"!==("undefined"==typeof document?"undefined":t(document)))return{};var n=document.createElementNS("http://www.w3.org/2000/svg","svg");return n.style.position="absolute",n.style.opacity="0.01",n.style.zIndex="-9999",n.style.left="-9999px",n.style.width="1px",n.style.height="1px",ft={svg:n}}().svg;if(!r)return function(t){return null};var e=document.createElementNS(r.namespaceURI,"path");e.setAttributeNS(null,"d",n),e.setAttributeNS(null,"fill","none"),e.setAttributeNS(null,"stroke","none"),r.appendChild(e);var i=e.getTotalLength();return function(t){var n=e.getPointAtLength(i*t);return{x:n.x,y:n.y}}}function ct(t){return lt[t]?lt[t]:lt[t]=st(t)}function ht(t,n,r,e){if(!t||!e)return!1;var i=["M",t.x,t.y];if(n&&r&&(i.push("C"),i.push(n.x),i.push(n.y),i.push(r.x),i.push(r.y)),n?!r:r){var u=n||r;i.push("Q"),i.push(u.x),i.push(u.y)}return n||r||i.push("L"),i.push(e.x),i.push(e.y),i.join(" ")}function vt(t,n,r,e){var i=arguments.length>4&&void 0!==arguments[4]?arguments[4]:1,u=ht(t,n,r,e),o=ct(u);try{return o(i)}catch(t){return null}}function yt(t,n,r,e){var i=1-e;return i*i*t+2*i*e*n+e*e*r}function dt(t,n,r,e){return 2*(1-e)*(n-t)+2*e*(r-n)}function gt(t,n,r,e){var i=arguments.length>4&&void 0!==arguments[4]&&arguments[4],u=vt(t,n,null,r,e);return u||(u={x:yt(t.x,n.x,r.x,e),y:yt(t.y,n.y,r.y,e)}),i&&(u.a=pt(t,n,r,e)),u}function pt(t,n,r,e){return Math.atan2(dt(t.y,n.y,r.y,e),dt(t.x,n.x,r.x,e))}function mt(t,n,r,e,i){var u=i*i;return i*u*(e-t+3*(n-r))+3*u*(t+r-2*n)+3*i*(n-t)+t}function bt(t,n,r,e,i){var u=1-i;return 3*(u*u*(n-t)+2*u*i*(r-n)+i*i*(e-r))}function wt(t,n,r,e,i){var u=arguments.length>5&&void 0!==arguments[5]&&arguments[5],o=vt(t,n,r,e,i);return o||(o={x:mt(t.x,n.x,r.x,e.x,i),y:mt(t.y,n.y,r.y,e.y,i)}),u&&(o.a=xt(t,n,r,e,i)),o}function xt(t,n,r,e,i){return Math.atan2(bt(t.y,n.y,r.y,e.y,i),bt(t.x,n.x,r.x,e.x,i))}function At(t,n,r){return t+(n-t)*r}function kt(t,n,r){var e=arguments.length>3&&void 0!==arguments[3]&&arguments[3],i={x:At(t.x,n.x,r),y:At(t.y,n.y,r)};return e&&(i.a=_t(t,n)),i}function _t(t,n){return Math.atan2(n.y-t.y,n.x-t.x)}function St(t,n,r){var e=arguments.length>3&&void 0!==arguments[3]&&arguments[3];if(Mt(n)){if(Bt(r))return gt(n,r.start,r,t,e)}else if(Mt(r)){if(n.end)return gt(n,n.end,r,t,e)}else{if(n.end)return r.start?wt(n,n.end,r.start,r,t,e):gt(n,n.end,r,t,e);if(r.start)return gt(n,r.start,r,t,e)}return kt(n,r,t,e)}function Ot(t,n,r){var e=St(t,n,r,!0);return e.a=function(t){var n=arguments.length>1&&void 0!==arguments[1]&&arguments[1];return n?t+Math.PI:t}(e.a)/p,e}function Mt(t){return!t.type||"corner"===t.type}function Bt(t){return null!=t.start&&!Mt(t)}var It=new ut;var jt={f:function(t){return t?t.join(" "):""},i:function(n,r,e){if(0===n)return r;if(1===n)return e;var i=r.length;if(i!==e.length)return m(n,r,e);for(var u,o=new Array(i),a=0;a<i;a++){if((u=t(r[a]))!==t(e[a]))return m(n,r,e);if("number"===u)o[a]=b(n,r[a],e[a]);else{if(r[a]!==e[a])return m(n,r,e);o[a]=r[a]}}return o}},Et={f:null,i:O,u:function(t,n){return function(r){var e=n(r);t.setAttribute("x1",Q(e[0])),t.setAttribute("y1",Q(e[1])),t.setAttribute("x2",Q(e[2])),t.setAttribute("y2",Q(e[3]))}}},Ft={f:Q,i:b},Pt={f:Q,i:function(t,n,r){var e=b(t,n,r);return e<=0?0:e>=1?1:e}},Rt={f:function(t){var n=arguments.length>1&&void 0!==arguments[1]?arguments[1]:" ";return t&&t.length>0&&(t=t.map((function(t){return Math.floor(1e4*t)/1e4}))),U(t,n)},i:function(t,n,r){var e,i,u,o=n.length,a=r.length;if(o!==a)if(0===o)n=M(o=a,0);else if(0===a)a=o,r=M(o,0);else{var l=(u=(e=o)*(i=a)/function(t,n){for(var r;n;)r=n,n=t%n,t=r;return t||1}(e,i))<0?-u:u;n=B(n,Math.floor(l/o)),r=B(r,Math.floor(l/a)),o=a=l}for(var f=[],s=0;s<o;s++)f.push(g(w(t,n[s],r[s]),6));return f}};function qt(t,n,r,e,i,u,o,a){return n=function(t,n,r){for(var e,i,u,o=t.length-1,a={},l=0;l<=o;l++)(e=t[l]).e&&(e.e=n(e.e)),e.v&&"g"===(i=e.v).t&&i.r&&(u=r.getElementById(i.r))&&(a[i.r]=u.querySelectorAll("stop"));return a}(t,e,a),function(e){var i,u=r(e,t,Tt);return u?"c"===u.t?H(u.v):"g"===u.t?(n[u.r]&&function(t,n){for(var r=0,e=t.length;r<e;r++)t[r].setAttribute("stop-color",H(n[r]))}(n[u.r],u.v),(i=u.r)?"url(#"+i+")":"none"):"none":"none"}}function Tt(t,n,r){if(0===t)return n;if(1===t)return r;if(n&&r){var e=n.t;if(e===r.t)switch(n.t){case"c":return{t:e,v:_(t,n.v,r.v)};case"g":if(n.r===r.r)return{t:e,v:S(t,n.v,r.v),r:n.r}}}return m(t,n,r)}var Nt={blur:A,brightness:w,contrast:w,"drop-shadow":function(t,n,r){return 0===t?n:1===t?r:{blur:A(t,n.blur,r.blur),offset:x(t,n.offset,r.offset),color:_(t,n.color,r.color)}},grayscale:w,"hue-rotate":b,invert:w,opacity:w,saturate:w,sepia:w};function Ct(t,n,r){if(0===t)return n;if(1===t)return r;var e=n.length;if(e!==r.length)return m(t,n,r);for(var i,u=[],o=0;o<e;o++){if(n[o].type!==r[o].type)return n;if(!(i=Nt[n[o].type]))return m(t,n,r);u.push({type:n.type,value:i(t,n[o].value,r[o].value)})}return u}var zt={blur:function(t){return t?function(n){t.setAttribute("stdDeviation",$(n))}:null},brightness:function(t,n,r){return(t=Dt(r,n))?function(n){n=Q(n),t.map((function(t){return t.setAttribute("slope",n)}))}:null},contrast:function(t,n,r){return(t=Dt(r,n))?function(n){var r=Q((1-n)/2);n=Q(n),t.map((function(t){t.setAttribute("slope",n),t.setAttribute("intercept",r)}))}:null},"drop-shadow":function(t,n,r){var e=r.getElementById(n+"-blur");if(!e)return null;var i=r.getElementById(n+"-offset");if(!i)return null;var u=r.getElementById(n+"-flood");return u?function(t){e.setAttribute("stdDeviation",$(t.blur)),i.setAttribute("dx",Q(t.offset.x)),i.setAttribute("dy",Q(t.offset.y)),u.setAttribute("flood-color",H(t.color))}:null},grayscale:function(t){return t?function(n){t.setAttribute("values",U(function(t){return[.2126+.7874*(t=1-t),.7152-.7152*t,.0722-.0722*t,0,0,.2126-.2126*t,.7152+.2848*t,.0722-.0722*t,0,0,.2126-.2126*t,.7152-.7152*t,.0722+.9278*t,0,0,0,0,0,1,0]}(n)))}:null},"hue-rotate":function(t){return t?function(n){return t.setAttribute("values",Q(n))}:null},invert:function(t,n,r){return(t=Dt(r,n))?function(n){n=Q(n)+" "+Q(1-n),t.map((function(t){return t.setAttribute("tableValues",n)}))}:null},opacity:function(t,n,r){return(t=r.getElementById(n+"-A"))?function(n){return t.setAttribute("tableValues","0 "+Q(n))}:null},saturate:function(t){return t?function(n){return t.setAttribute("values",Q(n))}:null},sepia:function(t){return t?function(n){return t.setAttribute("values",U(function(t){return[.393+.607*(t=1-t),.769-.769*t,.189-.189*t,0,0,.349-.349*t,.686+.314*t,.168-.168*t,0,0,.272-.272*t,.534-.534*t,.131+.869*t,0,0,0,0,0,1,0]}(n)))}:null}};var Lt=["R","G","B"];function Dt(t,n){var r=Lt.map((function(r){return t.getElementById(n+"-"+r)||null}));return-1!==r.indexOf(null)?null:r}var Vt={fill:qt,"fill-opacity":Pt,stroke:qt,"stroke-opacity":Pt,"stroke-width":Ft,"stroke-dashoffset":{f:Q,i:b},"stroke-dasharray":Rt,opacity:Pt,transform:function(n,r,e,i){if(!(n=function(n,r){if(!n||"object"!==t(n))return null;var e=!1;for(var i in n)n.hasOwnProperty(i)&&(n[i]&&n[i].length?(n[i].forEach((function(t){t.e&&(t.e=r(t.e))})),e=!0):delete n[i]);return e?n:null}(n,i)))return null;var u=function(t,i,u){var o=arguments.length>3&&void 0!==arguments[3]?arguments[3]:null;return n[t]?e(i,n[t],u):r&&r[t]?r[t]:o};return r&&r.a&&n.o?function(t){var r=e(t,n.o,Ot);return It.recomposeSelf(r,u("r",t,b,0)+r.a,u("k",t,x),u("s",t,x),u("t",t,x)).toString()}:function(t){return It.recomposeSelf(u("o",t,St,null),u("r",t,b,0),u("k",t,x),u("s",t,x),u("t",t,x)).toString()}},"#filter":function(t,n,r,e,i,u,o,a){if(!n.items||!t||!t.length)return null;var l=function(t,n){var r=(t=t.map((function(t){return t&&zt[t[0]]?(n.getElementById(t[1]),zt[t[0]](n.getElementById(t[1]),t[1],n)):null}))).length;return function(n){for(var e=0;e<r;e++)t[e]&&t[e](n[e].value)}}(n.items,a);return l?(t=function(t,n){return t.map((function(t){return t.e=n(t.e),t}))}(t,e),function(n){l(r(n,t,Ct))}):null},"#line":Et,points:{f:U,i:O},d:jt,r:Ft,"#size":Z,"#radius":Y,_:function(t,n){if(Array.isArray(t))for(var r=0;r<t.length;r++)this[t[r]]=n;else this[t]=n}};return function(t){!function(t,n){if("function"!=typeof n&&null!==n)throw new TypeError("Super expression must either be null or a function");t.prototype=Object.create(n&&n.prototype,{constructor:{value:t,writable:!0,configurable:!0}}),n&&u(t,n)}(o,t);var r=a(o);function o(){return n(this,o),r.apply(this,arguments)}return e(o,null,[{key:"build",value:function(t){var n=l(i(o),"build",this).call(this,t,Vt);n.el,n.options;var r=n.player;return function(t,n,r){t.play()}(r),r}}]),o}(V)}));
__SVGATOR_PLAYER__.build({"root":"ePSg5FOwEYm1","animations":[{"duration":10000,"direction":1,"iterations":0,"fill":1,"alternate":false,"speed":1,"elements":{"ePSg5FOwEYm3":{"transform":{"data":{"t":{"x":-152.49994659423828,"y":-707.0000610351562}},"keys":{"o":[{"t":0,"v":{"x":149.5066604642384,"y":723.0000610351562,"type":"corner"},"e":[0.42,0,0.58,1]},{"t":2400,"v":{"x":149.5066604642384,"y":701.1159590351563,"type":"corner"},"e":[0.42,0,0.58,1]},{"t":4800,"v":{"x":149.5066604642384,"y":723.0000610351562,"type":"corner"},"e":[0.42,0,0.58,1]},{"t":7600,"v":{"x":149.5066604642384,"y":701.1159590351563,"type":"corner"}},{"t":10000,"v":{"x":149.5066604642384,"y":723.0000610351562,"type":"corner"},"e":[0.42,0,0.58,1]}]}}},"ePSg5FOwEYm4":{"transform":{"data":{"t":{"x":-1100.99951171875,"y":-889.5001220703125}},"keys":{"o":[{"t":1000,"v":{"x":1082.0550070887502,"y":902.7333172503124,"type":"corner"},"e":[0.42,0,0.58,1]},{"t":3400,"v":{"x":1082.0550070887502,"y":885.2952720703125,"type":"corner"},"e":[0.42,0,0.58,1]},{"t":6200,"v":{"x":1082.29148958875,"y":902.5850652503125,"type":"corner"},"e":[0.42,0,0.58,1]},{"t":8490,"v":{"x":1082.00622558875,"y":885.4382092995701,"type":"corner"}},{"t":10000,"v":{"x":1082.0550070887502,"y":902.7333172503124,"type":"corner"},"e":[0.42,0,0.58,1]}]}}},"ePSg5FOwEYm5":{"transform":{"data":{"t":{"x":-100.00000381469727,"y":-1372.5018920898438}},"keys":{"o":[{"t":2000,"v":{"x":97.50833893469738,"y":1372.5018920898438,"type":"corner"}},{"t":4000,"v":{"x":97.50833893469739,"y":1355.5018920898438,"type":"corner"}},{"t":5800,"v":{"x":97.50833893469738,"y":1372.5018920898438,"type":"corner"}},{"t":7800,"v":{"x":97.50833893469739,"y":1355.5018920898438,"type":"corner"}},{"t":10000,"v":{"x":97.50833893469738,"y":1372.5018920898438,"type":"corner"}}]}}},"ePSg5FOwEYm82":{"stroke-dashoffset":[{"t":2600,"v":489.25},{"t":3000,"v":0},{"t":3400,"v":-489.25}]},"ePSg5FOwEYm83":{"stroke-dashoffset":[{"t":3600,"v":293.74},{"t":4000,"v":0},{"t":4400,"v":-293.74}],"stroke-dasharray":[{"t":3600,"v":[293.74]},{"t":4400,"v":[291.41]}]},"ePSg5FOwEYm84":{"stroke-dashoffset":[{"t":4400,"v":412.68},{"t":4800,"v":0},{"t":5200,"v":-412.68}]},"ePSg5FOwEYm85":{"stroke-dashoffset":[{"t":5200,"v":271.6},{"t":5600,"v":0},{"t":6000,"v":-271.6,"e":[0.42,0,0.58,1]}]},"ePSg5FOwEYm86":{"stroke-dashoffset":[{"t":6400,"v":170.44},{"t":6800,"v":0},{"t":7200,"v":-170.44}]}}}],"options":{"start":"load","hover":"freeze","click":"freeze","scroll":25,"font":"embed","exportedIds":"unique","svgFormat":"animated","title":"tracksectionstuff"},"animationSettings":{"duration":10000,"direction":1,"iterations":0,"fill":1,"alternate":false,"speed":1}})]]></script></svg>